<?xml version="1.0" standalone="no"?>
<!DOCTYPE svg PUBLIC "-//W3C//DTD SVG 20010904//EN"
 "http://www.w3.org/TR/2001/REC-SVG-20010904/DTD/svg10.dtd">
<svg version="1.0" xmlns="http://www.w3.org/2000/svg"
 width="868.000000pt" height="868.000000pt" viewBox="0 0 868.000000 868.000000"
 preserveAspectRatio="xMidYMid meet">
<metadata>
Created by potrace 1.11, written by Peter Selinger 2001-2013
</metadata>
<g transform="translate(0.000000,868.000000) scale(0.100000,-0.100000)"
fill="#000000" stroke="none">
<path d="M1895 8636 c-60 -17 -90 -36 -202 -128 -56 -46 -179 -140 -274 -208
-209 -151 -251 -188 -273 -239 -16 -35 -23 -39 -63 -45 -71 -9 -119 -36 -253
-141 -69 -54 -176 -132 -238 -173 -125 -82 -219 -164 -253 -219 -43 -69 -54
-170 -29 -262 9 -36 84 -143 238 -341 115 -148 213 -205 352 -202 66 1 93 8
230 57 93 34 103 36 168 36 60 0 120 -24 167 -69 78 -74 190 -149 301 -202
130 -63 327 -187 401 -254 l46 -42 -57 -38 c-73 -48 -176 -144 -221 -206 -67
-91 -124 -227 -142 -339 -10 -57 -10 -296 -1 -372 l6 -57 -46 25 c-130 69
-316 224 -624 523 -279 270 -253 247 -508 438 -109 82 -135 106 -285 268 -178
192 -169 184 -207 184 -49 0 -95 -32 -104 -72 -9 -44 -12 -232 -3 -283 4 -22
10 -58 13 -80 12 -81 19 -113 61 -285 24 -96 62 -233 85 -305 89 -279 103
-328 156 -568 91 -419 128 -554 234 -867 166 -493 396 -1076 487 -1232 52 -90
127 -171 178 -192 95 -40 192 -23 282 51 31 26 91 64 132 86 42 22 124 71 183
108 59 38 114 72 123 75 10 4 44 -23 102 -83 55 -55 121 -109 175 -143 49 -30
88 -57 88 -60 -1 -11 -28 -37 -100 -99 -133 -115 -293 -284 -355 -374 -33 -49
-84 -119 -113 -155 -28 -37 -87 -114 -130 -171 -131 -176 -191 -250 -217 -267
-25 -16 -27 -15 -96 31 -38 26 -94 55 -124 66 -108 38 -231 16 -340 -60 -32
-22 -74 -42 -98 -46 -154 -26 -330 -114 -418 -209 -30 -31 -68 -116 -76 -166
-12 -75 -6 -240 11 -336 30 -176 118 -405 177 -462 52 -51 162 -70 257 -46 29
8 57 12 62 9 4 -3 8 -45 8 -94 1 -132 30 -189 124 -237 57 -29 111 -42 209
-49 41 -3 85 -7 99 -9 14 -3 42 -7 62 -10 21 -3 57 -10 80 -15 24 -5 59 -12
78 -15 19 -3 53 -8 75 -12 118 -19 265 -5 337 32 44 23 207 189 254 259 75
112 107 202 106 300 -1 72 -15 109 -80 199 l-49 69 53 118 c28 65 62 133 75
151 36 51 284 359 322 398 70 73 66 83 62 -132 -3 -171 -8 -244 -21 -313 -33
-174 -38 -214 -38 -345 0 -151 10 -298 24 -363 13 -60 55 -112 113 -140 180
-85 353 -111 592 -91 158 14 800 6 887 -11 31 -6 279 -15 528 -19 183 -3 314
4 389 20 47 10 265 13 311 4 25 -5 83 -11 130 -15 47 -4 96 -9 110 -11 14 -3
126 -7 250 -10 246 -6 287 0 322 46 20 28 25 48 34 135 3 33 7 70 9 83 25 151
25 429 0 632 -13 106 -15 140 -20 281 -6 157 -7 177 -26 309 -13 87 -18 171
-11 183 2 5 17 -14 33 -42 16 -28 73 -108 126 -178 53 -71 130 -175 171 -233
70 -98 203 -261 262 -320 51 -50 140 -157 154 -184 16 -32 15 -48 -18 -171
-18 -66 -23 -110 -21 -165 5 -124 20 -147 208 -310 54 -47 112 -95 129 -108
65 -47 153 -51 227 -10 53 30 178 104 241 144 106 66 251 229 275 309 19 60 3
155 -36 218 -10 18 -19 35 -19 39 0 4 53 -11 118 -34 233 -82 344 -97 416 -56
43 25 106 110 162 221 107 210 106 257 -15 512 -63 131 -271 346 -426 440 -62
37 -105 47 -223 49 -99 2 -159 -9 -252 -45 -43 -18 -89 -29 -110 -28 -30 2
-94 30 -110 49 -16 18 -121 98 -220 169 -185 131 -205 148 -320 281 -111 128
-133 151 -205 219 -157 149 -205 200 -200 213 3 8 20 19 38 26 40 14 100 71
120 115 9 17 21 64 27 102 20 129 4 119 133 75 61 -21 149 -52 195 -69 119
-45 202 -61 311 -63 159 -2 211 25 280 145 33 59 37 71 121 362 88 304 104
357 180 595 103 322 155 506 205 724 25 108 47 211 50 229 3 18 14 77 25 132
10 55 22 116 25 135 3 19 8 42 10 50 2 8 6 33 10 55 3 22 12 76 20 120 8 44
17 93 19 109 3 16 10 52 15 80 6 28 12 67 15 86 3 19 10 58 15 85 5 28 12 68
15 90 4 23 8 52 11 65 26 135 33 194 41 348 8 137 -3 191 -42 217 -82 54 -157
2 -382 -264 -141 -167 -226 -251 -413 -407 -25 -22 -70 -59 -99 -84 -111 -93
-262 -212 -465 -365 -115 -87 -212 -161 -215 -164 -3 -3 -18 -17 -34 -31 l-29
-25 7 62 c4 33 8 69 10 80 4 19 19 233 19 268 0 93 -37 262 -64 289 -11 12
-12 66 -1 82 4 6 59 67 123 135 64 68 153 167 197 219 44 52 109 125 145 162
53 56 68 66 88 61 13 -3 29 -9 34 -13 6 -4 30 -11 55 -15 25 -4 56 -9 70 -11
34 -6 287 -5 329 1 213 29 286 180 295 606 5 246 -12 295 -130 365 -149 88
-303 116 -454 80 -36 -8 -68 -12 -71 -8 -4 4 -13 54 -22 112 -9 58 -18 116
-22 130 -3 14 -12 60 -20 103 -18 96 -47 158 -98 204 -70 62 -117 77 -248 79
-64 1 -141 -2 -170 -7 -30 -5 -70 -11 -89 -14 -40 -6 -52 -8 -165 -31 -172
-34 -312 -87 -371 -140 -55 -50 -77 -106 -72 -177 5 -50 18 -86 70 -192 36
-71 72 -143 80 -158 15 -27 13 -32 -48 -148 -53 -102 -157 -268 -195 -312 -10
-12 -256 -342 -287 -386 -9 -13 -21 -28 -27 -35 -5 -6 -29 -37 -53 -69 -30
-40 -48 -56 -60 -53 -46 13 -253 55 -297 61 -208 24 -318 29 -630 29 -274 -1
-524 -8 -600 -19 -16 -2 -68 -7 -115 -11 -47 -3 -87 -8 -90 -9 -3 -2 -37 -6
-75 -10 -39 -4 -77 -9 -85 -10 -8 -1 -44 -6 -80 -10 -36 -3 -76 -8 -90 -10
-14 -2 -45 -7 -70 -10 -25 -3 -76 -13 -115 -21 -138 -29 -122 -32 -205 39 -73
62 -239 228 -316 316 -22 24 -55 61 -74 81 -19 21 -46 50 -60 66 -125 146
-163 187 -219 243 -37 35 -81 74 -98 88 -18 14 -33 31 -33 37 0 6 31 55 70
108 107 150 130 203 135 316 4 83 -17 165 -75 287 -50 108 -224 373 -296 454
-66 73 -160 102 -249 77z m186 -506 c138 -183 179 -248 179 -281 0 -15 -35
-57 -106 -128 -138 -138 -224 -268 -224 -336 0 -56 51 -135 170 -262 36 -39
89 -99 119 -134 30 -35 167 -176 304 -312 146 -145 246 -252 241 -257 -6 -6
-30 10 -59 36 -82 75 -257 237 -279 259 -44 43 -185 161 -225 189 -33 23 -44
27 -54 17 -13 -13 -18 -7 134 -140 41 -35 121 -109 179 -165 58 -55 130 -123
159 -150 52 -48 61 -76 23 -76 -30 0 -101 44 -162 100 -114 104 -446 360 -467
360 -35 0 47 -84 169 -173 43 -31 106 -80 140 -109 35 -30 98 -82 141 -117 72
-58 77 -65 63 -79 -14 -15 -20 -14 -58 5 -24 12 -77 52 -118 89 -97 87 -318
264 -330 264 -38 0 1 -54 89 -120 72 -54 157 -125 173 -145 9 -11 46 -42 82
-70 36 -27 65 -53 66 -57 0 -4 -8 -12 -18 -17 -22 -12 -27 -8 -339 245 -136
111 -300 243 -363 294 -63 52 -137 116 -165 143 -57 56 -114 86 -180 92 -46 5
-356 -52 -436 -80 -77 -27 -71 -31 -204 119 -38 44 -87 98 -107 120 -21 23
-38 45 -38 50 0 23 127 130 290 246 96 68 187 134 203 146 34 28 47 24 117
-36 75 -65 108 -81 155 -75 43 5 94 49 96 83 0 9 1 82 2 161 l2 143 50 44 c56
50 225 168 298 208 93 52 142 76 153 73 6 -1 67 -76 135 -167z m4866 -175 c4
-46 12 -113 17 -150 3 -22 7 -62 11 -90 3 -27 7 -66 10 -85 3 -19 7 -57 10
-85 15 -139 25 -176 59 -218 14 -18 102 -51 115 -43 25 16 512 28 527 13 8 -8
8 -26 3 -250 -3 -142 -5 -148 -69 -142 -169 16 -385 21 -473 12 -114 -13 -137
-25 -227 -117 -179 -183 -472 -490 -496 -520 -31 -37 -44 -50 -56 -50 -11 0
-10 28 0 32 5 2 29 30 55 63 25 33 109 141 186 240 77 99 141 185 141 192 1
60 -216 -185 -375 -424 l-47 -72 -34 26 c-19 14 -34 30 -34 35 0 8 60 91 103
143 4 6 42 55 83 110 84 112 120 156 182 227 43 50 51 68 30 68 -42 0 -86 -49
-298 -339 -135 -184 -145 -191 -194 -146 -32 29 -30 35 48 135 54 70 174 227
209 274 12 16 39 52 60 78 51 65 87 119 87 129 0 42 -93 -53 -222 -226 -49
-66 -98 -131 -108 -144 -11 -13 -43 -59 -72 -102 -29 -43 -59 -81 -67 -84 -16
-6 -59 19 -67 40 -3 7 8 28 25 46 17 18 46 55 65 83 59 89 131 184 172 228
115 124 165 198 133 198 -21 0 -204 -204 -280 -312 -32 -46 -76 -109 -99 -141
-22 -32 -47 -60 -56 -64 -23 -9 -64 14 -64 36 0 10 33 60 74 109 41 49 166
211 277 358 111 148 219 290 241 315 42 52 68 105 68 143 0 13 -17 55 -37 93
-59 108 -104 204 -124 260 -15 43 -15 54 -4 63 12 10 122 30 253 44 66 8 108
15 152 26 59 14 105 8 107 -15z m-2889 -1839 c17 -4 32 -12 32 -18 0 -5 17
-53 39 -106 21 -54 44 -122 50 -153 7 -35 37 -101 79 -176 38 -66 85 -154 105
-196 95 -197 95 -194 -57 -358 -96 -104 -169 -212 -268 -400 -109 -206 -111
-220 -50 -308 22 -31 64 -102 93 -156 64 -122 147 -262 160 -270 22 -14 4 -47
-81 -153 -147 -183 -153 -208 -95 -386 19 -60 35 -115 35 -123 0 -8 -21 -71
-46 -141 -55 -152 -126 -395 -149 -512 -9 -47 -27 -121 -40 -165 -32 -110 -35
-137 -18 -173 22 -46 51 -52 218 -48 83 2 160 0 172 -5 23 -8 47 -40 57 -74 6
-19 1 -20 -132 -21 -117 0 -145 -4 -195 -23 -62 -24 -150 -102 -177 -156 -20
-41 -141 -224 -151 -231 -13 -7 -23 24 -57 168 -38 160 -88 265 -154 322 -63
54 -97 64 -199 61 -127 -5 -203 -29 -263 -84 l-28 -26 7 85 c3 47 8 112 10
145 2 33 7 94 11 135 4 41 7 119 6 172 -2 147 -34 206 -125 233 -28 8 -64 25
-81 38 -50 39 -123 72 -257 116 -91 30 -137 51 -166 76 -39 33 -77 103 -87
161 -7 33 -5 26 -44 204 -29 130 -43 212 -47 275 -20 288 -22 521 -11 1270 6
358 10 411 33 475 60 166 274 332 502 390 78 19 242 46 341 55 30 2 82 7 115
10 33 3 74 7 90 10 17 2 53 7 80 10 28 4 101 15 164 26 63 10 144 22 180 25
36 4 67 8 69 9 6 6 300 -3 330 -9z m1142 -31 c215 -7 490 -14 715 -19 66 -1
135 -6 153 -9 18 -4 65 -14 105 -22 48 -10 78 -22 89 -36 21 -25 54 -130 79
-254 24 -120 26 -131 34 -211 4 -38 9 -80 12 -94 5 -35 15 -955 15 -1505 0
-256 5 -494 11 -537 14 -107 3 -139 -75 -215 -101 -98 -182 -158 -313 -228
-38 -21 -112 -66 -162 -99 -99 -65 -117 -88 -132 -172 -9 -46 -7 -481 2 -539
5 -32 18 -142 18 -150 0 -2 4 -18 9 -35 19 -66 -28 -32 -69 50 -42 83 -117
146 -216 181 -75 26 -203 35 -280 19 -71 -14 -186 -67 -236 -109 -34 -29 -209
-279 -209 -300 0 -34 -23 -8 -70 75 -37 69 -74 117 -129 172 -54 54 -87 99
-114 151 -20 40 -34 77 -31 82 3 5 47 8 97 7 51 -1 106 2 123 6 45 10 85 56
91 105 6 46 -6 84 -74 231 -25 52 -63 142 -85 200 -89 234 -182 405 -271 501
-32 34 -47 63 -63 124 -20 73 -17 117 9 153 12 18 57 80 100 139 44 59 80 114
82 123 5 28 -29 112 -89 220 -33 58 -82 146 -109 195 -28 50 -62 106 -77 125
-15 19 -30 43 -33 52 -11 30 67 164 188 326 63 83 132 183 154 221 46 78 99
147 159 207 23 23 42 51 42 63 0 12 -19 58 -41 104 -23 45 -75 161 -115 258
-40 97 -102 236 -139 310 -65 132 -66 134 -43 140 26 7 571 4 888 -6z m2921
-46 c-11 -37 -92 -347 -95 -364 -2 -11 -11 -47 -19 -80 -9 -33 -19 -75 -22
-94 -3 -19 -7 -37 -9 -40 -2 -3 -7 -24 -10 -46 -10 -62 -52 -233 -95 -383 -38
-132 -65 -240 -75 -292 -2 -14 -9 -45 -15 -70 -5 -25 -12 -56 -15 -70 -21
-107 -28 -138 -46 -212 -41 -159 -78 -268 -200 -583 -42 -110 -99 -263 -125
-340 -26 -77 -53 -146 -58 -153 -16 -20 -81 -7 -184 34 -78 31 -225 107 -311
159 -9 6 -48 28 -87 50 -38 21 -76 45 -83 52 -22 22 -30 67 -26 154 2 46 6
320 9 609 4 289 8 530 10 536 2 6 27 23 57 37 29 15 91 53 138 86 47 33 108
76 135 96 28 19 66 49 85 65 131 114 249 210 660 538 58 46 162 140 232 209
114 111 161 144 149 102z m-7633 -93 c70 -58 143 -120 163 -138 20 -18 73 -67
119 -108 46 -41 102 -93 124 -115 86 -84 170 -157 239 -209 40 -29 106 -86
147 -125 97 -93 349 -283 470 -354 148 -87 134 -66 130 -198 -6 -194 -4 -597
3 -749 7 -149 10 -175 29 -270 6 -30 13 -78 15 -106 8 -92 -16 -119 -252 -275
-77 -50 -182 -125 -234 -166 -51 -41 -99 -72 -105 -70 -22 7 -67 106 -120 267
-29 91 -77 226 -106 300 -63 163 -70 183 -255 725 -244 719 -273 808 -364
1155 -65 248 -90 340 -140 508 -6 21 -6 32 1 32 5 0 67 -47 136 -104z m5874
-3409 c26 -27 226 -243 274 -296 27 -30 76 -80 109 -110 140 -131 201 -190
264 -255 138 -144 289 -287 356 -341 111 -88 158 -94 273 -35 49 26 111 48
170 60 52 12 121 32 155 45 33 14 68 25 78 25 23 0 51 -31 158 -175 49 -66
119 -151 156 -189 58 -60 66 -72 57 -91 -18 -39 -214 -200 -235 -192 -6 2 -59
41 -116 86 -58 45 -114 87 -124 93 -36 19 -109 2 -220 -51 -114 -54 -126 -62
-146 -100 -27 -50 18 -175 100 -273 21 -26 39 -55 39 -65 0 -11 -25 -38 -61
-65 -91 -70 -178 -147 -234 -205 -27 -29 -57 -53 -66 -53 -21 0 -232 127 -242
146 -6 10 -1 34 13 67 128 301 137 331 115 383 -6 16 -106 146 -220 289 -115
143 -236 298 -268 345 -87 124 -209 273 -351 425 -52 57 -156 199 -156 215 0
51 34 23 192 -158 176 -202 228 -256 271 -278 24 -13 28 -13 34 2 4 11 -17 39
-70 92 -41 43 -142 155 -225 249 -152 175 -162 194 -127 223 12 10 98 -73 215
-210 30 -36 60 -69 66 -75 5 -5 35 -39 65 -75 124 -149 135 -160 149 -160 25
0 21 33 -7 63 -17 18 -69 79 -118 137 -98 118 -142 167 -262 291 -78 81 -100
119 -70 119 12 0 95 -85 318 -324 106 -113 196 -199 225 -214 70 -37 -3 50
-271 323 -159 163 -292 298 -294 300 -3 4 8 25 14 25 2 0 10 -6 17 -13z
m-3902 -165 c0 -10 -29 -53 -65 -96 -63 -75 -95 -110 -270 -291 -44 -46 -128
-134 -186 -196 -58 -63 -125 -134 -148 -159 -56 -60 -66 -79 -46 -86 10 -4 33
12 68 49 28 30 113 119 187 198 74 78 183 191 242 252 59 60 131 140 160 178
53 68 80 84 92 53 10 -27 7 -39 -21 -70 -16 -17 -64 -71 -108 -120 -44 -49
-142 -151 -217 -227 -169 -169 -296 -343 -271 -368 6 -6 36 26 76 78 92 122
128 164 237 273 53 53 131 136 174 185 150 170 146 167 162 154 8 -6 14 -20
14 -31 0 -22 -18 -45 -161 -198 -270 -290 -531 -640 -650 -870 -72 -139 -61
-211 47 -322 30 -32 71 -70 90 -84 18 -15 34 -30 34 -34 0 -5 -39 -64 -87
-132 -163 -232 -159 -229 -271 -205 -42 9 -95 19 -117 22 -22 2 -51 7 -65 10
-14 3 -45 8 -69 11 -72 8 -223 43 -237 55 -19 16 -18 55 8 187 20 103 20 118
7 155 -9 27 -27 50 -49 65 -31 22 -42 23 -105 18 -38 -3 -113 -17 -165 -31
-62 -16 -98 -21 -106 -14 -11 9 -17 31 -30 99 -16 87 -60 257 -101 392 -7 22
33 40 152 67 81 19 280 88 362 126 57 27 70 21 101 -47 47 -102 137 -167 205
-147 49 14 83 48 189 189 74 99 232 261 403 415 179 161 495 484 495 506 0 5
9 9 20 9 13 0 20 -7 20 -18z m760 -247 c14 -7 35 -24 47 -37 39 -41 88 -181
107 -303 2 -16 8 -50 11 -75 4 -25 9 -54 11 -65 2 -11 6 -42 9 -70 3 -27 8
-61 10 -75 3 -14 7 -56 10 -95 2 -38 7 -108 11 -155 3 -47 7 -121 9 -165 13
-348 21 -475 31 -532 5 -28 3 -33 -14 -33 -53 0 -53 -2 -46 194 7 186 1 240
-31 266 -20 16 -53 -4 -62 -38 -11 -47 -8 -245 5 -307 21 -96 23 -90 -33 -88
-36 2 -55 8 -67 23 -18 22 -17 15 -3 430 17 512 17 610 0 610 -25 0 -69 -141
-80 -258 -4 -37 -8 -78 -11 -92 -6 -38 -5 -408 2 -557 l6 -133 -28 0 c-56 0
-57 3 -56 191 0 96 1 228 2 294 2 164 2 177 -10 170 -26 -16 -63 -121 -75
-215 -12 -96 -5 -280 15 -371 11 -54 1 -62 -64 -57 -31 3 -59 7 -62 11 -10 10
-6 113 12 297 1 19 6 114 9 210 3 96 8 229 10 294 2 66 7 212 10 325 4 113 11
223 16 243 6 24 29 56 66 93 91 90 154 109 233 70z m2147 -126 c51 -25 173
-141 232 -223 76 -103 117 -206 182 -463 34 -131 63 -246 65 -256 2 -10 5 -26
8 -35 3 -9 8 -33 12 -52 3 -19 7 -42 9 -50 5 -25 15 -117 31 -285 4 -38 11
-81 16 -94 12 -32 -5 -42 -46 -29 -17 5 -41 12 -53 15 -13 3 -23 8 -24 12 -1
3 -2 79 -4 167 -3 173 -19 256 -54 288 -19 17 -20 17 -30 -3 -11 -20 -9 -204
5 -359 3 -45 2 -78 -5 -85 -12 -16 -117 -15 -132 0 -7 7 -7 22 0 49 18 64 3
384 -23 511 -5 26 -17 104 -18 118 0 6 -4 20 -9 33 -5 13 -12 37 -15 55 -7 40
-8 43 -23 95 -9 31 -17 42 -31 42 -21 0 -20 5 -22 -152 -1 -56 11 -267 17
-296 1 -9 6 -53 10 -97 4 -44 9 -93 10 -110 2 -16 6 -70 10 -120 3 -49 8 -97
11 -106 7 -24 -20 -41 -61 -37 l-37 3 -3 205 c-1 113 -5 214 -8 225 -2 11 -8
40 -11 65 -13 98 -51 246 -78 307 -17 39 -22 43 -30 29 -14 -25 -12 -180 7
-466 15 -222 17 -368 6 -374 -6 -4 -35 -10 -62 -13 -60 -6 -68 1 -63 61 9 96
10 251 2 309 -15 116 -63 236 -85 214 -3 -4 -6 -137 -5 -296 1 -189 -2 -292
-9 -297 -6 -3 -25 -8 -42 -10 -18 -2 -49 -6 -69 -9 -47 -6 -50 2 -54 155 -4
193 -4 593 0 620 3 14 7 57 11 95 3 39 8 77 10 85 2 8 6 38 10 65 13 106 65
283 96 327 11 14 19 30 19 36 0 16 85 89 132 113 87 44 132 49 195 18z m-1077
-104 c46 -24 114 -98 148 -163 43 -81 90 -228 118 -365 2 -10 5 -26 8 -35 3
-9 7 -39 11 -67 3 -27 8 -57 10 -65 2 -8 6 -37 10 -65 6 -52 7 -60 25 -190 13
-96 16 -119 37 -255 8 -58 16 -130 17 -160 l1 -55 -48 -9 c-67 -12 -73 -3 -53
81 31 133 35 202 16 300 -14 72 -69 188 -89 188 -9 0 -24 -29 -40 -75 -22 -66
-25 -94 -28 -241 -1 -91 1 -179 6 -196 10 -33 5 -46 -21 -56 -43 -16 -50 14
-63 273 -11 210 -20 317 -40 480 -9 73 -26 149 -35 155 -8 5 -19 -16 -25 -50
-23 -132 -32 -238 -29 -340 3 -88 12 -210 20 -250 2 -11 6 -47 9 -79 3 -33 10
-67 16 -78 5 -10 7 -18 5 -18 -3 0 4 -16 15 -36 29 -52 21 -63 -45 -63 -46 0
-58 4 -67 21 -9 17 -6 572 5 743 4 57 9 294 7 313 -3 27 -23 9 -46 -40 -28
-62 -62 -219 -72 -333 -13 -147 -6 -576 11 -662 6 -30 -22 -45 -71 -37 -21 3
-39 7 -40 8 -2 1 -4 133 -7 293 -4 267 -6 295 -25 338 -11 25 -25 44 -30 41
-5 -4 -20 -32 -33 -64 -21 -54 -22 -70 -23 -327 0 -148 -4 -273 -8 -276 -10
-8 -114 -2 -128 7 -8 4 -9 53 -5 163 3 86 7 165 10 176 2 11 7 47 10 80 4 33
20 139 36 235 16 96 32 193 35 215 40 266 169 473 338 544 74 30 81 30 147 -4z"/>
<path d="M2837 5539 c-33 -19 -99 -177 -136 -324 -30 -119 -55 -271 -66 -410
-4 -44 -9 -88 -11 -98 -8 -44 -18 -350 -18 -537 2 -524 42 -651 225 -713 71
-24 129 -28 479 -30 310 -2 327 -1 370 19 67 31 110 80 110 124 0 59 -73 268
-148 422 -38 79 -75 159 -82 178 -15 38 -32 70 -92 174 -23 38 -52 97 -65 130
-49 123 -116 305 -164 446 -73 212 -209 551 -233 579 -39 44 -126 65 -169 40z"/>
<path d="M5482 5488 c-27 -13 -73 -107 -165 -333 -57 -140 -85 -207 -141 -330
-8 -16 -33 -79 -56 -140 -24 -60 -58 -140 -77 -178 -18 -37 -42 -89 -52 -115
-32 -81 -103 -237 -226 -497 -60 -128 -102 -234 -121 -304 -13 -51 -13 -58 6
-95 11 -23 37 -53 58 -67 70 -49 90 -52 410 -45 163 3 317 8 342 10 25 3 74 8
110 11 94 8 162 15 185 20 11 2 30 4 42 4 29 1 108 80 128 128 15 36 15 108
-1 198 -2 11 -6 85 -9 165 -7 173 -14 310 -20 365 -2 22 -6 69 -10 105 -5 63
-13 129 -21 179 -2 13 -6 45 -9 70 -4 25 -11 60 -15 76 -5 17 -12 44 -14 60
-9 52 -44 176 -85 305 -22 69 -48 159 -57 200 -39 176 -112 251 -202 208z"/>
<path d="M7346 5050 c-47 -26 -56 -35 -142 -140 -38 -47 -76 -94 -86 -105 -62
-76 -288 -356 -310 -385 -46 -61 -54 -149 -27 -305 31 -181 65 -269 139 -363
51 -64 81 -81 140 -77 120 6 154 82 111 248 -21 81 -39 200 -45 299 -5 77 4
97 74 178 73 85 157 201 192 265 116 214 140 310 90 366 -36 40 -85 47 -136
19z"/>
<path d="M997 4863 c-29 -99 -11 -137 248 -503 114 -162 211 -304 215 -315 4
-10 3 -37 -2 -59 -17 -74 11 -163 58 -185 28 -12 79 -6 108 13 29 18 67 153
74 257 4 74 3 79 -29 125 -43 64 -69 97 -138 169 -31 33 -104 116 -161 185
-57 69 -151 178 -208 243 -122 138 -143 147 -165 70z"/>
</g>
</svg>
