<?xml version="1.0" encoding="utf-8"?>
<!-- Generator: Adobe Illustrator 21.0.2, SVG Export Plug-In . SVG Version: 6.00 Build 0)  -->
<svg version="1.1" id="Layer_1" xmlns="http://www.w3.org/2000/svg" xmlns:xlink="http://www.w3.org/1999/xlink" x="0px" y="0px"
	 viewBox="0 0 196.2 116.8" style="enable-background:new 0 0 196.2 116.8;" xml:space="preserve">
<style type="text/css">
	.st0{fill:#1E0F11;}
	.st1{fill:#DE215B;}
</style>
<path class="st0" d="M8.9,86.5c-1.3-6.6,0.8-13,2.2-19.2c1.9-8.1,1.6-16,1.8-24.1c0.3-10.7,1.9-21.8,11.8-28.5
	c7.4-5,15.5-7.1,24.5-3.4c4.5,1.9,10,0.9,13.8,4.7c0.6,0.6,1.2,0.1,1.8-0.3c10.6-9.2,22.8-5.8,34.6-4c4.6,0.7,9,2.5,12.6,5.5
	c1.6,1.3,2.6,1.5,4.1-0.2c3-3.5,7.3-4.5,11.7-4.6c10.6-0.1,21.2-0.1,31.6,2.6c2.5,0.7,5.6-0.2,8.3-0.9c10-2.4,23.7,9.5,19.3,21.9
	c-3.6,10.1-5.6,12.7-16.5,13.5c-2.6,0.2-3.3,1.3-3.7,4.1c-0.9,7.7,0.8,15.5-1.7,23.1c-0.9,2.7,1.4,5.8-0.3,8.7
	c-0.2,0.3-0.1,0.7-0.2,1c-2.9,10.2-17.1,18.7-27.3,16.1c-3.6-0.9-6.2-1.1-9.2,1.9c-4.4,4.4-13.2,4.3-18.6,0.7
	c-1.2-0.8-2.4-1.8-3.7-2.5c-3.2-1.9-5.5-2.9-8.8,1.3c-5.2,6.5-16.4,7.9-23.7,0.3c-1.8-1.9-2.9-2.1-5.2-0.6
	c-5.5,3.6-11.4,3.9-17.5,1.4c-4-1.7-7.5-2.1-11.8,0.4c-4.8,2.8-10.4,4.9-16.5,3.3c-8.9-2.3-14-9-13.5-18.2
	C8.7,89.2,8.8,87.8,8.9,86.5z M88,70.5c3.7,3.6,8.5,4.5,10.7,8.8c1.1,2.1,2.9,3.4,4.6,5c3.7,3.4,8.7,4.1,12.5,7
	c1,0.7,1.8,2.7,3.1,1.1c1.1-1.2,2.7-3.5,0.7-4.8c-6.8-4.2-7.3-12.4-11.9-18c-1.3-1.6-1.9-4.2,0.1-5.4c4.1-2.4,5.1-6.4,6-10.4
	c1.7-7,1.1-13.6-4.1-19.4c-8-9.1-18.6-10.2-29.6-9.8c-5.1,0.2-8.7,3.9-8.1,7.5c0.7,4.7,0.9,9.5,2.1,14.2c1.1,4.4,1.5,9,2.3,13.5
	c1.9,10.2-2.9,21.6,5.4,30.8c1.1,1.2,1.4,3.8,3.5,3.5c2.2-0.4,1.1-2.7,1.3-4.3C87.3,83.7,85.4,77.3,88,70.5z M27.9,49.7
	c0.1,7.3-0.7,13.7-2.5,20.2c-2,7-2.3,14.3-2,21.6c0.1,1.2,0.4,2.3,1.6,2.8c2.6,1.1,10.1-3.1,10.1-6c0-5.4,1.8-10.3,3.6-15.3
	c1.7-4.8,5.4-2.4,7.9-2.6c2.2-0.2,4.2,2.6,3.7,4.9c-1,4.4,0.4,8.1,1.8,12c1.3,3.6,5,5.3,8.4,3.5c4-2.1,4.5-4.6,2.3-10.7
	c-1.3-3.5-3-7-2.9-10.9c0.1-5.5-1-10.8-2.4-16.1c-1.6-6-2.9-11.8-1.8-18.3c0.7-4.7-0.6-8.9-6.7-8.3c-2.2,0.2-4.1-0.9-6.1-1.9
	c-4.1-2-10.9,1.5-12.6,5.7C27.7,37,27.1,43.6,27.9,49.7z M138.6,78.2c0,3.4,0,5.4,0,7.4c0,1.2-0.1,2.4,1.4,2.8
	c1.3,0.3,2.7,0.7,3.6-0.7c2.9-4.1,8.9-6.6,6.8-13.3c-0.2-0.7,0.2-1.6,0.4-2.4c1.4-5.7,1.9-12,0.9-17.2c-1.2-6.1,3-9.9,3.2-15.1
	c0-0.7,1.3-1.9,2-2c4.4-0.2,7.9-3.7,12.4-3.2c1.9,0.2,3.3-0.2,3.4-2.4c0.2-2.4-1.4-3.4-3.4-3.4c-2.5,0-5,0.5-7.4,1.1
	c-1.8,0.4-3.5,0.6-5.4,0c-8.6-2.6-17.6-2.7-26.5-3.1c-2.2-0.1-4,0.3-4.2,3s-0.6,6,2.9,6.5c6.2,1,7.6,4.6,7.2,10.1
	c-0.2,2.8,1.1,5.6,1,8.4c-0.2,5.6,2.7,10.8,1.9,16.3C138.5,74,138.5,76.8,138.6,78.2z"/>
<path class="st1" d="M88,70.5c-2.6,6.8-0.7,13.2-1.5,19.4c-0.2,1.5,0.9,3.9-1.3,4.3c-2,0.3-2.3-2.3-3.5-3.5
	c-8.3-9.2-3.5-20.6-5.4-30.8c-0.8-4.5-1.2-9.1-2.3-13.5c-1.2-4.7-1.3-9.5-2.1-14.2c-0.6-3.6,3-7.4,8.1-7.5c11-0.4,21.6,0.7,29.6,9.8
	c5.2,5.8,5.8,12.4,4.1,19.4c-0.9,4-1.9,7.9-6,10.4c-1.9,1.1-1.4,3.7-0.1,5.4c4.6,5.6,5.1,13.8,11.9,18c2.1,1.3,0.4,3.5-0.7,4.8
	c-1.3,1.6-2.2-0.4-3.1-1.1c-3.8-2.9-8.8-3.6-12.5-7c-1.7-1.6-3.6-2.9-4.6-5C96.5,75,91.7,74.1,88,70.5z M88.7,50.7
	c0.2,2.8-1.4,5.9,3.2,6c6.4,0.2,10.1-2.6,10.5-8.2c0.2-2.4-6-7.3-9.7-6.8C86.6,42.5,90.2,48,88.7,50.7z"/>
<path class="st1" d="M27.9,49.7c-0.8-6.1-0.2-12.7,2.4-19.2c1.7-4.2,8.5-7.7,12.6-5.7c2,1,3.9,2.1,6.1,1.9c6.1-0.5,7.5,3.7,6.7,8.3
	c-1,6.4,0.2,12.2,1.8,18.3c1.4,5.2,2.5,10.6,2.4,16.1c-0.1,3.9,1.7,7.4,2.9,10.9c2.2,6,1.7,8.5-2.3,10.7c-3.4,1.8-7.1,0-8.4-3.5
	c-1.5-3.9-2.9-7.6-1.8-12c0.5-2.3-1.5-5.1-3.7-4.9c-2.6,0.3-6.2-2.2-7.9,2.6c-1.8,5-3.5,9.9-3.6,15.3c0,2.8-7.5,7-10.1,6
	c-1.3-0.5-1.6-1.6-1.6-2.8c-0.3-7.3,0-14.6,2-21.6C27.2,63.5,28,57,27.9,49.7z M45.1,41.9c-2,3.2-2.7,6.5-2.6,10.1
	c0.1,2.1,1.3,2.9,3.3,2.7c1.7-0.2,2.7-0.6,2.7-2.7C48.4,48.3,48.6,44.6,45.1,41.9z"/>
<path class="st1" d="M138.6,78.2c-0.1-1.4-0.1-4.2,0.3-7.1c0.8-5.6-2.1-10.8-1.9-16.3c0.1-2.8-1.2-5.6-1-8.4c0.4-5.6-1-9.2-7.2-10.1
	c-3.5-0.5-3.1-3.8-2.9-6.5s2-3.1,4.2-3c8.9,0.4,17.9,0.5,26.5,3.1c1.9,0.6,3.5,0.4,5.4,0c2.4-0.6,4.9-1,7.4-1.1c1.9,0,3.5,1,3.4,3.4
	c-0.2,2.3-1.5,2.6-3.4,2.4c-4.5-0.5-8,2.9-12.4,3.2c-0.7,0-2,1.3-2,2c-0.2,5.1-4.4,8.9-3.2,15.1c1,5.2,0.5,11.5-0.9,17.2
	c-0.2,0.8-0.7,1.7-0.4,2.4c2.1,6.7-3.9,9.2-6.8,13.3c-1,1.4-2.4,1-3.6,0.7c-1.5-0.4-1.4-1.6-1.4-2.8
	C138.7,83.6,138.6,81.6,138.6,78.2z"/>
<path class="st0" d="M88.7,50.7c1.5-2.7-2-8.2,4-9c3.7-0.5,9.8,4.4,9.7,6.8c-0.4,5.6-4.1,8.4-10.5,8.2
	C87.2,56.6,88.9,53.5,88.7,50.7z"/>
<path class="st0" d="M45.1,41.9c3.5,2.7,3.3,6.4,3.4,10.1c0.1,2.1-1,2.5-2.7,2.7c-2,0.2-3.3-0.6-3.3-2.7
	C42.4,48.5,43,45.1,45.1,41.9z"/>
</svg>
