<?xml version="1.0" encoding="utf-8"?>
<!-- Generator: Adobe Illustrator 21.0.2, SVG Export Plug-In . SVG Version: 6.00 Build 0)  -->
<svg version="1.1" id="Layer_1" xmlns="http://www.w3.org/2000/svg" xmlns:xlink="http://www.w3.org/1999/xlink" x="0px" y="0px"
	 viewBox="0 0 620.5 828.4" style="enable-background:new 0 0 620.5 828.4;" xml:space="preserve">
<style type="text/css">
	.st0{fill:#1E0F11;}
	.st1{fill:#DE215B;}
	.st2{fill:#1A0B0C;}
	.st3{fill:#E51D5B;}
</style>
<g id="x4jJAY_1_">
	<g>
		<path class="st0" d="M269.6,707.3c-4.9,4.9-9.2,10.4-16.3,10c-6.4-0.4-12.9-1.5-16.9-7.6c-6.6,7.7-13.9,10.6-26.7,3.9
			c-1.4-0.7-2.2-0.7-3.5,0c-5.4,3.3-11.3,4.3-17.6,3.9c-9.8-0.7-19.5,0.7-28.7,4.1c-3.5,1.3-6.9,1-10.1-0.4c-3-1.3-5.9-1.5-9-0.4
			c-5.1,1.8-9.7,0.3-14.1-2.5c-1.5-1-3.2-1.8-4.7-2.8c-2.4-1.6-3.9-1.5-5.9,1.2c-5.7,7.7-17,8.6-24.1,1.9
			c-6.6-6.2-10.9-13.8-11.5-23c-0.2-3-1.2-2.9-3.6-2.7c-5.5,0.3-8.2,2.4-7.4,8.3c0.4,2.8,0.1,5.6-0.2,8.4
			c-0.6,6.5-4.3,11.1-10.1,12.8c-7.5,2.2-15.3,0-19.9-5.7c-6.2-7.7-10-16.3-9.2-26.5c0.8-10.8-1.7-21.1-3.4-31.6
			c-0.7-4.2-1.4-8.5-1.7-12.7c-0.8-14,12.4-22.7,25.6-22.3c9.9,0.3,19.9,1.1,28.6,6.8c1.2,0.8,2.1,0.6,3.1-0.3
			c9.6-8.7,21-6.8,32.1-5.1c6.9,1,13.4,3.7,18.8,8.5c1.7,1.5,2.3,1.5,4.1-0.3c7.3-7.5,16.2-10.8,26.5-7.4c6.5,2.2,12.9,0.2,19.2,0.9
			c1,0.1,2.2-0.5,2.9-0.1c7.6,4.6,15.1-0.2,22.6-0.2c7.8,0,15.6,0.8,23.3,0.5c8.8-0.4,17.6-1.1,26.4,0.5c0.8,0.1,1.7-0.1,2.4-0.4
			c10.3-4.1,20.8-2.8,31.3-1.3c1,0.1,2.1,0.3,2.9-0.1c7.5-3.3,14.7-0.9,21.8,1.2c5.7,1.7,9.2,9.1,9.3,15.7
			c0.1,10.1-3.8,18.7-8.5,26.9c-5.8,10.2-8.3,20.7-7,32.5c0.5,4.5-1.1,9.5-5.1,12.4c-7.1,5.2-14.4,9.9-24.2,7.5
			C273.9,719.9,271.2,714.6,269.6,707.3z M218,693.1c0,2.2,0,4.3,0,6.5c-0.1,2.6,2.2,3.7,3.5,2.7c3.1-2.2,7.2-4.8,8-8
			c1-3.8,1.2-8.1,1.6-12.2c0.8-8.9-1.7-18.2,2.9-26.7c0.1-0.1,0-0.3,0.1-0.5c0.4-4,3.4-4.2,6.2-4c2.8,0.2,5.9,0.8,5.7,4.8
			c-0.2,4.7,1.4,9.3,1.4,13.9c0,5.6,3.1,10.8,1.8,16.4c-1,4.5,0.4,9-0.2,13.4c-0.3,2.5,1.8,3.9,3.4,2.9c3.1-2,7.8-5,7.7-7.4
			c-0.1-5.1,2.3-9.8,1.7-14.7c-0.7-5.4,1.9-10.9-0.5-16.3c-0.3-0.6,0.5-1.9,1.1-2.7c1.3-2,2.3-4.1,2.6-6.4c0.4-2.6,2-3.6,4.4-4
			c2.3-0.3,3.8,1.4,4,3c1.1,6.3,5,11.6,6.3,17.7c2.2,10.5,3.7,21.2,4.2,32c0.2,4.6,1.4,4.8,5.6,3.2c4.9-1.8,7.7-3.9,4.8-9.4
			c-0.1-0.3-0.1-0.7,0-1c3-10.1,2.1-21.2,8.2-30.5c3.1-4.7,5.1-9.9,7.6-14.9c3.1-6.4,0.7-11.8-5.5-12.1c-5.6-0.3-9.9,3.5-9.2,9.3
			c0.6,4.9-2,8.6-3.1,12.9c-0.2,0.9-1.1,1.7-2.2,1.7c-1.4,0-1.7-1.2-1.6-2.1c0.4-5.5-2.5-10.7-0.7-16.3c1-3.1-0.3-5.1-4.1-4.8
			c-3,0.2-5.9,0.1-8.9-0.5c-2.1-0.4-4.6-0.5-5.1,2.5c-0.4,2.9-2,2.4-3.9,1.8c-8.7-2.5-17.7-1.9-26.6-2.4c-2.2-0.1-2.5,2.6-5.1,2
			c-7.7-2-15.8-1.7-23.7-1.9c-4.3-0.1-5.4,1.8-4.6,6c0.5,2.8,2.7,3,4.7,3.8c2.2,0.8,5.2,0.9,5.2,4.4
			C215.3,667.8,220,680.2,218,693.1z M150.6,681.9c-0.8,5.3,1.2,13.2,2.1,21.2c0.4,3.4,1.5,5.4,5.4,3.7c10.5-4.4,21.5-4.6,32.7-4.1
			c1.6,0.1,3.3,0,5-0.3c1.7-0.3,3.2-1.2,3.6-3c0.5-2.1-1.6-2.6-2.7-3c-4.6-1.7-9.7-2.4-14-4.7c-4.6-2.3-10.3-0.2-14.2-4.4
			c-1-1.1-1.9-1.8-1.5-3.3c0.5-1.7,1.9-1.6,3.2-1.6c3.2,0.1,6-0.7,9-2.4c2.3-1.3,4.9-2.7,7.9-2.5c3.1,0.2,6-0.8,6-4.5
			c-0.1-3.9-3.5-3.6-6-3.4c-5.3,0.6-10.3-0.3-15.4-1.9c-1.6-0.5-2.6-0.9-3.3-2.5c-1.8-4.3,0.4-10.5,5.1-11.4
			c6.2-1.1,11.6-6.1,18.5-3.9c1.4,0.5,2.6-0.5,2.9-2c0.3-1.5,0.4-3.1-1.5-3.7c-3.7-1.2-7.1-3-11.4-3c-6.6,0.1-13.5,1.8-19.8-0.9
			c-5-2.1-9.9-1.8-12.9,1.5c-2.9,3.2-3.2,9.2-1.9,13C150.3,662.9,151,670.8,150.6,681.9z M106.4,684.4c3.2,3.6,8,4.2,10.2,8.3
			c1.9,3.6,5.1,5.9,8.6,7.7c2.8,1.4,5.6,2.7,8.3,4.3c1.4,0.8,2.6,2.9,4,0.8c1.1-1.6,1.3-3.8-0.8-5.3c-2.1-1.4-3.8-3.3-5-5.5
			c-2.3-4-3.1-8.6-6.2-12.3c-1.2-1.5-1.1-3.8,1.1-5.2c2.8-1.8,3.5-4.5,4.7-7.5c5.4-13.9-3.2-23.8-13.2-28.7c-6.1-3-12.7-2.1-19-2.9
			c-5.7-0.7-9.7,4.9-8.7,10.7c0.7,4.1,1.5,8.1,2.2,12.2c0.8,4.1,1.1,8.4,1.9,12.6c2.2,10.5-2.6,22.2,5.7,31.7c1,1.1,1.4,3,3.1,2.7
			c2.1-0.4,1.2-2.4,1.4-3.7C105.7,697.9,103.4,691.3,106.4,684.4z M44.9,684.7c-1,8.1,0.2,15.6,5.6,22c0.8,1,1.5,1.8,2.9,1.6
			c1.6-0.2,0.8-1.5,0.9-2.3c0.9-5.1,0.9-10.2,0.1-15.4c-0.5-3.4-0.2-8.5,3-9.1c4.1-0.7,7.9-2.9,12.4-2.3c3.7,0.5,7.8-1.2,10-4.2
			c3.6-4.9,3.7-11.4,3.3-16.7c-0.6-7.5-6.5-12.6-13-16.5c-6.6-3.9-14.2-3.1-21.3-3.7c-4.5-0.4-9.1,4.1-8.8,7.5
			c0.4,3.8,1.5,7.5,1.5,11.3C41.6,666.3,46.5,675.1,44.9,684.7z"/>
		<path class="st0" d="M396.3,711.7c-5.6,8.6-13.5,11.3-23.2,8.9c-2.8-0.7-5.5-0.8-8.2,0.2c-6.3,2.2-12.2,0-17.9-1.9
			c-4.1-1.4-6.5-4.9-7.8-9.2c-2.1-7.1-1.8-14.5-3.1-21.6c-1.7-9.1-3.9-18.1-5.8-27.2c-1.4-6.7-2.6-13.3-2.3-20.2
			c0.6-12,10.2-19.7,21.7-16.8c6.6,1.6,14,1.1,19.5,6.4c1.3,1.2,3.2,0.5,4.6-0.4c8.2-5.4,16.5-8.1,26-2.8c2.1,1.2,5.1-0.6,7.6-1.5
			c3.5-1.2,7.2-2.5,10.6-0.9c7,3.2,14.4,1.8,21.6,1.8c4.6,0,8.8,0.5,12.9,2.8c3.3,1.8,5.9,2.1,9.3-1.3c6.9-6.9,15.5-5.2,23.8-2.6
			c1.7,0.5,3.3,1.5,5.3,0.8c15.6-5,30.3-2.9,44.1,6c1.3,0.9,2.2,0.9,3.3-0.5c8-9.7,19-9,30.1-9.2c13.3-0.2,21.9,8.3,31.2,15.6
			c3.4,2.7,3.8,7,4.8,10.7c3.1,11.5,5.3,23.1,2.1,35.2c-3.6,13.4-11.6,23.4-22.7,31.4c-9.4,6.8-19.2,8.9-30.2,4.5
			c-2.2-0.9-4.3-0.9-6.9,0.2c-6,2.5-12,1.8-17.3-2.3c-1.3-1-3-1.4-4.3-2.4c-2.4-1.8-3.6-1.2-5.4,1.2c-5.5,7.5-16.9,8.7-23.7,2.4
			c-3-2.7-4.2-3.1-7.1,0.1c-7.4,8-21.4,9.1-27.1-1.7c-0.6-1.1-1.3-2.1-2.7-1.5c-7.2,3.1-14.8,1.5-22.2,1.7
			c-6.1,0.1-11.8,1.4-17.3,3.4C409.1,724.7,400.4,719.7,396.3,711.7z M367.7,687c3.5,4.4,4.6,8.3,3.8,12.9c-0.7,3.8,1.1,6,5.4,6.6
			c3.9,0.5,5.6-0.9,6.1-4.5c0.2-1.5,0.9-2.9,1.1-4.3c0.9-8.7,3.1-17.3,4.8-25.8c1.8-8.7,4.1-17.3,6.1-26c1.3-5.6-3-6.3-5.4-6.7
			c-2.6-0.4-6.4,1.4-7.2,4.8c-1.2,5.3-2.6,10.5-1.4,16.2c0.7,3.4-0.8,7.2-1.5,10.8c-0.2,1-0.6,2.6-2,2.4c-1.5-0.2-1.1-1.8-1.3-2.9
			c-1.1-7.5-2.2-15-3.1-22.6c-0.3-2.6-1.5-2.6-3.3-1.9c-4.1,1.7-4.9,5.6-4.6,9.1c0.7,6.8-3,12.6-3.5,19c-0.1,0.9-1.1,2-2.9,1.5
			c1.4-10.2-1.8-20.3-0.1-30.5c0.5-2.8,1.4-6.2-4-4.3c-1.5,0.5-3.7-0.7-5.5-1.4c-5.1-2.2-6.3-1.5-6.3,4.1c0,7.2,2.2,14,3.5,21.1
			c2.1,12,6,23.7,5.8,36.1c-0.1,4.6,2.7,5.9,6.7,6c4.3,0.1,5-2.9,5.7-6.2C365.4,696.4,366.5,692.3,367.7,687z M560.5,637.3
			c-1.8,0.1-3.7,0-5.4,0.5c-2.7,0.8-6.1,2.7-5.5,5.4c1,4.2,0.2,8.4,1.2,12.6c1.4,6.1,2.7,12.3,2.8,18.6c0.2,8.2,2.2,16.3,0.6,24.5
			c-0.3,1.8,0.6,3,1.6,4.5c3.3,4.9,11.2,5.1,15.5,2.4c2.7-1.7,4.2-4.6,6.9-5.9c5.8-2.7,9.6-6.5,10.1-13.1c0.1-1,0.5-2.2,1.6-3
			c3.3-2.5,3.9-6.6,3.8-10c-0.3-6.5-1.5-13-2.8-19.3c-1.4-7-12.8-16.2-20-16.7C567.4,637.4,564,637.1,560.5,637.3z M444.6,702.7
			c2,0,4,0.1,6,0c2.6-0.1,5.7-0.5,6-3.3c0.3-2.6-2.9-4-5.1-4.4c-4.2-0.6-8.3-1.7-12-3.4c-4.5-2.1-10-0.4-13.8-4.4
			c-1-1-2-1.7-1.4-3.3c0.5-1.3,1.6-1.6,2.8-1.6c2.8,0,5.6,0,8.2-1.6c3.1-1.9,6.4-3.4,10.2-3.3c2.8,0.1,5.1-1.4,5.1-4.4
			c0-3.1-2.6-3.5-5.1-3.4c-5.6,0.2-11,0.3-16.4-1.9c-1.4-0.6-2.6-0.4-3.2-2.3c-1.5-4.5-0.7-9.1,3.4-10.6c6.1-2.2,12-6.7,19.2-4.9
			c1.8,0.4,3.3,0.3,3.9-1.9c0.6-2.2-0.2-3.5-2.3-4.2c-4.1-1.4-8-2.6-12.5-2.5c-7.2,0.2-14.5,1.1-21.7-2c-4.1-1.8-10.4,2.1-10.7,5.4
			c-0.5,6.2-0.7,12.3,1.8,18.2c0.6,1.5,0.9,3.2,1,4.9c0.2,11.7-0.2,23.4,1.8,35c0.7,4.4,2,5.6,6.1,3.9
			C425.1,702.9,434.8,702.3,444.6,702.7z M509.7,684.1c3.3,3.7,8.2,4.2,10.3,8.4c1.9,3.9,5.5,5.8,8.9,8.2c2.8,1.9,6.4,1.8,8.7,4.6
			c0.9,1,2,2.1,3.3,0.5c1.1-1.3,1.9-3.4,0.3-4.4c-6.5-4-7.2-11.7-11.3-17.2c-2-2.8-2-5.3,1.2-7.7c3.9-2.9,6.6-14.9,4.8-19.6
			c-4.3-11.7-13.6-18.1-26.3-18.1c-1.6,0-3.3-0.2-4.9-0.5c-6.1-1.1-11.5,3.5-10.6,9.7c1.4,10.7,3.2,21.4,4.6,32.2
			c1,8.4-1.9,17.6,5.2,24.9c1,1,1.4,3.1,2.9,3c2-0.2,1.2-2.3,1.4-3.7C509.1,697.9,507,691.3,509.7,684.1z M473.3,697.2
			c0.2,3.2,0.5,7,0.8,10.9c0.2,2.5,2.1,3,3.3,1.4c1.9-2.6,4.5-4.1,6.9-5.9c2.4-1.8,2.7-4.4,0.8-7c-0.6-0.8-1.6-1.1-1.3-2.8
			c1.7-9.2,3.6-18.3,2.6-27.8c-0.5-4.9-0.2-9.9,2.1-14.7c1.4-3,2.5-8.1-0.4-9.6c-4.1-2.1-8.8-4.1-13.7-3.9c-2.3,0.1-4.4,1.8-3.7,3.7
			c1.1,3.2-0.1,6.1,0.3,9.2c0.9,8.1,3.3,16.2-0.3,24.3c-1,2.2-0.6,5,0.7,7.3C473.6,686.7,474.5,691.5,473.3,697.2z"/>
		<path class="st0" d="M238.3,805.5c-1.3-6.6,0.8-13,2.2-19.2c1.9-8.1,1.6-16,1.8-24.1c0.3-10.7,1.9-21.8,11.8-28.5
			c7.4-5,15.5-7.1,24.5-3.4c4.5,1.9,10,0.9,13.8,4.7c0.6,0.6,1.2,0.1,1.8-0.3c10.6-9.2,22.8-5.8,34.6-4c4.6,0.7,9,2.5,12.6,5.5
			c1.6,1.3,2.6,1.5,4.1-0.2c3-3.5,7.3-4.5,11.7-4.6c10.6-0.1,21.2-0.1,31.6,2.6c2.5,0.7,5.6-0.2,8.3-0.9c10-2.4,23.7,9.5,19.3,21.9
			c-3.6,10.1-5.6,12.7-16.5,13.5c-2.6,0.2-3.3,1.3-3.7,4.1c-0.9,7.7,0.8,15.5-1.7,23.1c-0.9,2.7,1.4,5.8-0.3,8.7
			c-0.2,0.3-0.1,0.7-0.2,1c-2.9,10.2-17.1,18.7-27.3,16.1c-3.6-0.9-6.2-1.1-9.2,1.9c-4.4,4.4-13.2,4.3-18.6,0.7
			c-1.2-0.8-2.4-1.8-3.7-2.5c-3.2-1.9-5.5-2.9-8.8,1.3c-5.2,6.5-16.4,7.9-23.7,0.3c-1.8-1.9-2.9-2.1-5.2-0.6
			c-5.5,3.6-11.4,3.9-17.5,1.4c-4-1.7-7.5-2.1-11.8,0.4c-4.8,2.8-10.4,4.9-16.5,3.3c-8.9-2.3-14-9-13.5-18.2
			C238.1,808.2,238.2,806.9,238.3,805.5z M317.4,789.5c3.7,3.6,8.5,4.5,10.7,8.8c1.1,2.1,2.9,3.4,4.6,5c3.7,3.4,8.7,4.1,12.5,7
			c1,0.7,1.8,2.7,3.1,1.1c1.1-1.2,2.7-3.5,0.7-4.8c-6.8-4.2-7.3-12.4-11.9-18c-1.3-1.6-1.9-4.2,0.1-5.4c4.1-2.4,5.1-6.4,6-10.4
			c1.7-7,1.1-13.6-4.1-19.4c-8-9.1-18.6-10.2-29.6-9.8c-5.1,0.2-8.7,3.9-8.1,7.5c0.7,4.7,0.9,9.5,2.1,14.2c1.1,4.4,1.5,9,2.3,13.5
			c1.9,10.2-2.9,21.6,5.4,30.8c1.1,1.2,1.4,3.8,3.5,3.5c2.2-0.4,1.1-2.7,1.3-4.3C316.7,802.8,314.8,796.4,317.4,789.5z M257.4,768.7
			c0.1,7.3-0.7,13.7-2.5,20.2c-2,7-2.3,14.3-2,21.6c0.1,1.2,0.4,2.3,1.6,2.8c2.6,1.1,10.1-3.1,10.1-6c0-5.4,1.8-10.3,3.6-15.3
			c1.7-4.8,5.4-2.4,7.9-2.6c2.2-0.2,4.2,2.6,3.7,4.9c-1,4.4,0.4,8.1,1.8,12c1.3,3.6,5,5.3,8.4,3.5c4-2.1,4.5-4.6,2.3-10.7
			c-1.3-3.5-3-7-2.9-10.9c0.1-5.5-1-10.8-2.4-16.1c-1.6-6-2.9-11.8-1.8-18.3c0.7-4.7-0.6-8.9-6.7-8.3c-2.2,0.2-4.1-0.9-6.1-1.9
			c-4.1-2-10.9,1.5-12.6,5.7C257.1,756,256.5,762.6,257.4,768.7z M368.1,797.2c0,3.4,0,5.4,0,7.4c0,1.2-0.1,2.4,1.4,2.8
			c1.3,0.3,2.7,0.7,3.6-0.7c2.9-4.1,8.9-6.6,6.8-13.3c-0.2-0.7,0.2-1.6,0.4-2.4c1.4-5.7,1.9-12,0.9-17.2c-1.2-6.1,3-9.9,3.2-15.1
			c0-0.7,1.3-1.9,2-2c4.4-0.2,7.9-3.7,12.4-3.2c1.9,0.2,3.3-0.2,3.4-2.4c0.2-2.4-1.4-3.4-3.4-3.4c-2.5,0-5,0.5-7.4,1.1
			c-1.8,0.4-3.5,0.6-5.4,0c-8.6-2.6-17.6-2.7-26.5-3.1c-2.2-0.1-4,0.3-4.2,3c-0.2,2.7-0.6,6,2.9,6.5c6.2,1,7.6,4.6,7.2,10.1
			c-0.2,2.8,1.1,5.6,1,8.4c-0.2,5.6,2.7,10.8,1.9,16.3C367.9,793,367.9,795.8,368.1,797.2z"/>
		<path class="st1" d="M218,693.1c2-12.9-2.7-25.2-2.7-38c0-3.5-3-3.6-5.2-4.4c-2-0.8-4.2-1-4.7-3.8c-0.8-4.2,0.4-6.1,4.6-6
			c7.9,0.2,16-0.1,23.7,1.9c2.6,0.7,2.9-2.1,5.1-2c8.9,0.5,17.9-0.1,26.6,2.4c1.9,0.6,3.5,1.1,3.9-1.8c0.4-3,3-2.9,5.1-2.5
			c3,0.6,6,0.7,8.9,0.5c3.8-0.3,5.1,1.7,4.1,4.8c-1.8,5.6,1.2,10.8,0.7,16.3c-0.1,0.9,0.2,2.1,1.6,2.1c1.1,0,2-0.8,2.2-1.7
			c1.1-4.3,3.8-8,3.1-12.9c-0.7-5.7,3.6-9.6,9.2-9.3c6.2,0.4,8.6,5.8,5.5,12.1c-2.4,5-4.5,10.2-7.6,14.9c-6,9.3-5.1,20.4-8.2,30.5
			c-0.1,0.3-0.2,0.7,0,1c3,5.5,0.1,7.6-4.8,9.4c-4.2,1.6-5.3,1.3-5.6-3.2c-0.5-10.8-2.1-21.4-4.2-32c-1.3-6.1-5.2-11.4-6.3-17.7
			c-0.3-1.6-1.7-3.3-4-3c-2.4,0.3-4,1.4-4.4,4c-0.3,2.3-1.3,4.4-2.6,6.4c-0.5,0.8-1.3,2-1.1,2.7c2.4,5.4-0.2,10.9,0.5,16.3
			c0.7,5-1.8,9.6-1.7,14.7c0,2.5-4.7,5.4-7.7,7.4c-1.5,1-3.7-0.4-3.4-2.9c0.6-4.5-0.8-9,0.2-13.4c1.2-5.7-1.9-10.8-1.8-16.4
			c0-4.6-1.6-9.2-1.4-13.9c0.2-4-2.9-4.6-5.7-4.8c-2.8-0.2-5.9,0.1-6.2,4c0,0.2,0,0.4-0.1,0.5c-4.6,8.5-2.1,17.8-2.9,26.7
			c-0.4,4.1-0.6,8.4-1.6,12.2c-0.8,3.2-4.9,5.8-8,8c-1.3,0.9-3.6-0.1-3.5-2.7C218.1,697.4,218,695.2,218,693.1z"/>
		<path class="st1" d="M150.6,681.9c0.4-11.1-0.3-19-3.1-26.9c-1.3-3.9-1.1-9.8,1.9-13c3-3.3,7.9-3.7,12.9-1.5
			c6.3,2.7,13.2,0.9,19.8,0.9c4.3,0,7.7,1.8,11.4,3c1.9,0.6,1.7,2.2,1.5,3.7c-0.3,1.6-1.5,2.5-2.9,2c-6.9-2.3-12.3,2.7-18.5,3.9
			c-4.8,0.9-7,7.1-5.1,11.4c0.7,1.6,1.7,2,3.3,2.5c5,1.6,10,2.5,15.4,1.9c2.5-0.3,6-0.5,6,3.4c0.1,3.6-2.9,4.6-6,4.5
			c-3-0.2-5.6,1.2-7.9,2.5c-2.9,1.6-5.7,2.5-9,2.4c-1.4,0-2.8-0.1-3.2,1.6c-0.4,1.5,0.5,2.2,1.5,3.3c3.9,4.3,9.7,2.1,14.2,4.4
			c4.3,2.2,9.4,3,14,4.7c1.1,0.4,3.2,0.9,2.7,3c-0.4,1.8-2,2.7-3.6,3c-1.6,0.3-3.3,0.4-5,0.3c-11.1-0.5-22.2-0.3-32.7,4.1
			c-3.9,1.7-5.1-0.3-5.4-3.7C151.8,695.1,149.9,687.2,150.6,681.9z"/>
		<path class="st1" d="M106.4,684.4c-3,7-0.7,13.5-1.8,19.8c-0.2,1.4,0.7,3.4-1.4,3.7c-1.7,0.3-2.1-1.6-3.1-2.7
			c-8.3-9.5-3.5-21.2-5.7-31.7c-0.9-4.2-1.2-8.4-1.9-12.6c-0.7-4-1.5-8.1-2.2-12.2c-1-5.8,3-11.5,8.7-10.7c6.3,0.8,12.9-0.1,19,2.9
			c10,4.9,18.6,14.8,13.2,28.7c-1.2,3-1.9,5.7-4.7,7.5c-2.1,1.4-2.3,3.8-1.1,5.2c3.1,3.7,3.9,8.4,6.2,12.3c1.3,2.2,2.9,4,5,5.5
			c2.2,1.5,2,3.7,0.8,5.3c-1.4,2.1-2.7,0-4-0.8c-2.7-1.6-5.5-2.9-8.3-4.3c-3.6-1.8-6.7-4.1-8.6-7.7
			C114.4,688.6,109.6,687.9,106.4,684.4z M106.9,664.1c-0.2,6.3-0.2,6.4,3.2,6.5c6.3,0.2,9.8-2.6,10.2-8.1c0.2-2.7-5.5-7.4-9.4-6.9
			C105.4,656.3,107.6,661.2,106.9,664.1z"/>
		<path class="st1" d="M44.9,684.7c1.6-9.6-3.3-18.5-3.3-27.9c0-3.8-1.1-7.5-1.5-11.3c-0.3-3.4,4.3-8,8.8-7.5
			c7.2,0.7,14.7-0.1,21.3,3.7c6.5,3.8,12.4,9,13,16.5c0.4,5.3,0.2,11.8-3.3,16.7c-2.2,3.1-6.3,4.7-10,4.2c-4.5-0.6-8.3,1.7-12.4,2.3
			c-3.3,0.5-3.6,5.6-3,9.1c0.8,5.2,0.8,10.3-0.1,15.4c-0.1,0.8,0.7,2.1-0.9,2.3c-1.3,0.2-2.1-0.6-2.9-1.6
			C45.1,700.3,43.9,692.8,44.9,684.7z M61,670.5c5.9,0,9.2-2.6,8.9-7c-0.3-4.8-4.6-8.4-9.5-8.2c-1.6,0.1-2.7,0.6-2.9,2.1
			c-0.4,3.6-0.8,7.2-0.7,10.9C56.8,671,59.2,670.5,61,670.5z"/>
		<path class="st1" d="M367.7,687c-1.3,5.2-2.4,9.3-3.3,13.5c-0.7,3.2-1.3,6.3-5.7,6.2c-4-0.1-6.8-1.5-6.7-6
			c0.2-12.4-3.7-24.1-5.8-36.1c-1.2-7-3.4-13.8-3.5-21.1c0-5.6,1.2-6.3,6.3-4.1c1.7,0.7,4,1.9,5.5,1.4c5.3-1.9,4.4,1.5,4,4.3
			c-1.7,10.2,1.5,20.4,0.1,30.5c1.9,0.5,2.9-0.6,2.9-1.5c0.6-6.4,4.2-12.2,3.5-19c-0.3-3.5,0.5-7.4,4.6-9.1c1.8-0.8,3-0.7,3.3,1.9
			c0.9,7.5,2,15.1,3.1,22.6c0.2,1.1-0.3,2.7,1.3,2.9c1.5,0.2,1.8-1.4,2-2.4c0.7-3.6,2.1-7.4,1.5-10.8c-1.1-5.7,0.2-10.9,1.4-16.2
			c0.8-3.4,4.6-5.2,7.2-4.8c2.4,0.4,6.8,1.1,5.4,6.7c-2.1,8.7-4.4,17.3-6.1,26c-1.7,8.5-3.9,17.1-4.8,25.8c-0.2,1.5-0.9,2.9-1.1,4.3
			c-0.5,3.6-2.2,5-6.1,4.5c-4.2-0.6-6.1-2.7-5.4-6.6C372.4,695.3,371.3,691.5,367.7,687z"/>
		<path class="st1" d="M560.5,637.3c3.5-0.1,6.9,0.1,10.4,0.4c7.2,0.5,18.6,9.6,20,16.7c1.3,6.4,2.5,12.9,2.8,19.3
			c0.2,3.4-0.4,7.5-3.8,10c-1.1,0.8-1.5,2-1.6,3c-0.5,6.7-4.3,10.4-10.1,13.1c-2.7,1.2-4.2,4.2-6.9,5.9c-4.4,2.7-12.2,2.5-15.5-2.4
			c-1-1.4-1.9-2.7-1.6-4.5c1.6-8.2-0.4-16.3-0.6-24.5c-0.1-6.2-1.4-12.5-2.8-18.6c-1-4.2-0.2-8.4-1.2-12.6c-0.7-2.7,2.7-4.6,5.5-5.4
			C556.8,637.3,558.7,637.4,560.5,637.3z M577,667.3c-0.1-7.4-1-9.1-6.4-11.3c-2.5-1-6.5-1.5-6.3,2.1c0.5,7.1,0.5,14.2,0.9,21.2
			c0.1,2.6,2,2.5,3.5,1.5C573.9,677.5,578,673.3,577,667.3z"/>
		<path class="st1" d="M444.6,702.7c-9.8-0.4-19.5,0.2-28.7,3.9c-4.1,1.7-5.3,0.5-6.1-3.9c-2-11.6-1.6-23.3-1.8-35
			c0-1.6-0.3-3.4-1-4.9c-2.5-5.9-2.3-12-1.8-18.2c0.3-3.4,6.6-7.2,10.7-5.4c7.1,3.1,14.4,2.2,21.7,2c4.5-0.1,8.5,1.1,12.5,2.5
			c2.1,0.7,2.9,2,2.3,4.2c-0.6,2.2-2.1,2.4-3.9,1.9c-7.2-1.8-13.1,2.6-19.2,4.9c-4.1,1.5-4.9,6.1-3.4,10.6c0.6,1.9,1.8,1.8,3.2,2.3
			c5.3,2.2,10.8,2.1,16.4,1.9c2.5-0.1,5.1,0.3,5.1,3.4c0,3-2.2,4.4-5.1,4.4c-3.8-0.1-7.1,1.4-10.2,3.3c-2.6,1.6-5.4,1.6-8.2,1.6
			c-1.3,0-2.3,0.3-2.8,1.6c-0.6,1.5,0.4,2.2,1.4,3.3c3.9,4,9.4,2.3,13.8,4.4c3.7,1.7,7.8,2.8,12,3.4c2.3,0.4,5.4,1.7,5.1,4.4
			c-0.3,2.8-3.4,3.2-6,3.3C448.6,702.8,446.6,702.7,444.6,702.7z"/>
		<path class="st1" d="M509.7,684.1c-2.7,7.2-0.6,13.8-1.6,20.2c-0.2,1.4,0.6,3.5-1.4,3.7c-1.5,0.2-1.9-2-2.9-3
			c-7.1-7.3-4.1-16.5-5.2-24.9c-1.3-10.8-3.1-21.4-4.6-32.2c-0.8-6.1,4.5-10.8,10.6-9.7c1.6,0.3,3.3,0.4,4.9,0.5
			c12.7,0.1,21.9,6.4,26.3,18.1c1.8,4.7-0.9,16.7-4.8,19.6c-3.2,2.4-3.2,4.9-1.2,7.7c4,5.5,4.8,13.2,11.3,17.2
			c1.6,1,0.8,3.1-0.3,4.4c-1.3,1.5-2.4,0.5-3.3-0.5c-2.3-2.7-6-2.7-8.7-4.6c-3.4-2.4-7-4.3-8.9-8.2
			C517.9,688.3,513,687.8,509.7,684.1z M513.9,670.5c6.8-0.1,10.1-3,10.1-8.4c0-2.5-6.5-7.5-9.8-6.6c-6.5,1.7-2.6,7.7-3.9,11.6
			C509.4,670.1,511.6,670.9,513.9,670.5z"/>
		<path class="st1" d="M473.3,697.2c1.2-5.7,0.3-10.5-2.2-15c-1.3-2.3-1.6-5.1-0.7-7.3c3.6-8.1,1.2-16.2,0.3-24.3
			c-0.3-3.1,0.8-6-0.3-9.2c-0.6-1.9,1.4-3.6,3.7-3.7c5-0.2,9.7,1.8,13.7,3.9c3,1.5,1.9,6.6,0.4,9.6c-2.2,4.8-2.6,9.8-2.1,14.7
			c1.1,9.5-0.8,18.6-2.6,27.8c-0.3,1.7,0.7,2,1.3,2.8c1.9,2.6,1.6,5.2-0.8,7c-2.4,1.8-5,3.3-6.9,5.9c-1.2,1.6-3.1,1.1-3.3-1.4
			C473.8,704.3,473.5,700.5,473.3,697.2z"/>
		<path class="st1" d="M317.4,789.5c-2.6,6.8-0.7,13.2-1.5,19.4c-0.2,1.5,0.9,3.9-1.3,4.3c-2,0.3-2.3-2.3-3.5-3.5
			c-8.3-9.2-3.5-20.6-5.4-30.8c-0.8-4.5-1.2-9.1-2.3-13.5c-1.2-4.7-1.3-9.5-2.1-14.2c-0.6-3.6,3-7.4,8.1-7.5
			c11-0.4,21.6,0.7,29.6,9.8c5.2,5.8,5.8,12.4,4.1,19.4c-0.9,4-1.9,7.9-6,10.4c-1.9,1.1-1.4,3.7-0.1,5.4c4.6,5.6,5.1,13.8,11.9,18
			c2.1,1.3,0.4,3.5-0.7,4.8c-1.3,1.6-2.2-0.4-3.1-1.1c-3.8-2.9-8.8-3.6-12.5-7c-1.7-1.6-3.6-2.9-4.6-5
			C325.9,794.1,321.1,793.2,317.4,789.5z M318.1,769.7c0.2,2.8-1.4,5.9,3.2,6c6.4,0.2,10.1-2.6,10.5-8.2c0.2-2.4-6-7.3-9.7-6.8
			C316.1,761.5,319.6,767,318.1,769.7z"/>
		<path class="st1" d="M257.4,768.7c-0.8-6.1-0.2-12.7,2.4-19.2c1.7-4.2,8.5-7.7,12.6-5.7c2,1,3.9,2.1,6.1,1.9
			c6.1-0.5,7.5,3.7,6.7,8.3c-1,6.4,0.2,12.2,1.8,18.3c1.4,5.2,2.5,10.6,2.4,16.1c-0.1,3.9,1.7,7.4,2.9,10.9c2.2,6,1.7,8.5-2.3,10.7
			c-3.4,1.8-7.1,0-8.4-3.5c-1.5-3.9-2.9-7.6-1.8-12c0.5-2.3-1.5-5.1-3.7-4.9c-2.6,0.3-6.2-2.2-7.9,2.6c-1.8,5-3.5,9.9-3.6,15.3
			c0,2.8-7.5,7-10.1,6c-1.3-0.5-1.6-1.6-1.6-2.8c-0.3-7.3,0-14.6,2-21.6C256.7,782.5,257.4,776.1,257.4,768.7z M274.5,760.9
			c-2,3.2-2.7,6.5-2.6,10.1c0.1,2.1,1.3,2.9,3.3,2.7c1.7-0.2,2.7-0.6,2.7-2.7C277.8,767.3,278,763.7,274.5,760.9z"/>
		<path class="st1" d="M368.1,797.2c-0.1-1.4-0.1-4.2,0.3-7.1c0.8-5.6-2.1-10.8-1.9-16.3c0.1-2.8-1.2-5.6-1-8.4
			c0.4-5.6-1-9.2-7.2-10.1c-3.5-0.5-3.1-3.8-2.9-6.5c0.2-2.7,2-3.1,4.2-3c8.9,0.4,17.9,0.5,26.5,3.1c1.9,0.6,3.5,0.4,5.4,0
			c2.4-0.6,4.9-1,7.4-1.1c1.9,0,3.5,1,3.4,3.4c-0.2,2.3-1.5,2.6-3.4,2.4c-4.5-0.5-8,2.9-12.4,3.2c-0.7,0-2,1.3-2,2
			c-0.2,5.1-4.4,8.9-3.2,15.1c1,5.2,0.5,11.5-0.9,17.2c-0.2,0.8-0.7,1.7-0.4,2.4c2.1,6.7-3.9,9.2-6.8,13.3c-1,1.4-2.4,1-3.6,0.7
			c-1.5-0.4-1.4-1.6-1.4-2.8C368.1,802.6,368.1,800.6,368.1,797.2z"/>
		<path class="st0" d="M106.9,664.1c0.7-2.8-1.5-7.7,4-8.4c3.9-0.5,9.5,4.2,9.4,6.9c-0.3,5.5-3.9,8.3-10.2,8.1
			C106.7,670.5,106.7,670.4,106.9,664.1z"/>
		<path class="st0" d="M61,670.5c-1.8-0.1-4.2,0.4-4.2-2.2c-0.1-3.6,0.3-7.2,0.7-10.9c0.2-1.4,1.3-2,2.9-2.1
			c4.9-0.2,9.3,3.4,9.5,8.2C70.2,668,66.9,670.5,61,670.5z"/>
		<path class="st0" d="M577,667.3c1,6.1-3.1,10.2-8.2,13.6c-1.6,1-3.4,1.1-3.5-1.5c-0.4-7.1-0.4-14.2-0.9-21.2
			c-0.2-3.6,3.7-3.1,6.3-2.1C576,658.2,576.9,659.9,577,667.3z"/>
		<path class="st0" d="M513.9,670.5c-2.3,0.3-4.6-0.5-3.6-3.4c1.3-3.9-2.6-9.9,3.9-11.6c3.3-0.9,9.8,4.1,9.8,6.6
			C524,667.6,520.7,670.4,513.9,670.5z"/>
		<path class="st0" d="M318.1,769.7c1.5-2.7-2-8.2,4-9c3.7-0.5,9.8,4.4,9.7,6.8c-0.4,5.6-4.1,8.4-10.5,8.2
			C316.6,775.7,318.3,772.5,318.1,769.7z"/>
		<path class="st0" d="M274.5,760.9c3.5,2.7,3.3,6.4,3.4,10.1c0.1,2.1-1,2.5-2.7,2.7c-2,0.2-3.3-0.6-3.3-2.7
			C271.8,767.5,272.5,764.1,274.5,760.9z"/>
	</g>
</g>
<g id="HO1ANE_1_">
	<g>
		<path class="st2" d="M440.3,488.7c-0.4,6,0.5,11.8,1.5,17.7c1.9,11.4,0.9,22.9,2.3,34.3c1.3,10.6,2.3,21.1,1.9,31.8
			c-0.3,8.4-1.5,16.6-2.1,25c-0.8,10.2-3.1,12.1-13.4,12.2c-16.6,0.2-33.2-0.8-49.6-3.1c-8.7-1.2-17.5,0.4-26.1,1.5
			c-10.9,1.4-21.8,0.7-32.6,0.3c-9.3-0.4-18.7-0.2-27.9-1.1c-14.1-1.4-28.2-1.1-42.2-1.5c-7.8-0.2-15.8,0.2-23.6,1
			c-13.8,1.4-26.9-1-39.4-6.8c-5.3-2.5-7.9-7-8.4-12.5c-1.2-14.3-2.7-28.5,0.6-43.1c3-13.5,2.6-27.7,2.6-42.4
			c-5.1,5.6-9.9,10.4-14.1,15.9c-5.2,6.7-10.8,13-15.3,20.3c-3.1,4.9-4.2,10.7-7.3,15.5c-0.6,1,0,1.9,0.5,2.7c1.1,1.7,2.2,3.4,3.5,5
			c6.4,7.5,6,15.6,2.9,24.2c-3.9,10.4-11.5,18.1-19.3,25.5c-6.4,6.2-14.9,6.9-23.5,6.2c-12.1-1-23.8-4.8-36-5.1
			c-4.7-0.1-9.4-1.7-13.6-4c-4.8-2.7-7.2-6.8-7.4-12.2c-0.1-2.9-0.2-5.7,0-8.6c0.1-2.4-0.8-2.9-3-2.1c-3.8,1.4-7.7,1.6-11.7,1.2
			c-5.2-0.6-9.6-2.9-11.9-7.6c-7.1-14.5-11.5-29.8-11.3-46.1c0.1-4.9,0.8-9.9,2.9-14.3c2.7-5.6,7.5-9.5,12.9-12.5
			c6.1-3.4,12.5-5.9,19.4-7.1c2.3-0.4,4.7-1.1,6.6-2.6c12.5-9.5,24.4-8.8,36.6,1c2.9,2.4,4.4,1.6,6.6-0.7
			c7.6-7.7,12.5-17.5,19.7-25.4c6.4-7,10.7-15.6,16.8-22.8c7.6-9.1,16.8-16.6,25.6-24.5c2-1.8,2.8-2.7-0.1-4.3
			c-8.1-4.5-15.4-10-21.1-17.5c-1.6-2.1-3-1.9-5-0.6c-8,5-15.6,10.5-24.3,14.4c-2.2,1-4,3-5.9,4.6c-8.6,7.2-19.5,6.3-26.6-2.3
			c-4.5-5.5-8-11.6-10.7-18.1C65,388.8,60,378,56,366.8c-9.5-26.6-19.7-53.1-26.6-80.5c-3.2-12.5-5.8-25.1-8.5-37.7
			c-3.4-15.8-9.7-30.7-13.6-46.4c-4-16.2-8.5-32.4-7-49.4c0.3-3.1,0.8-5.9,4-7.4c3.9-1.8,6.5-1.3,9.9,3c4.2,5.2,9.2,9.8,13.5,14.8
			c7,8.1,15.6,14.1,24.1,20.1c8.2,5.8,15.1,12.8,22.2,19.8c12,11.8,24.3,23.3,37.3,34c5.3,4.3,10.9,8.2,16.9,10.8
			c-5.2-30.3,1.2-55.7,29.5-72.6c-5.5-6.3-13-10.3-20-15.1c-3.8-2.6-8-4.8-12.3-6.6c-8.7-3.5-15.7-9.5-22.6-15.5
			c-5.4-4.7-11.5-4.8-17.9-3.1c-4,1.1-7.9,2.8-11.8,4.2c-11.6,4.2-23.3,0.9-31.2-8.4c-6.2-7.3-11.6-15.2-17.5-22.7
			c-6.7-8.5-5.2-21.5,1.4-28.3c4.3-4.5,9.2-8.2,14.5-11.5c7.4-4.7,14.5-10,21.4-15.6c4.8-3.9,9.6-7.5,16.1-7.6c1.4,0,2.4-0.5,3-2.1
			c1.2-3.7,3.9-6.4,6.9-8.5c10.3-7.4,20.6-14.7,30.5-22.6c3.5-2.8,6.7-6.1,10.6-8.5c9.7-6.1,19.5-3.8,26.1,5.5
			c8.2,11.5,16.6,22.8,21.8,36c4.2,10.8,4.1,21.4-2.9,31.3c-3,4.2-5.9,8.4-8.9,12.5c-0.9,1.2-0.7,1.7,0.4,2.5
			c11.2,8.4,19.4,19.7,28.8,29.9c10.2,11.2,20.2,22.7,32.2,32.1c1.1,0.8,2,1.6,3.5,1.1c7.8-2.4,15.8-3.5,23.9-4.4
			c18.3-2,36.6-4.8,54.9-5.1c23.7-0.4,47.6-1.2,71.2,2.4c5.9,0.9,11.7,2.3,17.5,3.7c1.8,0.5,2.5,0,3.5-1.3
			c11.5-15.7,23.6-30.9,34.6-47c4.4-6.4,7.5-13.6,11.3-20.4c0.8-1.5,0.4-2.8-0.5-4c-3.7-5.2-5.6-11.3-8.7-16.8
			c-4.7-8.4-2.1-17.7,6.2-22.5c8.4-4.9,17.9-6.6,27.2-8.5c9.3-1.9,18.7-3.2,28.4-3.2c10.6,0,20.8,5.8,22.8,19.2
			c1.3,8.3,3.8,16.3,4.1,24.7c0.1,1.8,0.9,1.7,2.3,1.6c3.4-0.2,6.4-1.7,9.8-1.8c11.2-0.6,21.1,2.9,30.1,9.3c3.7,2.7,5.2,7,5.4,11.3
			c0.7,12.8,0.3,25.6-2.7,38.1c-3.1,13-9.6,17.3-21.7,17.9c-10.5,0.5-21.3,1-31.5-2.9c-1.8-0.7-2.7,0.3-3.7,1.3
			c-4.4,4.7-9,9.3-13,14.3c-6.6,8.4-14.1,15.9-21.5,23.5c-2.5,2.5-3.2,4.9-1.5,8.3c4.2,8.2,4.9,17.1,4.3,26.2
			c-0.5,7.9-1,15.7-2.7,23.8c3.5-1.7,5.5-4.4,8.2-6.4c14.2-10.6,28.4-21.1,41.9-32.4c12.4-10.4,25.2-20.3,35.6-32.6
			c5.9-7,11.5-14.4,18.3-20.6c1.2-1.1,2.4-2.4,3.8-3.3c2.7-1.7,5.6-3.2,8.7-1.5c3.2,1.7,4.4,4.8,4.4,8.5c0.1,9.7-0.8,19.3-2.5,28.9
			c-4.5,25.3-8.7,50.6-13.5,75.8c-4,21-9.5,41.6-16.2,61.9c-7.5,22.5-13.8,45.4-20.4,68.2c-1.4,4.9-4,9.1-7.2,13.1
			c-2.5,3.1-5.9,4.2-9.7,4.5c-10.5,1.1-20.5-0.8-30.1-4.9c-6.7-2.9-13.9-4.4-20.7-7.4c-1.1,3-1,6-1.4,8.8c-1,7.3-4.5,12.8-11.5,15.6
			c-2.6,1-2.5,1.9-0.9,3.9c5.3,6.1,11.8,10.8,17.3,16.6c6.8,7.1,12.6,15,19.6,21.8c3.5,3.4,7.7,5.9,11.7,8.8
			c5.9,4.3,12,8.3,17.4,13.2c5.1,4.6,10.3,5.5,16,2.5c8.2-4.2,16.9-3.8,25.6-3.3c4.6,0.3,8.7,2.7,12.4,5.4
			c5.3,3.7,10.3,7.8,14.4,12.8c3.6,4.4,8.3,7.8,11.1,13c3.1,5.7,5.5,11.7,7.6,17.7c2.3,6.6-0.3,12.7-3,18.6
			c-2.6,5.5-5.6,10.9-9.1,15.8c-3.6,5-8.4,6.1-14.5,5.3c-9.9-1.3-18.8-5.8-29-8.5c2.6,3.7,4.3,7.2,5.1,11.2
			c0.9,4.5,0.4,8.6-2.2,12.3c-5.3,7.4-11.2,14.2-19.3,18.8c-5.9,3.3-11.4,7.3-17.5,10.3c-4.6,2.2-11.6,1.4-16.2-3.1
			c-4.3-4-8.5-8.1-13.2-11.5c-8.9-6.5-10.9-15.1-8.3-25.4c0.9-3.5,1.6-7,2.8-10.4c0.9-2.7,0.2-4.6-1.5-6.8
			c-9-11.6-20.1-21.5-28.3-33.8c-7.7-11.6-17.4-21.9-24.1-34.2C440.9,489,440.5,488.9,440.3,488.7c-0.2-0.3-0.3-0.6-0.3-1
			c-0.1,0.1-0.2,0.2-0.2,0.3C439.8,488.3,439.5,488.9,440.3,488.7z M411.8,483.1c0.8-0.4,0.8-0.9,0.7-1.3c-3.3-17-3.7-34.2-2.7-51.4
			c0.3-4.9,1.5-9.5,5.8-12.1c4.9-3.1,9.7-6.6,14.8-9.2c10.1-5.2,19-11.8,26.6-20.2c1.6-1.8,2.4-3.7,2.4-6.1
			c0.1-5.6-1.4-11.2-1.4-16.7c0-6.5-0.1-13.1,0.1-19.6c0.4-13.6,0.2-27.2-0.1-40.9c-0.5-23.2,0.3-46.4-0.7-69.6
			c-0.6-14.3-3-28.2-7-41.9c-0.7-2.5-1.7-5.3-4.6-6c-6.3-1.4-12.6-2.5-18.9-3.7c-0.4-0.1-0.9,0.2-1.4,0.4c-2.1,0.8-4.2,0.8-6.3,0.5
			c-4.5-0.5-9-1.3-13.5-1.2c-31,0.4-61.9-2.1-92.8-1.4c-7.1,0.2-7.1,0-3.7,6.4c0.9,1.7,1.7,3.4,2.6,5.1c4.8,9.2,8.5,18.9,12.4,28.5
			c2.2,5.4,5,10.6,7.5,15.9c1.1,2.2,1.3,4.6-0.8,6.2c-5.5,4.4-9.5,10.1-12.9,16.1c-7.1,12.7-18.3,22.7-24.1,36.2
			c-0.7,1.7-0.9,2.8,0.2,4.2c4.6,6,8.2,12.6,11.6,19.3c3.2,6.3,7.6,11.9,9.6,18.7c0.6,1.9,0.9,3.8-0.5,5.5
			c-3.9,4.6-6.9,10.1-10.9,14.6c-3,3.4-4,6.5-2.4,10.6c1.1,2.8,0.5,6.1,2.8,8.7c6.6,7.5,12,15.8,16.2,24.8c3.2,7,5.7,14.4,8.6,21.6
			c2.4,5.8,5.4,11.5,7.7,17.3c2.9,7.3-1.5,13.7-9.3,13.8c-3.5,0-6.9,0-10.4-0.1c-2.2-0.1-2.8,0.6-1.7,2.7c3,5.8,5.7,11.7,11.3,15.8
			c3.3,2.4,5.4,6,7.3,9.6c1.6,2.9,2.8,5.9,5.2,8.9c2.2-6,6.5-10.2,9.3-15.3c4.7-8.6,12.5-13,21.4-15.5c12.2-3.4,32.5-0.1,38.5,16.5
			C409,480.7,410.5,481.9,411.8,483.1z M259.1,494.9c0.5-0.4,1.1-0.7,1.4-1.2c3.6-5.5,7.4-11,10.8-16.7c5.2-8.8,13.1-12.6,23-12.7
			c4.4-0.1,8.8-0.3,13.2,0.7c-1.3-6.4-3.2-8.2-9.2-8.1c-5.1,0.1-10.3,0-15.4,0.6c-6.4,0.8-10.2-4-8.4-10.2c1-3.7,2.4-7.3,3.1-11
			c3.4-17.8,8.8-34.9,15.2-51.8c0.5-1.4,0.8-2.7,0.1-4.1c-2.1-4.2-3-8.8-4.4-13.2c-1.4-4.6-0.4-8.3,2.2-12.1
			c3.5-5.2,7.4-10,11.5-14.6c1.3-1.5,2.7-3.1,1-5.3c-7.8-10.1-11.5-22.5-19.4-32.6c-2.3-2.9-2.5-6.8-0.5-9.9
			c4-6.2,6.7-12.9,10.2-19.3c5.5-9.6,12.6-17.9,20.3-25.9c3.3-3.4,3.9-7,2-11.4c-3.2-7.5-6.9-14.7-11-21.7c-2.3-4-5-8-5.8-12.7
			c-1.1-6.7-4.6-12.5-6.6-18.8c-0.4-1.1-1.1-1.4-2.1-1.5c-9.3-0.8-18.6-1.2-27.9-0.2c-8.7,0.9-17.2,2.7-25.8,3.9
			c-14.4,2-29,2.4-43.3,5.7c-12.2,2.8-22.4,8.7-30.9,17.7c-4.2,4.5-7.4,9.7-8,16.1c-0.6,7.3-1.3,14.5-1.3,21.8
			c0,16.6,0.2,33.2-0.4,49.8c-0.6,16.5,0.2,33,1.4,49.4c0.8,11.6,4.4,22.7,6.6,34.1c1.6,8,6,12.7,13.8,15.1
			c8.5,2.7,17.5,4.7,24.4,11.2c0.5,0.4,1.3,0.5,2,0.6c6.5,1.1,9.4,3.9,10.4,10.4c1.5,9.2-0.2,18.4-0.7,27.5
			c-0.3,6.1-1,12.2-1.5,18.2c6.5-7.5,15-8.2,23.8-8.4c5.6-0.2,9.9,2.3,13.4,6.3c2.2,2.5,3.7,5.6,5.2,8.6
			C255.7,477.1,256.3,486.2,259.1,494.9z M134,283.8c0-2.5,0-5,0-7.5c0-1.5-0.4-2.5-1.8-3.2c-11.1-5.3-20.6-12.8-30.4-20
			c-7.6-5.6-13.5-13.2-21.3-18.5c-9-6.2-16.2-14.3-24.3-21.6c-9.9-9-19.8-17.9-30.4-26c-0.6-0.5-1.1-1.5-2.1-0.8
			c-0.6,0.5-0.1,1.4,0.1,2c4.9,15.6,8.7,31.5,13,47.3c5.8,21.2,13,42,20,62.7c7.7,22.6,14.9,45.3,23.8,67.5
			c4.4,11.1,6.6,22.9,12.4,33.5c1.2,2.2,1.9,2.5,3.9,0.9c6.6-5.3,13.1-10.8,20.4-15.2c5.1-3.1,10-6.4,14.7-10.1
			c5-3.9,6.6-7.7,5-14.2c-3.5-13.6-2.9-27.7-3.5-41.7C133,307.3,133.4,295.5,134,283.8z M475.3,350.3c0,10.7,0,10.7,7.8,14.9
			c0.5,0.3,1,0.6,1.5,0.9c12.1,6.6,23.6,14.4,37.3,17.5c2.6,0.6,3.6,0.1,4.4-2.4c3.2-9.5,6.3-19,10-28.3c7-17.7,14.1-35.2,18-53.9
			c2.4-11.4,4.6-23,7.7-34.2c2.5-9.3,5.6-18.5,7.4-28c3.2-16.3,7.5-32.3,11.8-48.4c0.3-1,1.5-2.4,0-3.2c-1.1-0.6-1.8,0.9-2.6,1.5
			c-6.8,5.5-12,12.6-18.9,18c-12.2,9.4-23.7,19.6-36,28.9c-9.7,7.3-18,16.4-28.5,22.8c-5.7,3.5-10.4,8.4-17,10.4
			c-1.8,0.6-1.6,2.1-1.6,3.6C476.3,297.6,477.1,324.9,475.3,350.3z M142.2,129c2.5,0.1,3.5,0.9,4.5,1.7c10.2,8.5,21.5,15.8,31,25.1
			c2.3,2.3,5.4,3.9,8.3,5.6c1.5,0.9,3.6,0.9,4.5-0.6c0.9-1.4-1.1-2-2-2.8c-11.4-10.6-22.3-22-34.6-31.6c-0.7-0.5-1.9-1.3-1.1-2.3
			c0.8-1.2,1.9-0.4,2.8,0.2c5.2,3.8,10.2,7.8,14.9,12.3c8.1,7.6,16.2,15.1,24.4,22.7c0.8,0.7,1.8,1.7,2.7,0.6
			c0.7-0.9-0.4-1.7-1.1-2.3c-15.1-14.3-30-28.7-43.5-44.5c-5-5.9-11-10.9-14.6-18c-1.5-3.1-1.5-6,0.1-8.9c1.4-2.6,3-5.2,4.5-7.7
			c4.3-6.9,10.8-11.7,16.2-17.5c2.1-2.3,2.4-4.2,0.9-7c-5.8-10.1-13.8-18.6-20.3-28.2c-1-1.5-2-1.1-3.3-0.5
			c-11.4,5.6-21.9,12.5-31.7,20.6c-1.9,1.5-2.7,3.2-2.6,5.5c0.1,5.1-0.1,10.3,0.1,15.4c0.1,3.7-0.9,6.8-4.2,8.5
			c-3.5,1.8-7,0.9-10-1.5c-2.5-2-5-4.1-7.4-6.2c-1.6-1.4-2.9-1.4-4.7,0.1c-2.6,2.3-5.5,4.2-8.3,6.2C59,80.1,49.7,85.8,42,93.6
			c-1.3,1.3-2.3,2.3-0.6,4.1c5.6,6.2,11.2,12.4,16.6,18.7c1.5,1.7,2.9,2.1,5,1.4c8.4-3.1,17.4-4.1,26.1-6.1c7-1.6,14.1-0.8,19.5,5
			c5.9,6.4,13.2,11.3,19.9,16.9c12.6,10.5,25.7,20.6,38.3,31.2c0.8,0.7,1.7,1.3,2.6,2c1.5,1.1,2.7,0,3.5-0.8
			c1.2-1.3-0.4-1.6-1.2-2.2c-3.2-2.5-6.6-4.7-9.3-7.8c-3.7-4.1-8.2-7.1-12.5-10.3c-2.2-1.6-4.1-3.6-6.1-5.5
			c-0.7-0.7-1.5-1.6-0.7-2.4c0.8-0.9,1.7-0.1,2.5,0.6c6.8,5.9,14.4,10.9,20.8,17.3c2.9,2.9,6,5.3,9.5,7.3c1.7,1,3.6,1.8,4.8,0.1
			c1.3-1.8-1.2-2.8-2.1-3.4c-8.5-6.6-16.4-14.1-25.3-20.2C149.3,136.6,145.6,133.4,142.2,129z M133.3,514.1
			c-0.5-0.6-0.3-1.1-0.1-1.5c4.6-9,10.9-17,18.2-23.7c9.3-8.5,17.3-18.2,25.8-27.4c1.6-1.7,1.3-3.9,0.1-5.2
			c-1.7-1.7-2.8,0.7-3.6,1.6c-3,3.3-5.4,7.3-8.6,10.4c-13.2,13-25.6,26.9-38.6,40.2c-0.8,0.8-1.6,2.4-2.8,1.2
			c-1.1-1.1,0.3-2.1,1.1-3c9.8-10.5,19.3-21.1,29.4-31.3c7-7,13.7-14.3,20-22c1.1-1.4,2.3-3.2,0.7-4.4c-2-1.6-2.4,1.2-3.2,2.1
			c-10.9,12.2-22.4,23.8-34.5,34.8c-8.9,8.1-18,15.9-25.6,25.4c-4.2,5.2-7.6,11-12.6,15.5c-4.1,3.7-8.2,3.8-12.5,0.3
			c-3.4-2.7-5.9-6-7.2-10.1c-1.1-3.6-2.9-3.6-5.8-2.2c-6,2.9-12.4,4.9-18.7,7.3c-5.4,2.1-11.1,2.7-16.6,4.3c-2,0.6-2.9,1.5-2.2,3.6
			c3.8,10.7,5.8,21.9,8.2,33c0.5,2.2,1.4,2.6,3.5,2c5.5-1.5,11.1-2.8,16.7-3.9c7.8-1.5,13.5,4.8,11.8,12.5c-1,4.3-2,8.6-2.4,13
			c-0.6,5.5-0.3,5.7,5.1,6.9c11.2,2.5,22.7,3.4,33.8,6.1c3.1,0.8,5.2-0.2,7.2-2.6c5.6-6.5,9.9-14,15.2-20.8c1.2-1.5,0.6-2.5-1-3.4
			c-3.6-2.2-6.4-5.4-9.2-8.5c-5.7-6.2-6.5-11.7-3.2-18.3c8.4-17,20.1-31.8,31.8-46.6c8.3-10.5,17.8-19.9,26.7-29.9
			c1.7-1.9,2.1-4.1,0.2-5.6c-1.9-1.5-2.8,1-3.7,2.1c-5.3,5.8-9.9,12.2-15.6,17.6c-9.2,8.6-17.3,18-24.7,28.1
			C135.3,512.7,135,514,133.3,514.1z M564.4,536.7c2.1-0.1,4,0.4,5.7,1.8c4.6,3.6,9.2,7.2,13.8,10.9c1.2,0.9,2.1,1.6,3.4,0.5
			c5-4.1,10.3-7.8,14.7-12.5c1.5-1.6,1.4-2.7-0.2-4.2c-8.3-7.8-15.1-16.9-21.4-26.3c-2.1-3.1-4.5-4-7.9-2.6
			c-3.8,1.5-7.5,3.2-11.5,3.9c-5.7,0.9-11.3,2.5-16.1,5.6c-5,3.3-9.5,2.2-14-0.6c-1.7-1.1-3.3-2.4-4.8-3.7
			c-14.8-12.1-26.4-27.4-41.1-39.7c-6.1-5.1-10.8-11.7-16.5-17.2c-3.8-3.7-6.7-8.1-10.8-11.4c-1.5-1.2-2.3-4.6-4.4-2.9
			c-1.3,1.1,1.3,3.5,2.8,4.9c6.2,5.6,12.1,11.5,17.8,17.6c6.6,7.1,13.6,14,20.3,21c0.6,0.7,1.7,1.6,1,2.4c-0.9,1.1-1.9,0-2.7-0.7
			c-1.1-0.9-2.2-1.8-3.2-2.8c-6.9-6.6-13.3-13.7-19.8-20.7c-4.3-4.7-8.7-9.2-13.1-13.7c-0.6-0.6-1.2-1.4-2.1-0.8
			c-0.9,0.7-0.7,1.7-0.2,2.6c0.4,0.7,1,1.3,1.6,1.9c2.9,3,5.8,6,8.7,9c8.2,8.4,15.3,17.7,22.9,26.5c0.8,0.9,2.5,1.8,1.1,3.2
			c-1.3,1.3-2.3-0.4-3.3-1.1c-0.5-0.3-0.8-0.9-1.1-1.4c-9.5-11.2-18.8-22.5-29.1-33c-0.7-0.7-1.3-2-2.5-1.7c-1.5,0.4-1.5,2-2,3.2
			c-0.5,1.2,0.6,1.9,1.3,2.7c9.9,10.8,18.9,22.5,29.5,32.7c0.7,0.6,1.7,1.3,0.9,2.4c-0.7,1-1.8,0.4-2.6-0.2c-3-2-5.6-4.4-8-7.1
			c-7.2-8.3-14.4-16.6-21.7-24.8c-0.6-0.7-1.2-2.1-2.5-0.9c-0.9,0.9-1.5,1.9-0.7,3.2c0.3,0.5,0.7,1,1,1.5
			c11.3,16.1,26.7,28.9,36.8,46c0.1,0.1,0.2,0.2,0.2,0.3c10.4,13.1,20.9,26.1,31.3,39.2c2.4,3,3.3,6.7,1.8,10.5
			c-2.9,7.2-5.8,14.4-9,21.4c-1.3,2.8-0.5,4.1,1.8,5.4c4.5,2.7,9.1,5.3,13.5,8.1c2.1,1.4,3.4,1,4.7-0.8c3.3-4.5,7.5-8,11.8-11.5
			c3.3-2.7,6.7-5.3,10.1-8c2-1.6,2.3-3,0.4-5c-3-3.4-5.6-7.1-7.7-11.2c-3.1-6.1-3.5-12.2,4.5-15.6c3.2-1.3,6.4-2.8,9.4-4.4
			C559.5,537.2,561.9,536.9,564.4,536.7z M477.8,127.4c0.2,1.6-0.8,2.4-1.6,3.2c-9.6,10.9-17.8,22.9-26.8,34.3
			c-2.5,3.2,1.5,3.9,2.7,5.5c1.5,2,2.3-0.3,3-1.4c6.6-10,13.8-19.5,21.6-28.5c1.9-2.2,3.7-4.6,6.7-5.6c0.9,1.8-0.6,2.6-1.3,3.5
			c-8.4,10.8-16.8,21.6-25.2,32.4c-0.5,0.7-1.8,1.4-0.7,2.4c1.2,1,1.9-0.2,2.6-1c1.4-1.7,2.7-3.6,4.3-5.3
			c9.9-10.3,19.8-20.7,29.8-30.9c4.5-4.5,8.4-10.2,15.3-11.2c7.4-1.2,15-1.4,22.5-0.6c5.7,0.5,11.4,0.7,17.2,1
			c2.4,0.2,3.4-0.9,3.4-3.3c0-7.4,0.2-14.8,0.5-22.2c0.1-2.6-0.8-3.7-3.5-3.7c-11.1-0.1-22.2,0.3-33.3,1.5
			c-7.2,0.8-11.7-2.4-13.1-9.5c-0.2-0.9-0.2-1.9-0.3-2.8c-1.4-11.7-2.8-23.5-4.2-35.2c-0.2-1.8-1-2.9-3.1-2.4
			c-10.4,3-21.2,3.3-31.8,5c-2.8,0.5-3.3,1.5-2.4,4.1c2.7,7.1,5.7,14.2,9.9,20.6c3.4,5.1,2.8,10.1-1.2,14.7
			c-2.2,2.5-4.3,5.1-6.3,7.8c-5.8,7.9-11.9,15.5-17.6,23.4c-6,8.4-12.8,16.3-19.2,24.5c-1.5,1.9-1.6,2.8,0.5,4.2
			c2.1,1.4,3.4,1.6,5.3-0.7c6.5-8.3,11.3-17.7,19-25.1c3.6-3.5,6.5-7.8,10.8-11.1c0.9,2.7-0.8,3.9-1.8,5.2
			c-3.5,4.2-7.2,8.3-10.8,12.4c-5.6,6.4-9.4,14.1-15.2,20.3c-1.1,1.2-2.4,2.4-0.1,3.6c1.7,0.8,3.3,4,5.6,0.6
			c2.1-3.2,4.4-6.3,6.6-9.3c7.1-9.6,13.8-19.5,22-28.2c0.8-0.9,1.5-2.2,3.4-1.8c-0.3,1.7-1.2,3.1-2.2,4.4
			c-9,11.8-17.9,23.6-26.9,35.3c-1.7,2.2-2.1,3.6,0.5,5.4c2.3,1.6,4.2,3,6-0.4c0.3-0.6,0.8-1.2,1.2-1.7c6.9-9.3,13.8-18.6,20.9-27.7
			C472,130.4,474.2,127.8,477.8,127.4z M377.3,521.7c2.5,4.1,3.5,8.6,4.6,12.9c3.8,14.8,5,29.9,3.8,45.1c-0.2,2.2,0.3,3.5,2.9,3.1
			c2-0.4,4.9,1,4.4-3.1c-0.6-5.8-0.9-11.7-1.4-17.5c-1.3-14-3.3-28-2.4-42.2c0.1-1.3-0.5-3.1,1.1-3.4c1.8-0.4,2.1,1.7,2.4,2.9
			c4.6,18.3,7.8,36.9,6.7,55.9c-0.1,2.2-2,5.1-0.2,6.4c1.6,1.1,4.6,0.3,6.9,0.5c2.6,0.3,3.3-0.8,3.1-3.3c-0.6-6.9-0.9-13.8-1.3-20.7
			c-0.1-2.4-0.6-4.8,0.2-7.1c0.3-0.9,0.2-2.5,1.5-2.6c1-0.1,1.4,1.1,1.9,1.9c1,1.6,1.6,3.4,1.9,5.3c1.3,7.7,1.1,15.5,0.9,23.3
			c0,1.1-0.6,2.7,0.8,3.2c2.8,1,5.8,2.6,8.5,2.1c1.6-0.3-1-3.6-0.6-5.7c0-0.1,0-0.2,0-0.4c-1.6-9.8-1.5-19.8-3.8-29.5
			c-2.6-11.2-5.6-22.2-8.4-33.3c-3.5-14.4-11.3-26.2-22.7-35.5c-3.6-3-7.7-5.6-12.8-4c-7.5,2.4-13.8,6.6-17.2,14.1
			c-5,11.1-6.7,23.2-8,35.1c-2.1,19.4-0.3,38.9-0.2,58.4c0,2.2,1.1,2.9,3.3,2.5c2.1-0.4,4.3-0.7,6.4-0.7c2.2,0,2.8-0.8,2.8-3
			c-0.1-12,0.4-23.9-0.3-35.9c-0.1-1.7,0.1-3.4,1-5.2c1.7,1.6,2.1,3.6,2.8,5.3c4.5,10.8,3.1,22.1,2.4,33.3c-0.3,4.8-0.5,4.8,4.1,4.1
			c1.2-0.2,2.4-0.4,3.6-0.4c1.7,0,2.3-0.8,2.3-2.4c-0.2-4.5-0.2-9.1-0.5-13.6c-0.8-13.6-2.1-27.2-1.9-40.8
			C376.3,525.2,375.9,523.4,377.3,521.7z M305.5,521.6c1.5,2.4,1.7,4.6,2,6.7c3.1,18.4,3.3,37.1,4.6,55.7c0.2,2.3,0.5,3.5,3.1,3.5
			c3.1-0.1,2.4-2.2,2.2-3.7c-1.2-6.8-0.6-13.6-0.7-20.4c-0.1-5.6,2.3-10.7,3.6-16c0.4-1.5,1.2-2.1,2.3-0.4
			c6.8,10.6,7.6,22.1,4.2,33.7c-2.1,7.4-2.4,7.5,5.5,6.5c2.1-0.3,2.7-1.1,2.4-3.3c-2-13.5-3.9-26.9-5.7-40.4
			c-1.8-13.6-3.9-27.2-8.7-40.2c-3.2-8.6-7.5-16.3-16.6-20c-1.2-0.5-2.5-1.2-3.8-0.6c-3.7,1.7-7.8,2.7-10.9,5.4
			c-9.7,8.6-14.6,19.9-16.9,32.4c-1.8,9.6-3.1,19.3-4.8,29c-2,11.2-2.7,22.5-2.6,33.9c0,1.3-0.1,3,1.5,3.2c2.7,0.3,5.5,0.3,8.2,0.3
			c0.8,0,0.9-0.6,0.9-1.5c-1-11-0.6-22-0.3-32.9c0.1-5,1.6-9.7,4.3-14.4c3.4,6.1,3.4,6.1,3.4,12.5c0.1,11.4,0.3,22.7,0.5,34.1
			c0,1.4,0,2.9,1.9,2.9c2.2,0,4.5,0.8,6.6-0.6c0.3-0.2,0.2-1.1,0.1-1.7c-0.7-5.6-1-11.2-1.2-16.8c-0.8-15.4-0.6-30.8,2.6-46
			c1-4.6,2.2-9.2,5.2-13.3c1.3,1.3,1,2.7,1,3.9c-0.1,5-0.2,10-0.5,15c-0.9,18.6-1.6,37.3-1.1,55.9c0,1.2-0.3,2.4,0.8,3.3
			c0.6,0.5,8.9,0.6,9.2,0c0.9-2.1-1.4-3-1.8-4.7c-0.4-1.7-1.2-3.4-1.5-5.1c-0.7-4.6-1.4-9.2-1.8-13.8c-1.1-11.6-1.6-23.1,0.6-34.7
			C303.8,526.5,304,524.1,305.5,521.6z M217.4,532.6c0.4,0.1,0.8,0.2,1.2,0.3c0,1.9,0,3.7,0,5.6c-0.3,12.7-0.4,25.3-0.3,38
			c0,3.3,1.9,3.2,4.1,3.4c2.9,0.2,2.2-1.8,2.1-3.4c-0.6-11.8-1.2-23.6-0.9-35.5c0.3-10.6,0.7-21.3,4.2-31.5c0.6-1.7,0.9-4.8,2.6-4.6
			c1.9,0.3,1,3.2,1,5c-0.6,21.1-1.2,42.3-1.8,63.4c-0.2,7.6-0.2,7.5,7.4,8.4c2,0.2,2.8-0.2,2.1-2.2c-2.5-7.2-1.9-14.6-1.8-22
			c0-2.9,0.1-6.3,3.3-7.7c1.7-0.8,3.8,3.5,3.9,8c0.1,5.6,0.2,11.2-0.5,16.8c-0.3,2.1-0.3,4.3-0.2,6.4c0.1,2.3,2.1,2.3,3.7,2.5
			c1.5,0.1,1.7-0.9,1.4-2.2c-1.6-5.8-1.1-11.9-1.4-17.8c-1.1-19.8-1.5-39.6-4.3-59.3c-1.6-10.9-2.7-21.8-8-31.7
			c-2.6-4.9-8.7-7.3-14-5.4c-4,1.5-6.7,4.6-9.7,7.5c-3.2,3.1-3.6,6.6-3.6,10.7c0,7.8-0.5,15.5-0.7,23.3c-0.7,21-0.9,42-2.9,63
			c-0.7,7.2-0.4,7.2,7.6,7.3c2,0,2.8-0.7,2.3-2.8c-2.2-9.5-2.2-19.2-1.3-28.9C213.2,542.1,214.4,537,217.4,532.6z"/>
		<path class="st3" d="M411.8,483.1c-1.3-1.1-2.9-2.3-3.5-4.1c-6-16.6-26.4-19.9-38.5-16.5c-9,2.5-16.7,6.9-21.4,15.5
			c-2.8,5.1-7.1,9.3-9.3,15.3c-2.4-3-3.6-6.1-5.2-8.9c-2-3.6-4.1-7.2-7.3-9.6c-5.6-4.1-8.3-10-11.3-15.8c-1.1-2.2-0.5-2.8,1.7-2.7
			c3.5,0.1,6.9,0.2,10.4,0.1c7.8-0.1,12.3-6.5,9.3-13.8c-2.4-5.9-5.3-11.5-7.7-17.3c-3-7.1-5.5-14.5-8.6-21.6
			c-4.1-9.1-9.6-17.3-16.2-24.8c-2.3-2.6-1.7-5.9-2.8-8.7c-1.6-4.1-0.6-7.2,2.4-10.6c4-4.5,7-9.9,10.9-14.6c1.4-1.6,1.1-3.5,0.5-5.5
			c-2-6.9-6.5-12.5-9.6-18.7c-3.4-6.7-7-13.3-11.6-19.3c-1.1-1.4-0.9-2.6-0.2-4.2c5.8-13.5,17-23.5,24.1-36.2
			c3.4-6,7.3-11.7,12.9-16.1c2.1-1.6,1.8-4,0.8-6.2c-2.5-5.3-5.3-10.5-7.5-15.9c-3.9-9.6-7.7-19.3-12.4-28.5
			c-0.9-1.7-1.7-3.4-2.6-5.1c-3.4-6.4-3.4-6.2,3.7-6.4c31-0.7,61.9,1.8,92.8,1.4c4.5-0.1,9,0.7,13.5,1.2c2.2,0.3,4.3,0.3,6.3-0.5
			c0.4-0.2,0.9-0.5,1.4-0.4c6.3,1.2,12.6,2.3,18.9,3.7c2.9,0.7,3.9,3.5,4.6,6c4,13.7,6.4,27.6,7,41.9c1,23.2,0.2,46.4,0.7,69.6
			c0.3,13.6,0.5,27.2,0.1,40.9c-0.2,6.5-0.1,13.1-0.1,19.6c0,5.5,1.5,11,1.4,16.7c-0.1,2.4-0.8,4.3-2.4,6.1
			c-7.6,8.5-16.4,15-26.6,20.2c-5.1,2.6-9.9,6.1-14.8,9.2c-4.3,2.6-5.5,7.2-5.8,12.1c-0.9,17.2-0.5,34.4,2.7,51.4
			C412.6,482.2,412.6,482.7,411.8,483.1z M373.6,377.9c13.5-0.9,26.9-1.7,40.3-3.5c6-0.8,11.8-10.3,11-14.6
			c-2.4-12.5-1.6-25.1-2.6-37.7c-0.6-8.7-1.3-17.3-2.4-25.9c-1.6-12.7-4.7-25-8.4-37.1c-2-6.4-4.2-12.6-5.5-19.2c-0.8-4-2-8-5-11.3
			c-4-4.5-9.2-3.7-11.9,1.7c-3.8,7.8-6.9,15.9-10.1,23.9c-4.1,10.1-9.1,19.8-12.7,30.1c-2.7,7.8-6.9,15-10.1,22.6
			c-4.2,10.2-8.8,20.3-13.7,30.2c-4,8.2-7.8,16.5-10.5,25.3c-1.2,3.9-0.7,7.2,2.4,10.1c3.9,3.7,8.1,5.7,13.7,5.4
			C356.6,377.6,365.1,377.9,373.6,377.9z"/>
		<path class="st3" d="M259.1,494.9c-2.8-8.6-3.4-17.7-7.5-25.8c-1.5-3-2.9-6.1-5.2-8.6c-3.6-4-7.8-6.5-13.4-6.3
			c-8.8,0.3-17.3,0.9-23.8,8.4c0.5-6.1,1.2-12.1,1.5-18.2c0.4-9.2,2.2-18.3,0.7-27.5c-1.1-6.5-4-9.3-10.4-10.4
			c-0.7-0.1-1.6-0.2-2-0.6c-6.9-6.5-15.8-8.5-24.4-11.2c-7.8-2.4-12.2-7.2-13.8-15.1c-2.3-11.3-5.8-22.5-6.6-34.1
			c-1.2-16.4-2-32.9-1.4-49.4c0.6-16.6,0.3-33.2,0.4-49.8c0-7.3,0.6-14.6,1.3-21.8c0.5-6.3,3.7-11.6,8-16.1
			c8.5-9,18.7-14.8,30.9-17.7c14.3-3.3,28.8-3.7,43.3-5.7c8.6-1.2,17.2-3,25.8-3.9c9.3-0.9,18.6-0.6,27.9,0.2c1,0.1,1.7,0.4,2.1,1.5
			c2.1,6.3,5.5,12.1,6.6,18.8c0.8,4.6,3.4,8.6,5.8,12.7c4.1,7,7.8,14.2,11,21.7c1.9,4.4,1.3,8-2,11.4c-7.6,7.9-14.8,16.2-20.3,25.9
			c-3.6,6.3-6.3,13.1-10.2,19.3c-2,3-1.8,6.9,0.5,9.9c7.9,10,11.6,22.5,19.4,32.6c1.7,2.2,0.4,3.8-1,5.3c-4.1,4.7-8,9.5-11.5,14.6
			c-2.6,3.8-3.6,7.6-2.2,12.1c1.4,4.4,2.2,9,4.4,13.2c0.7,1.4,0.4,2.7-0.1,4.1c-6.4,16.9-11.8,34-15.2,51.8c-0.7,3.7-2.1,7.3-3.1,11
			c-1.8,6.2,2,11,8.4,10.2c5.1-0.6,10.3-0.5,15.4-0.6c6-0.1,7.9,1.6,9.2,8.1c-4.4-1-8.8-0.8-13.2-0.7c-9.9,0.1-17.8,3.9-23,12.7
			c-3.4,5.7-7.1,11.2-10.8,16.7C260.2,494.2,259.6,494.5,259.1,494.9z M236.2,374.3c2.5,0.1,5,0.4,7.5,0.3c6.7-0.2,13.6,1.2,20-2
			c6.1-3,8.5-7.3,6.4-12.8c-1.3-3.4-2.3-6.8-3.3-10.2c-2.8-9.8-8.8-18.2-12.3-27.7c-2.7-7.3-7.8-13.4-10.8-20.7
			c-5.2-12.7-10-25.6-14.2-38.6c-3.6-11.3-8.9-21.9-12.8-33.1c-1.7-4.7-5.5-7.3-10.4-7.5c-4.7-0.2-6.4,3.6-7.9,7.2
			c-7.5,17.4-9.8,36-11.2,54.5c-1.3,17.5-1.7,35.1-1.1,52.7c0.2,6.3,0.8,12.6,1.8,18.9c1.8,10.9,7.9,16.1,18.5,18.2
			C216.5,375.3,226.3,373.9,236.2,374.3z"/>
		<path class="st3" d="M134,283.8c-0.6,11.7-1,23.4-0.5,35.1c0.5,13.9,0,28.1,3.5,41.7c1.7,6.6,0.1,10.4-5,14.2
			c-4.7,3.6-9.6,7-14.7,10.1c-7.3,4.4-13.8,9.9-20.4,15.2c-2,1.6-2.7,1.4-3.9-0.9c-5.8-10.6-8-22.5-12.4-33.5
			c-8.9-22.2-16.1-44.9-23.8-67.5c-7.1-20.8-14.3-41.5-20-62.7c-4.3-15.8-8.1-31.7-13-47.3c-0.2-0.7-0.7-1.5-0.1-2
			c0.9-0.8,1.5,0.3,2.1,0.8c10.6,8.1,20.5,17.1,30.4,26c8,7.3,15.3,15.4,24.3,21.6c7.8,5.4,13.7,12.9,21.3,18.5
			c9.8,7.2,19.3,14.8,30.4,20c1.4,0.7,1.8,1.7,1.8,3.2C134,278.8,134,281.3,134,283.8z M120.8,327.6c-0.2-1.9,0.8-3.8-0.5-5.6
			c-2.7-3.8-5.1-7.9-8.3-11.2c-8.4-8.4-15.5-17.8-23.2-26.8c-4.3-5-8.6-9.9-13-14.7c-1.5-1.6-3.3-2.3-4.5,0.3
			c-1.4,3.2-2.1,6.6-0.8,10.1c1.1,2.9,2.4,5.8,4.2,8.3c9.4,13.5,18.9,27,28.4,40.4c0.9,1.3,1.3,2.3,0.9,3.9c-0.8,3.4-0.9,6.8,0,10.3
			c0.9,3.3,2.8,5.5,6.4,5.7c3.6,0.3,6.4-1.4,7.2-4.6C118.8,338.3,120.7,333.1,120.8,327.6z"/>
		<path class="st3" d="M475.3,350.3c1.8-25.4,1.1-52.6,1.3-79.9c0-1.4-0.2-3,1.6-3.6c6.5-2,11.3-6.9,17-10.4
			c10.4-6.4,18.8-15.5,28.5-22.8c12.3-9.3,23.8-19.4,36-28.9c6.9-5.4,12.2-12.4,18.9-18c0.8-0.7,1.4-2.1,2.6-1.5
			c1.5,0.8,0.2,2.1,0,3.2c-4.3,16-8.6,32.1-11.8,48.4c-1.8,9.5-4.9,18.7-7.4,28c-3,11.3-5.2,22.8-7.7,34.2
			c-3.9,18.7-11.1,36.2-18,53.9c-3.7,9.3-6.8,18.8-10,28.3c-0.8,2.5-1.8,2.9-4.4,2.4c-13.8-3.1-25.3-10.9-37.3-17.5
			c-0.5-0.3-1-0.6-1.5-0.9C475.2,361,475.2,361,475.3,350.3z M504.7,356.9c5.7-0.1,9.7-3.2,9.9-7.8c0.1-2.4,0-4.9-0.7-7.1
			c-2.8-8.9-3.8-17.9-4.1-27.2c-0.1-2.4,0.4-4.3,2-6.2c7.4-8.5,14.7-17.3,19.7-27.6c2.5-5.3,5.7-10.3,5.8-16.4
			c0.2-6.2-5.8-9.8-11.1-6.8c-2.2,1.2-4.3,2.7-5.9,4.6c-11.3,13.9-22.5,27.8-33.7,41.7c-1.3,1.6-1.5,3.6-2,5.7
			c-1.4,6.2,0.6,12.1,1.4,18c1.4,9.8,4.8,18.7,11.8,25.9C499.7,355.9,501.8,357.1,504.7,356.9z"/>
		<path class="st3" d="M142.2,129c3.4,4.5,7,7.6,11,10.4c8.9,6.2,16.7,13.6,25.3,20.2c0.9,0.7,3.4,1.7,2.1,3.4
			c-1.2,1.7-3.1,0.9-4.8-0.1c-3.5-2-6.6-4.4-9.5-7.3c-6.4-6.4-14-11.4-20.8-17.3c-0.7-0.6-1.6-1.4-2.5-0.6c-0.8,0.9,0,1.8,0.7,2.4
			c2,1.9,3.9,3.9,6.1,5.5c4.4,3.2,8.9,6.2,12.5,10.3c2.7,3,6.1,5.3,9.3,7.8c0.8,0.6,2.3,1,1.2,2.2c-0.8,0.8-2,1.9-3.5,0.8
			c-0.9-0.6-1.7-1.3-2.6-2c-12.6-10.6-25.7-20.7-38.3-31.2c-6.7-5.6-13.9-10.5-19.9-16.9c-5.5-5.9-12.5-6.6-19.5-5
			c-8.7,1.9-17.6,3-26.1,6.1c-2.1,0.7-3.5,0.3-5-1.4c-5.5-6.3-11-12.6-16.6-18.7c-1.7-1.8-0.6-2.8,0.6-4.1
			c7.7-7.8,16.9-13.5,25.7-19.9c2.8-2,5.7-3.9,8.3-6.2c1.7-1.5,3-1.5,4.7-0.1c2.4,2.1,4.9,4.2,7.4,6.2c3,2.4,6.5,3.3,10,1.5
			c3.3-1.7,4.3-4.8,4.2-8.5c-0.2-5.1,0-10.3-0.1-15.4c0-2.3,0.8-4,2.6-5.5c9.8-8.1,20.3-15.1,31.7-20.6c1.4-0.7,2.3-1,3.3,0.5
			c6.4,9.6,14.5,18.1,20.3,28.2c1.6,2.8,1.3,4.7-0.9,7c-5.5,5.8-12,10.6-16.2,17.5c-1.6,2.5-3.1,5.1-4.5,7.7
			c-1.5,2.9-1.6,5.9-0.1,8.9c3.5,7.1,9.5,12.2,14.6,18c13.5,15.8,28.4,30.2,43.5,44.5c0.7,0.6,1.8,1.4,1.1,2.3
			c-0.9,1.1-2,0.1-2.7-0.6c-8.1-7.5-16.3-15-24.4-22.7c-4.7-4.4-9.7-8.5-14.9-12.3c-0.9-0.6-2-1.4-2.8-0.2c-0.8,1,0.4,1.8,1.1,2.3
			c12.4,9.6,23.2,21,34.6,31.6c0.9,0.8,2.9,1.4,2,2.8c-0.9,1.5-3,1.5-4.5,0.6c-2.9-1.7-5.9-3.3-8.3-5.6c-9.6-9.4-20.8-16.6-31-25.1
			C145.7,129.9,144.7,129,142.2,129z"/>
		<path class="st3" d="M133.3,514.1c1.6-0.1,2-1.4,2.7-2.3c7.4-10.1,15.5-19.5,24.7-28.1c5.7-5.3,10.4-11.8,15.6-17.6
			c0.9-1,1.9-3.5,3.7-2.1c2,1.5,1.6,3.7-0.2,5.6c-8.9,10-18.4,19.4-26.7,29.9c-11.6,14.8-23.3,29.6-31.8,46.6
			c-3.3,6.6-2.5,12,3.2,18.3c2.8,3.1,5.6,6.2,9.2,8.5c1.5,0.9,2.1,1.9,1,3.4c-5.3,6.8-9.6,14.3-15.2,20.8c-2,2.4-4.1,3.3-7.2,2.6
			c-11.1-2.7-22.6-3.6-33.8-6.1c-5.4-1.2-5.7-1.4-5.1-6.9c0.5-4.4,1.5-8.7,2.4-13c1.7-7.7-4-14-11.8-12.5
			c-5.6,1.1-11.2,2.4-16.7,3.9c-2.1,0.6-3,0.2-3.5-2c-2.4-11.1-4.4-22.2-8.2-33c-0.7-2.1,0.2-3,2.2-3.6c5.5-1.6,11.2-2.2,16.6-4.3
			c6.2-2.4,12.7-4.3,18.7-7.3c2.9-1.4,4.7-1.4,5.8,2.2c1.3,4,3.8,7.4,7.2,10.1c4.4,3.5,8.4,3.4,12.5-0.3c5-4.5,8.5-10.3,12.6-15.5
			c7.6-9.5,16.7-17.3,25.6-25.4c12.1-11,23.7-22.5,34.5-34.8c0.8-0.9,1.2-3.7,3.2-2.1c1.6,1.3,0.4,3-0.7,4.4c-6.3,7.7-13,14.9-20,22
			c-10.1,10.1-19.6,20.8-29.4,31.3c-0.8,0.8-2.1,1.9-1.1,3c1.2,1.2,2-0.3,2.8-1.2c13-13.3,25.4-27.1,38.6-40.2
			c3.2-3.1,5.6-7.1,8.6-10.4c0.8-0.8,1.9-3.3,3.6-1.6c1.3,1.3,1.5,3.5-0.1,5.2c-8.5,9.2-16.4,18.9-25.8,27.4
			c-7.3,6.7-13.6,14.7-18.2,23.7C133,513,132.8,513.5,133.3,514.1z"/>
		<path class="st3" d="M564.4,536.7c-2.5,0.2-4.9,0.5-7.2,1.8c-3.1,1.6-6.2,3.1-9.4,4.4c-8.1,3.4-7.7,9.5-4.5,15.6
			c2.1,4,4.7,7.8,7.7,11.2c1.8,2.1,1.6,3.5-0.4,5c-3.4,2.6-6.8,5.2-10.1,8c-4.2,3.5-8.5,7-11.8,11.5c-1.4,1.9-2.6,2.2-4.7,0.8
			c-4.4-2.9-9-5.5-13.5-8.1c-2.3-1.3-3.1-2.6-1.8-5.4c3.3-7,6.1-14.2,9-21.4c1.5-3.8,0.6-7.4-1.8-10.5
			c-10.3-13.1-20.8-26.1-31.3-39.2c-0.1-0.1-0.2-0.2-0.2-0.3c-10.1-17.1-25.5-29.9-36.8-46c-0.3-0.5-0.7-0.9-1-1.5
			c-0.8-1.3-0.2-2.3,0.7-3.2c1.3-1.2,1.9,0.1,2.5,0.9c7.2,8.3,14.5,16.5,21.7,24.8c2.4,2.7,5,5.2,8,7.1c0.8,0.5,1.8,1.1,2.6,0.2
			c0.8-1-0.3-1.7-0.9-2.4c-10.6-10.2-19.6-21.9-29.5-32.7c-0.7-0.8-1.8-1.5-1.3-2.7c0.5-1.2,0.5-2.8,2-3.2c1.3-0.4,1.8,0.9,2.5,1.7
			c10.3,10.5,19.7,21.8,29.1,33c0.4,0.5,0.7,1,1.1,1.4c1,0.7,2,2.4,3.3,1.1c1.4-1.3-0.3-2.2-1.1-3.2c-7.7-8.8-14.8-18.1-22.9-26.5
			c-2.9-3-5.8-6-8.7-9c-0.6-0.6-1.2-1.2-1.6-1.9c-0.5-0.9-0.8-1.9,0.2-2.6c0.9-0.6,1.5,0.2,2.1,0.8c4.4,4.6,8.8,9.1,13.1,13.7
			c6.5,7,12.9,14.1,19.8,20.7c1,1,2.1,1.9,3.2,2.8c0.8,0.7,1.8,1.8,2.7,0.7c0.7-0.8-0.4-1.7-1-2.4c-6.8-7-13.7-13.9-20.3-21
			c-5.7-6.1-11.6-12-17.8-17.6c-1.5-1.3-4.1-3.8-2.8-4.9c2-1.7,2.9,1.7,4.4,2.9c4.1,3.3,7,7.8,10.8,11.4
			c5.7,5.6,10.5,12.2,16.5,17.2c14.7,12.2,26.4,27.6,41.1,39.7c1.6,1.3,3.1,2.6,4.8,3.7c4.5,2.9,9,3.9,14,0.6
			c4.8-3.2,10.4-4.7,16.1-5.6c4-0.6,7.8-2.3,11.5-3.9c3.4-1.4,5.8-0.5,7.9,2.6c6.4,9.4,13.1,18.5,21.4,26.3c1.6,1.5,1.7,2.6,0.2,4.2
			c-4.4,4.8-9.7,8.5-14.7,12.5c-1.3,1.1-2.3,0.4-3.4-0.5c-4.5-3.7-9.2-7.2-13.8-10.9C568.4,537.1,566.6,536.6,564.4,536.7z"/>
		<path class="st3" d="M477.8,127.4c-3.6,0.4-5.8,3-7.6,5.4c-7.1,9.1-13.9,18.4-20.9,27.7c-0.4,0.6-0.9,1.1-1.2,1.7
			c-1.8,3.4-3.6,2-6,0.4c-2.6-1.8-2.2-3.2-0.5-5.4c9-11.7,17.9-23.5,26.9-35.3c1-1.3,1.9-2.6,2.2-4.4c-1.9-0.4-2.5,0.9-3.4,1.8
			c-8.3,8.7-14.9,18.6-22,28.2c-2.3,3.1-4.5,6.2-6.6,9.3c-2.3,3.4-3.9,0.3-5.6-0.6c-2.3-1.1-1-2.3,0.1-3.6
			c5.8-6.2,9.6-13.9,15.2-20.3c3.6-4.1,7.3-8.2,10.8-12.4c1-1.2,2.7-2.5,1.8-5.2c-4.3,3.3-7.2,7.6-10.8,11.1
			c-7.6,7.4-12.5,16.8-19,25.1c-1.9,2.4-3.1,2.1-5.3,0.7c-2.1-1.4-2-2.3-0.5-4.2c6.4-8.2,13.2-16.1,19.2-24.5
			c5.7-8,11.8-15.6,17.6-23.4c2-2.7,4.1-5.3,6.3-7.8c4-4.6,4.6-9.6,1.2-14.7c-4.2-6.4-7.2-13.4-9.9-20.6c-1-2.6-0.4-3.6,2.4-4.1
			c10.6-1.8,21.4-2,31.8-5c2.1-0.6,2.8,0.5,3.1,2.4c1.4,11.7,2.8,23.5,4.2,35.2c0.1,0.9,0.2,1.9,0.3,2.8c1.4,7.2,5.9,10.3,13.1,9.5
			c11.1-1.2,22.2-1.5,33.3-1.5c2.7,0,3.5,1.1,3.5,3.7c-0.3,7.4-0.4,14.8-0.5,22.2c0,2.5-1,3.5-3.4,3.3c-5.7-0.4-11.5-0.5-17.2-1
			c-7.5-0.7-15.1-0.5-22.5,0.6c-6.9,1.1-10.8,6.7-15.3,11.2c-10,10.2-19.9,20.6-29.8,30.9c-1.6,1.6-2.8,3.5-4.3,5.3
			c-0.7,0.8-1.4,2.1-2.6,1c-1.1-0.9,0.2-1.7,0.7-2.4c8.4-10.8,16.8-21.5,25.2-32.4c0.7-0.9,2.2-1.7,1.3-3.5c-3,0.9-4.8,3.4-6.7,5.6
			c-7.8,9-15,18.6-21.6,28.5c-0.7,1-1.4,3.4-3,1.4c-1.2-1.5-5.2-2.3-2.7-5.5c9-11.4,17.2-23.4,26.8-34.3
			C477,129.7,477.9,129,477.8,127.4z"/>
		<path class="st3" d="M377.3,521.7c-1.4,1.8-1,3.5-1.1,5.1c-0.2,13.6,1.1,27.2,1.9,40.8c0.3,4.5,0.3,9.1,0.5,13.6
			c0.1,1.6-0.6,2.4-2.3,2.4c-1.2,0-2.4,0.3-3.6,0.4c-4.6,0.7-4.4,0.7-4.1-4.1c0.6-11.2,2-22.4-2.4-33.3c-0.7-1.7-1.1-3.7-2.8-5.3
			c-1,1.7-1.1,3.4-1,5.2c0.6,11.9,0.2,23.9,0.3,35.9c0,2.1-0.6,3-2.8,3c-2.1,0-4.3,0.3-6.4,0.7c-2.1,0.4-3.3-0.2-3.3-2.5
			c0-19.5-1.8-39,0.2-58.4c1.3-11.9,3-24,8-35.1c3.3-7.5,9.6-11.7,17.2-14.1c5-1.6,9.1,1,12.8,4c11.4,9.4,19.2,21.1,22.7,35.5
			c2.7,11.1,5.7,22.2,8.4,33.3c2.3,9.7,2.2,19.7,3.8,29.5c0,0.1,0,0.2,0,0.4c-0.5,2.1,2.1,5.4,0.6,5.7c-2.6,0.5-5.7-1.1-8.5-2.1
			c-1.4-0.5-0.8-2.1-0.8-3.2c0.1-7.8,0.4-15.5-0.9-23.3c-0.3-1.9-0.9-3.7-1.9-5.3c-0.5-0.8-0.9-2-1.9-1.9c-1.3,0.1-1.2,1.6-1.5,2.6
			c-0.8,2.3-0.3,4.7-0.2,7.1c0.4,6.9,0.8,13.8,1.3,20.7c0.2,2.5-0.5,3.6-3.1,3.3c-2.4-0.2-5.3,0.6-6.9-0.5c-1.8-1.3,0.1-4.2,0.2-6.4
			c1.1-19.1-2.1-37.6-6.7-55.9c-0.3-1.3-0.6-3.3-2.4-2.9c-1.5,0.3-1,2.2-1.1,3.4c-0.8,14.2,1.1,28.1,2.4,42.2
			c0.5,5.8,0.8,11.7,1.4,17.5c0.4,4.1-2.5,2.8-4.4,3.1c-2.6,0.5-3-0.8-2.9-3.1c1.2-15.2,0-30.3-3.8-45.1
			C380.8,530.2,379.8,525.8,377.3,521.7z"/>
		<path class="st3" d="M305.5,521.6c-1.5,2.5-1.7,4.9-2.2,7.2c-2.2,11.5-1.7,23.1-0.6,34.7c0.4,4.6,1.1,9.2,1.8,13.8
			c0.3,1.7,1.1,3.4,1.5,5.1c0.4,1.7,2.7,2.6,1.8,4.7c-0.2,0.6-8.6,0.4-9.2,0c-1.1-0.9-0.8-2.2-0.8-3.3c-0.5-18.7,0.2-37.3,1.1-55.9
			c0.3-5,0.4-10,0.5-15c0-1.2,0.3-2.6-1-3.9c-3,4.1-4.2,8.7-5.2,13.3c-3.3,15.2-3.4,30.6-2.6,46c0.3,5.6,0.5,11.2,1.2,16.8
			c0.1,0.6,0.2,1.5-0.1,1.7c-2,1.4-4.4,0.6-6.6,0.6c-1.8,0-1.8-1.5-1.9-2.9c-0.1-11.4-0.3-22.7-0.5-34.1c-0.1-6.4,0-6.4-3.4-12.5
			c-2.7,4.6-4.1,9.4-4.3,14.4c-0.3,11-0.6,22,0.3,32.9c0.1,0.9,0,1.5-0.9,1.5c-2.7,0-5.5,0-8.2-0.3c-1.7-0.2-1.5-1.9-1.5-3.2
			c-0.1-11.4,0.6-22.7,2.6-33.9c1.7-9.6,3-19.3,4.8-29c2.3-12.5,7.2-23.7,16.9-32.4c3.1-2.7,7.2-3.7,10.9-5.4
			c1.3-0.6,2.5,0.1,3.8,0.6c9.1,3.7,13.4,11.5,16.6,20c4.8,13,6.9,26.5,8.7,40.2c1.8,13.5,3.7,27,5.7,40.4c0.3,2.2-0.2,3-2.4,3.3
			c-7.9,1.1-7.6,0.9-5.5-6.5c3.3-11.7,2.5-23.2-4.2-33.7c-1.1-1.7-2-1.1-2.3,0.4c-1.3,5.3-3.6,10.4-3.6,16
			c0.1,6.8-0.5,13.6,0.7,20.4c0.3,1.6,1,3.7-2.2,3.7c-2.7,0-3-1.1-3.1-3.5c-1.4-18.6-1.5-37.2-4.6-55.7
			C307.2,526.2,307,524,305.5,521.6z"/>
		<path class="st3" d="M217.4,532.6c-2.9,4.4-4.2,9.5-4.7,14.7c-1,9.7-1,19.3,1.3,28.9c0.5,2.1-0.3,2.9-2.3,2.8
			c-8-0.1-8.3-0.1-7.6-7.3c2.1-21,2.2-42,2.9-63c0.3-7.8,0.7-15.5,0.7-23.3c0-4.1,0.5-7.6,3.6-10.7c3-2.9,5.7-6.1,9.7-7.5
			c5.3-2,11.4,0.4,14,5.4c5.3,9.9,6.4,20.9,8,31.7c2.8,19.7,3.2,39.5,4.3,59.3c0.3,6-0.2,12,1.4,17.8c0.3,1.2,0.1,2.3-1.4,2.2
			c-1.6-0.1-3.6-0.2-3.7-2.5c-0.1-2.1-0.1-4.3,0.2-6.4c0.7-5.6,0.5-11.2,0.5-16.8c0-4.5-2.2-8.7-3.9-8c-3.2,1.4-3.3,4.8-3.3,7.7
			c-0.1,7.4-0.7,14.8,1.8,22c0.7,2,0,2.4-2.1,2.2c-7.6-0.8-7.6-0.8-7.4-8.4c0.6-21.1,1.3-42.3,1.8-63.4c0-1.8,0.9-4.7-1-5
			c-1.7-0.3-2,2.8-2.6,4.6c-3.5,10.2-3.9,20.9-4.2,31.5c-0.4,11.8,0.3,23.7,0.9,35.5c0.1,1.6,0.9,3.6-2.1,3.4
			c-2.2-0.2-4.1-0.1-4.1-3.4c-0.1-12.7,0-25.3,0.3-38c0.1-1.9,0-3.7,0-5.6C218.2,532.8,217.8,532.7,217.4,532.6z"/>
		<path class="st2" d="M373.6,377.9c-8.5,0-17-0.3-25.4,0.1c-5.6,0.2-9.8-1.7-13.7-5.4c-3.1-3-3.6-6.3-2.4-10.1
			c2.7-8.8,6.5-17.1,10.5-25.3c4.8-10,9.5-20,13.7-30.2c3.1-7.6,7.4-14.8,10.1-22.6c3.6-10.3,8.6-20,12.7-30.1
			c3.3-8,6.3-16.1,10.1-23.9c2.7-5.4,7.9-6.2,11.9-1.7c2.9,3.3,4.2,7.3,5,11.3c1.3,6.6,3.5,12.8,5.5,19.2
			c3.8,12.1,6.9,24.4,8.4,37.1c1.1,8.6,1.7,17.3,2.4,25.9c0.9,12.5,0.2,25.2,2.6,37.7c0.8,4.3-5,13.8-11,14.6
			C400.5,376.2,387,376.9,373.6,377.9z"/>
		<path class="st2" d="M236.2,374.3c-9.9-0.4-19.7,1-29.7-0.9c-10.6-2-16.7-7.3-18.5-18.2c-1-6.3-1.6-12.5-1.8-18.9
			c-0.6-17.6-0.3-35.2,1.1-52.7c1.4-18.5,3.8-37.1,11.2-54.5c1.5-3.6,3.2-7.4,7.9-7.2c4.9,0.2,8.8,2.7,10.4,7.5
			c3.9,11.2,9.2,21.8,12.8,33.1c4.2,13.1,9,25.9,14.2,38.6c3,7.3,8.1,13.3,10.8,20.7c3.5,9.5,9.5,17.9,12.3,27.7
			c1,3.4,2,6.9,3.3,10.2c2.1,5.5-0.3,9.8-6.4,12.8c-6.4,3.2-13.3,1.8-20,2C241.2,374.7,238.7,374.4,236.2,374.3z"/>
		<path class="st2" d="M120.8,327.6c0,5.5-2,10.7-3.3,16c-0.8,3.2-3.6,4.9-7.2,4.6c-3.6-0.3-5.5-2.4-6.4-5.7
			c-0.9-3.4-0.8-6.9,0-10.3c0.4-1.6,0-2.6-0.9-3.9c-9.5-13.4-19-26.9-28.4-40.4c-1.8-2.5-3.1-5.4-4.2-8.3c-1.3-3.5-0.6-6.9,0.8-10.1
			c1.2-2.6,3-1.9,4.5-0.3c4.4,4.9,8.8,9.8,13,14.7c7.7,9,14.8,18.4,23.2,26.8c3.3,3.2,5.6,7.4,8.3,11.2
			C121.5,323.7,120.6,325.7,120.8,327.6z"/>
		<path class="st2" d="M504.7,356.9c-2.8,0.2-5-0.9-6.9-3c-7-7.3-10.4-16.1-11.8-25.9c-0.8-6-2.8-11.8-1.4-18c0.5-2,0.7-4.1,2-5.7
			c11.2-13.9,22.4-27.8,33.7-41.7c1.6-1.9,3.7-3.4,5.9-4.6c5.3-3,11.3,0.6,11.1,6.8c-0.1,6.1-3.3,11.1-5.8,16.4
			c-5,10.3-12.2,19-19.7,27.6c-1.6,1.9-2.1,3.7-2,6.2c0.3,9.2,1.4,18.3,4.1,27.2c0.7,2.2,0.7,4.7,0.7,7.1
			C514.4,353.7,510.3,356.8,504.7,356.9z"/>
	</g>
</g>
</svg>
