<?xml version="1.0" encoding="utf-8"?>
<!-- Generator: Adobe Illustrator 21.0.2, SVG Export Plug-In . SVG Version: 6.00 Build 0)  -->
<svg version="1.1" id="Layer_1" xmlns="http://www.w3.org/2000/svg" xmlns:xlink="http://www.w3.org/1999/xlink" x="0px" y="0px"
	 viewBox="0 0 640.6 848.3" style="enable-background:new 0 0 640.6 848.3;" xml:space="preserve">
<style type="text/css">
	.st0{fill:#1A0B0C;stroke:#FFFFFF;stroke-width:11;stroke-miterlimit:10;}
	.st1{fill:#1E0F11;}
	.st2{fill:#DE215B;}
	.st3{fill:#1A0B0C;}
	.st4{fill:#E51D5B;}
</style>
<g>
	<path class="st0" d="M263.3,727.3c7.1,0.4,11.4-5.1,16.3-10c1.6,7.3,4.3,12.6,11.5,14.5c9.8,2.4,17.1-2.3,24.2-7.5
		c4-2.9,5.6-7.9,5.1-12.4c-1.3-11.8,1.2-22.3,7-32.5c4.7-8.2,8.6-16.8,8.5-26.9c-0.1-6.6-3.6-14-9.3-15.7
		c-7.1-2.1-14.3-4.5-21.8-1.2c-0.8,0.4-1.9,0.2-2.9,0.1c-10.5-1.5-21-2.8-31.3,1.3c-0.7,0.3-1.6,0.5-2.4,0.4
		c-8.8-1.6-17.6-0.9-26.4-0.5c-7.7,0.3-15.5-0.5-23.3-0.5c-7.5,0-15,4.8-22.6,0.2c-0.7-0.4-1.9,0.2-2.9,0.1
		c-6.3-0.7-12.7,1.3-19.2-0.9c-10.3-3.4-19.2-0.1-26.5,7.4c-1.8,1.8-2.4,1.8-4.1,0.3c-5.4-4.8-11.9-7.5-18.8-8.5
		c-11.1-1.7-22.5-3.6-32.1,5.1c-1,0.9-1.9,1.1-3.1,0.3c-8.7-5.7-18.7-6.5-28.6-6.8c-13.2-0.4-26.4,8.3-25.6,22.3
		c0.3,4.2,1,8.5,1.7,12.7c1.7,10.5,4.2,20.8,3.4,31.6c-0.8,10.2,3,18.8,9.2,26.5c4.6,5.7,12.4,7.9,19.9,5.7
		c5.8-1.7,9.5-6.3,10.1-12.8c0.3-2.8,0.6-5.6,0.2-8.4c-0.8-5.9,1.9-8,7.4-8.3c2.4-0.2,3.4-0.3,3.6,2.7c0.6,9.2,4.9,16.8,11.5,23
		c7.1,6.7,18.4,5.8,24.1-1.9c2-2.7,3.5-2.8,5.9-1.2c1.5,1,3.2,1.8,4.7,2.8c4.4,2.8,9,4.3,14.1,2.5c3.1-1.1,6-0.9,9,0.4
		c3.2,1.4,6.6,1.7,10.1,0.4c9.2-3.4,18.9-4.8,28.7-4.1c6.3,0.4,12.2-0.6,17.6-3.9c1.3-0.7,2.1-0.7,3.5,0c12.8,6.7,20.1,3.8,26.7-3.9
		C250.4,725.8,256.9,726.9,263.3,727.3z"/>
	<path class="st0" d="M609.6,648.1c-9.3-7.3-17.9-15.8-31.2-15.6c-11.1,0.2-22.1-0.5-30.1,9.2c-1.1,1.4-2,1.4-3.3,0.5
		c-13.8-8.9-28.5-11-44.1-6c-2,0.7-3.6-0.3-5.3-0.8c-8.3-2.6-16.9-4.3-23.8,2.6c-3.4,3.4-6,3.1-9.3,1.3c-4.1-2.3-8.3-2.8-12.9-2.8
		c-7.2,0-14.6,1.4-21.6-1.8c-3.4-1.6-7.1-0.3-10.6,0.9c-2.5,0.9-5.5,2.7-7.6,1.5c-9.5-5.3-17.8-2.6-26,2.8c-1.4,0.9-3.3,1.6-4.6,0.4
		c-5.5-5.3-12.9-4.8-19.5-6.4c-11.5-2.9-21.1,4.8-21.7,16.8c-0.3,6.9,0.9,13.5,2.3,20.2c1.9,9.1,4.1,18.1,5.8,27.2
		c1.3,7.1,1,14.5,3.1,21.6c1.3,4.3,3.7,7.8,7.8,9.2c5.7,1.9,11.6,4.1,17.9,1.9c2.7-1,5.4-0.9,8.2-0.2c9.7,2.4,17.6-0.3,23.2-8.9
		c4.1,8,12.8,13,23.3,9.3c5.5-2,11.2-3.3,17.3-3.4c7.4-0.2,15,1.4,22.2-1.7c1.4-0.6,2.1,0.4,2.7,1.5c5.7,10.8,19.7,9.7,27.1,1.7
		c2.9-3.2,4.1-2.8,7.1-0.1c6.8,6.3,18.2,5.1,23.7-2.4c1.8-2.4,3-3,5.4-1.2c1.3,1,3,1.4,4.3,2.4c5.3,4.1,11.3,4.8,17.3,2.3
		c2.6-1.1,4.7-1.1,6.9-0.2c11,4.4,20.8,2.3,30.2-4.5c11.1-8,19.1-18,22.7-31.4c3.2-12.1,1-23.7-2.1-35.2
		C613.4,655.1,613,650.8,609.6,648.1z"/>
	<path class="st0" d="M407.1,743.1c-2.7,0.7-5.8,1.6-8.3,0.9c-10.4-2.7-21-2.7-31.6-2.6c-4.4,0.1-8.7,1.1-11.7,4.6
		c-1.5,1.7-2.5,1.5-4.1,0.2c-3.6-3-8-4.8-12.6-5.5c-11.8-1.8-24-5.2-34.6,4c-0.6,0.4-1.2,0.9-1.8,0.3c-3.8-3.8-9.3-2.8-13.8-4.7
		c-9-3.7-17.1-1.6-24.5,3.4c-9.9,6.7-11.5,17.8-11.8,28.5c-0.2,8.1,0.1,16-1.8,24.1c-1.4,6.2-3.5,12.6-2.2,19.2
		c-0.1,1.4-0.2,2.7-0.1,4c-0.5,9.2,4.6,15.9,13.5,18.2c6.1,1.6,11.7-0.5,16.5-3.3c4.3-2.5,7.8-2.1,11.8-0.4c6.1,2.5,12,2.2,17.5-1.4
		c2.3-1.5,3.4-1.3,5.2,0.6c7.3,7.6,18.5,6.2,23.7-0.3c3.3-4.2,5.6-3.2,8.8-1.3c1.3,0.7,2.5,1.7,3.7,2.5c5.4,3.6,14.2,3.7,18.6-0.7
		c3-3,5.6-2.8,9.2-1.9c10.2,2.6,24.4-5.9,27.3-16.1c0.1-0.3,0-0.7,0.2-1c1.7-2.9-0.6-6,0.3-8.7c2.5-7.6,0.8-15.4,1.7-23.1
		c0.4-2.8,1.1-3.9,3.7-4.1c10.9-0.8,12.9-3.4,16.5-13.5C430.8,752.6,417.1,740.7,407.1,743.1z"/>
	<path class="st0" d="M629.7,540.6c-2.1-6-4.5-12-7.6-17.7c-2.8-5.2-7.5-8.6-11.1-13c-4.1-5-9.1-9.1-14.4-12.8
		c-3.7-2.7-7.8-5.1-12.4-5.4c-8.7-0.5-17.4-0.9-25.6,3.3c-5.7,3-10.9,2.1-16-2.5c-5.4-4.9-11.5-8.9-17.4-13.2
		c-4-2.9-8.2-5.4-11.7-8.8c-7-6.8-12.8-14.7-19.6-21.8c-5.5-5.8-12-10.5-17.3-16.6c-1.6-2-1.7-2.9,0.9-3.9c7-2.8,10.5-8.3,11.5-15.6
		c0.4-2.8,0.3-5.8,1.4-8.8c6.8,3,14,4.5,20.7,7.4c9.6,4.1,19.6,6,30.1,4.9c3.8-0.3,7.2-1.4,9.7-4.5c3.2-4,5.8-8.2,7.2-13.1
		c6.6-22.8,12.9-45.7,20.4-68.2c6.7-20.3,12.2-40.9,16.2-61.9c4.8-25.2,9-50.5,13.5-75.8c1.7-9.6,2.6-19.2,2.5-28.9
		c0-3.7-1.2-6.8-4.4-8.5c-3.1-1.7-6-0.2-8.7,1.5c-1.4,0.9-2.6,2.2-3.8,3.3c-6.8,6.2-12.4,13.6-18.3,20.6
		c-10.4,12.3-23.2,22.2-35.6,32.6c-13.5,11.3-27.7,21.8-41.9,32.4c-2.7,2-4.7,4.7-8.2,6.4c1.7-8.1,2.2-15.9,2.7-23.8
		c0.6-9.1-0.1-18-4.3-26.2c-1.7-3.4-1-5.8,1.5-8.3c7.4-7.6,14.9-15.1,21.5-23.5c4-5,8.6-9.6,13-14.3c1-1,1.9-2,3.7-1.3
		c10.2,3.9,21,3.4,31.5,2.9c12.1-0.6,18.6-4.9,21.7-17.9c3-12.5,3.4-25.3,2.7-38.1c-0.2-4.3-1.7-8.6-5.4-11.3
		c-9-6.4-18.9-9.9-30.1-9.3c-3.4,0.1-6.4,1.6-9.8,1.8c-1.4,0.1-2.2,0.2-2.3-1.6c-0.3-8.4-2.8-16.4-4.1-24.7
		c-2-13.4-12.2-19.2-22.8-19.2c-9.7,0-19.1,1.3-28.4,3.2c-9.3,1.9-18.8,3.6-27.2,8.5c-8.3,4.8-10.9,14.1-6.2,22.5
		c3.1,5.5,5,11.6,8.7,16.8c0.9,1.2,1.3,2.5,0.5,4c-3.8,6.8-6.9,14-11.3,20.4c-11,16.1-23.1,31.3-34.6,47c-1,1.3-1.7,1.8-3.5,1.3
		c-5.8-1.4-11.6-2.8-17.5-3.7c-23.6-3.6-47.5-2.8-71.2-2.4c-18.3,0.3-36.6,3.1-54.9,5.1c-8.1,0.9-16.1,2-23.9,4.4
		c-1.5,0.5-2.4-0.3-3.5-1.1c-12-9.4-22-20.9-32.2-32.1c-9.4-10.2-17.6-21.5-28.8-29.9c-1.1-0.8-1.3-1.3-0.4-2.5
		c3-4.1,5.9-8.3,8.9-12.5c7-9.9,7.1-20.5,2.9-31.3c-5.2-13.2-13.6-24.5-21.8-36c-6.6-9.3-16.4-11.6-26.1-5.5
		c-3.9,2.4-7.1,5.7-10.6,8.5c-9.9,7.9-20.2,15.2-30.5,22.6c-3,2.1-5.7,4.8-6.9,8.5c-0.6,1.6-1.6,2.1-3,2.1
		c-6.5,0.1-11.3,3.7-16.1,7.6c-6.9,5.6-14,10.9-21.4,15.6c-5.3,3.3-10.2,7-14.5,11.5c-6.6,6.8-8.1,19.8-1.4,28.3
		c5.9,7.5,11.3,15.4,17.5,22.7c7.9,9.3,19.6,12.6,31.2,8.4c3.9-1.4,7.8-3.1,11.8-4.2c6.4-1.7,12.5-1.6,17.9,3.1
		c6.9,6,13.9,12,22.6,15.5c4.3,1.8,8.5,4,12.3,6.6c7,4.8,14.5,8.8,20,15.1c-28.3,16.9-34.7,42.3-29.5,72.6
		c-6-2.6-11.6-6.5-16.9-10.8c-13-10.7-25.3-22.2-37.3-34c-7.1-7-14-14-22.2-19.8c-8.5-6-17.1-12-24.1-20.1c-4.3-5-9.3-9.6-13.5-14.8
		c-3.4-4.3-6-4.8-9.9-3c-3.2,1.5-3.7,4.3-4,7.4c-1.5,17,3,33.2,7,49.4c3.9,15.7,10.2,30.6,13.6,46.4c2.7,12.6,5.3,25.2,8.5,37.7
		c6.9,27.4,17.1,53.9,26.6,80.5c4,11.2,9,22,13.8,33.3c2.7,6.5,6.2,12.6,10.7,18.1c7.1,8.6,18,9.5,26.6,2.3c1.9-1.6,3.7-3.6,5.9-4.6
		c8.7-3.9,16.3-9.4,24.3-14.4c2-1.3,3.4-1.5,5,0.6c5.7,7.5,13,13,21.1,17.5c2.9,1.6,2.1,2.5,0.1,4.3c-8.8,7.9-18,15.4-25.6,24.5
		c-6.1,7.2-10.4,15.8-16.8,22.8c-7.2,7.9-12.1,17.7-19.7,25.4c-2.2,2.3-3.7,3.1-6.6,0.7c-12.2-9.8-24.1-10.5-36.6-1
		c-1.9,1.5-4.3,2.2-6.6,2.6c-6.9,1.2-13.3,3.7-19.4,7.1c-5.4,3-10.2,6.9-12.9,12.5c-2.1,4.4-2.8,9.4-2.9,14.3
		c-0.2,16.3,4.2,31.6,11.3,46.1c2.3,4.7,6.7,7,11.9,7.6c4,0.4,7.9,0.2,11.7-1.2c2.2-0.8,3.1-0.3,3,2.1c-0.2,2.9-0.1,5.7,0,8.6
		c0.2,5.4,2.6,9.5,7.4,12.2c4.2,2.3,8.9,3.9,13.6,4c12.2,0.3,23.9,4.1,36,5.1c8.6,0.7,17.1,0,23.5-6.2c7.8-7.4,15.4-15.1,19.3-25.5
		c3.1-8.6,3.5-16.7-2.9-24.2c-1.3-1.6-2.4-3.3-3.5-5c-0.5-0.8-1.1-1.7-0.5-2.7c3.1-4.8,4.2-10.6,7.3-15.5
		c4.5-7.3,10.1-13.6,15.3-20.3c4.2-5.5,9-10.3,14.1-15.9c0,14.7,0.4,28.9-2.6,42.4c-3.3,14.6-1.8,28.8-0.6,43.1
		c0.5,5.5,3.1,10,8.4,12.5c12.5,5.8,25.6,8.2,39.4,6.8c7.8-0.8,15.8-1.2,23.6-1c14,0.4,28.1,0.1,42.2,1.5c9.2,0.9,18.6,0.7,27.9,1.1
		c10.8,0.4,21.7,1.1,32.6-0.3c8.6-1.1,17.4-2.7,26.1-1.5c16.4,2.3,33,3.3,49.6,3.1c10.3-0.1,12.6-2,13.4-12.2
		c0.6-8.4,1.8-16.6,2.1-25c0.4-10.7-0.6-21.2-1.9-31.8c-1.4-11.4-0.4-22.9-2.3-34.3c-1-5.9-1.9-11.7-1.5-17.7
		c0.2,0.2,0.6,0.3,1.1,0.5c6.7,12.3,16.4,22.6,24.1,34.2c8.2,12.3,19.3,22.2,28.3,33.8c1.7,2.2,2.4,4.1,1.5,6.8
		c-1.2,3.4-1.9,6.9-2.8,10.4c-2.6,10.3-0.6,18.9,8.3,25.4c4.7,3.4,8.9,7.5,13.2,11.5c4.6,4.5,11.6,5.3,16.2,3.1
		c6.1-3,11.6-7,17.5-10.3c8.1-4.6,14-11.4,19.3-18.8c2.6-3.7,3.1-7.8,2.2-12.3c-0.8-4-2.5-7.5-5.1-11.2c10.2,2.7,19.1,7.2,29,8.5
		c6.1,0.8,10.9-0.3,14.5-5.3c3.5-4.9,6.5-10.3,9.1-15.8C629.4,553.3,632,547.2,629.7,540.6z"/>
</g>
<g id="x4jJAY_1_">
	<g>
		<path class="st1" d="M280.6,718.3c-4.9,4.9-9.2,10.4-16.3,10c-6.4-0.4-12.9-1.5-16.9-7.6c-6.6,7.7-13.9,10.6-26.7,3.9
			c-1.4-0.7-2.2-0.7-3.5,0c-5.4,3.3-11.3,4.3-17.6,3.9c-9.8-0.7-19.5,0.7-28.7,4.1c-3.5,1.3-6.9,1-10.1-0.4c-3-1.3-5.9-1.5-9-0.4
			c-5.1,1.8-9.7,0.3-14.1-2.5c-1.5-1-3.2-1.8-4.7-2.8c-2.4-1.6-3.9-1.5-5.9,1.2c-5.7,7.7-17,8.6-24.1,1.9
			c-6.6-6.2-10.9-13.8-11.5-23c-0.2-3-1.2-2.9-3.6-2.7c-5.5,0.3-8.2,2.4-7.4,8.3c0.4,2.8,0.1,5.6-0.2,8.4
			c-0.6,6.5-4.3,11.1-10.1,12.8c-7.5,2.2-15.3,0-19.9-5.7c-6.2-7.7-10-16.3-9.2-26.5c0.8-10.8-1.7-21.1-3.4-31.6
			c-0.7-4.2-1.4-8.5-1.7-12.7c-0.8-14,12.4-22.7,25.6-22.3c9.9,0.3,19.9,1.1,28.6,6.8c1.2,0.8,2.1,0.6,3.1-0.3
			c9.6-8.7,21-6.8,32.1-5.1c6.9,1,13.4,3.7,18.8,8.5c1.7,1.5,2.3,1.5,4.1-0.3c7.3-7.5,16.2-10.8,26.5-7.4c6.5,2.2,12.9,0.2,19.2,0.9
			c1,0.1,2.2-0.5,2.9-0.1c7.6,4.6,15.1-0.2,22.6-0.2c7.8,0,15.6,0.8,23.3,0.5c8.8-0.4,17.6-1.1,26.4,0.5c0.8,0.1,1.7-0.1,2.4-0.4
			c10.3-4.1,20.8-2.8,31.3-1.3c1,0.1,2.1,0.3,2.9-0.1c7.5-3.3,14.7-0.9,21.8,1.2c5.7,1.7,9.2,9.1,9.3,15.7
			c0.1,10.1-3.8,18.7-8.5,26.9c-5.8,10.2-8.3,20.7-7,32.5c0.5,4.5-1.1,9.5-5.1,12.4c-7.1,5.2-14.4,9.9-24.2,7.5
			C284.9,730.9,282.2,725.6,280.6,718.3z M229,704.1c0,2.2,0,4.3,0,6.5c-0.1,2.6,2.2,3.7,3.5,2.7c3.1-2.2,7.2-4.8,8-8
			c1-3.8,1.2-8.1,1.6-12.2c0.8-8.9-1.7-18.2,2.9-26.7c0.1-0.1,0-0.3,0.1-0.5c0.4-4,3.4-4.2,6.2-4s5.9,0.8,5.7,4.8
			c-0.2,4.7,1.4,9.3,1.4,13.9c0,5.6,3.1,10.8,1.8,16.4c-1,4.5,0.4,9-0.2,13.4c-0.3,2.5,1.8,3.9,3.4,2.9c3.1-2,7.8-5,7.7-7.4
			c-0.1-5.1,2.3-9.8,1.7-14.7c-0.7-5.4,1.9-10.9-0.5-16.3c-0.3-0.6,0.5-1.9,1.1-2.7c1.3-2,2.3-4.1,2.6-6.4c0.4-2.6,2-3.6,4.4-4
			c2.3-0.3,3.8,1.4,4,3c1.1,6.3,5,11.6,6.3,17.7c2.2,10.5,3.7,21.2,4.2,32c0.2,4.6,1.4,4.8,5.6,3.2c4.9-1.8,7.7-3.9,4.8-9.4
			c-0.1-0.3-0.1-0.7,0-1c3-10.1,2.1-21.2,8.2-30.5c3.1-4.7,5.1-9.9,7.6-14.9c3.1-6.4,0.7-11.8-5.5-12.1c-5.6-0.3-9.9,3.5-9.2,9.3
			c0.6,4.9-2,8.6-3.1,12.9c-0.2,0.9-1.1,1.7-2.2,1.7c-1.4,0-1.7-1.2-1.6-2.1c0.4-5.5-2.5-10.7-0.7-16.3c1-3.1-0.3-5.1-4.1-4.8
			c-3,0.2-5.9,0.1-8.9-0.5c-2.1-0.4-4.6-0.5-5.1,2.5c-0.4,2.9-2,2.4-3.9,1.8c-8.7-2.5-17.7-1.9-26.6-2.4c-2.2-0.1-2.5,2.6-5.1,2
			c-7.7-2-15.8-1.7-23.7-1.9c-4.3-0.1-5.4,1.8-4.6,6c0.5,2.8,2.7,3,4.7,3.8c2.2,0.8,5.2,0.9,5.2,4.4
			C226.3,678.8,231,691.2,229,704.1z M161.6,692.9c-0.8,5.3,1.2,13.2,2.1,21.2c0.4,3.4,1.5,5.4,5.4,3.7c10.5-4.4,21.5-4.6,32.7-4.1
			c1.6,0.1,3.3,0,5-0.3s3.2-1.2,3.6-3c0.5-2.1-1.6-2.6-2.7-3c-4.6-1.7-9.7-2.4-14-4.7c-4.6-2.3-10.3-0.2-14.2-4.4
			c-1-1.1-1.9-1.8-1.5-3.3c0.5-1.7,1.9-1.6,3.2-1.6c3.2,0.1,6-0.7,9-2.4c2.3-1.3,4.9-2.7,7.9-2.5c3.1,0.2,6-0.8,6-4.5
			c-0.1-3.9-3.5-3.6-6-3.4c-5.3,0.6-10.3-0.3-15.4-1.9c-1.6-0.5-2.6-0.9-3.3-2.5c-1.8-4.3,0.4-10.5,5.1-11.4
			c6.2-1.1,11.6-6.1,18.5-3.9c1.4,0.5,2.6-0.5,2.9-2c0.3-1.5,0.4-3.1-1.5-3.7c-3.7-1.2-7.1-3-11.4-3c-6.6,0.1-13.5,1.8-19.8-0.9
			c-5-2.1-9.9-1.8-12.9,1.5c-2.9,3.2-3.2,9.2-1.9,13C161.3,673.9,162,681.8,161.6,692.9z M117.4,695.4c3.2,3.6,8,4.2,10.2,8.3
			c1.9,3.6,5.1,5.9,8.6,7.7c2.8,1.4,5.6,2.7,8.3,4.3c1.4,0.8,2.6,2.9,4,0.8c1.1-1.6,1.3-3.8-0.8-5.3c-2.1-1.4-3.8-3.3-5-5.5
			c-2.3-4-3.1-8.6-6.2-12.3c-1.2-1.5-1.1-3.8,1.1-5.2c2.8-1.8,3.5-4.5,4.7-7.5c5.4-13.9-3.2-23.8-13.2-28.7c-6.1-3-12.7-2.1-19-2.9
			c-5.7-0.7-9.7,4.9-8.7,10.7c0.7,4.1,1.5,8.1,2.2,12.2c0.8,4.1,1.1,8.4,1.9,12.6c2.2,10.5-2.6,22.2,5.7,31.7c1,1.1,1.4,3,3.1,2.7
			c2.1-0.4,1.2-2.4,1.4-3.7C116.7,708.9,114.4,702.3,117.4,695.4z M55.9,695.7c-1,8.1,0.2,15.6,5.6,22c0.8,1,1.5,1.8,2.9,1.6
			c1.6-0.2,0.8-1.5,0.9-2.3c0.9-5.1,0.9-10.2,0.1-15.4c-0.5-3.4-0.2-8.5,3-9.1c4.1-0.7,7.9-2.9,12.4-2.3c3.7,0.5,7.8-1.2,10-4.2
			c3.6-4.9,3.7-11.4,3.3-16.7c-0.6-7.5-6.5-12.6-13-16.5c-6.6-3.9-14.2-3.1-21.3-3.7c-4.5-0.4-9.1,4.1-8.8,7.5
			c0.4,3.8,1.5,7.5,1.5,11.3C52.6,677.3,57.5,686.1,55.9,695.7z"/>
		<path class="st1" d="M407.3,722.7c-5.6,8.6-13.5,11.3-23.2,8.9c-2.8-0.7-5.5-0.8-8.2,0.2c-6.3,2.2-12.2,0-17.9-1.9
			c-4.1-1.4-6.5-4.9-7.8-9.2c-2.1-7.1-1.8-14.5-3.1-21.6c-1.7-9.1-3.9-18.1-5.8-27.2c-1.4-6.7-2.6-13.3-2.3-20.2
			c0.6-12,10.2-19.7,21.7-16.8c6.6,1.6,14,1.1,19.5,6.4c1.3,1.2,3.2,0.5,4.6-0.4c8.2-5.4,16.5-8.1,26-2.8c2.1,1.2,5.1-0.6,7.6-1.5
			c3.5-1.2,7.2-2.5,10.6-0.9c7,3.2,14.4,1.8,21.6,1.8c4.6,0,8.8,0.5,12.9,2.8c3.3,1.8,5.9,2.1,9.3-1.3c6.9-6.9,15.5-5.2,23.8-2.6
			c1.7,0.5,3.3,1.5,5.3,0.8c15.6-5,30.3-2.9,44.1,6c1.3,0.9,2.2,0.9,3.3-0.5c8-9.7,19-9,30.1-9.2c13.3-0.2,21.9,8.3,31.2,15.6
			c3.4,2.7,3.8,7,4.8,10.7c3.1,11.5,5.3,23.1,2.1,35.2c-3.6,13.4-11.6,23.4-22.7,31.4c-9.4,6.8-19.2,8.9-30.2,4.5
			c-2.2-0.9-4.3-0.9-6.9,0.2c-6,2.5-12,1.8-17.3-2.3c-1.3-1-3-1.4-4.3-2.4c-2.4-1.8-3.6-1.2-5.4,1.2c-5.5,7.5-16.9,8.7-23.7,2.4
			c-3-2.7-4.2-3.1-7.1,0.1c-7.4,8-21.4,9.1-27.1-1.7c-0.6-1.1-1.3-2.1-2.7-1.5c-7.2,3.1-14.8,1.5-22.2,1.7
			c-6.1,0.1-11.8,1.4-17.3,3.4C420.1,735.7,411.4,730.7,407.3,722.7z M378.7,698c3.5,4.4,4.6,8.3,3.8,12.9c-0.7,3.8,1.1,6,5.4,6.6
			c3.9,0.5,5.6-0.9,6.1-4.5c0.2-1.5,0.9-2.9,1.1-4.3c0.9-8.7,3.1-17.3,4.8-25.8c1.8-8.7,4.1-17.3,6.1-26c1.3-5.6-3-6.3-5.4-6.7
			c-2.6-0.4-6.4,1.4-7.2,4.8c-1.2,5.3-2.6,10.5-1.4,16.2c0.7,3.4-0.8,7.2-1.5,10.8c-0.2,1-0.6,2.6-2,2.4c-1.5-0.2-1.1-1.8-1.3-2.9
			c-1.1-7.5-2.2-15-3.1-22.6c-0.3-2.6-1.5-2.6-3.3-1.9c-4.1,1.7-4.9,5.6-4.6,9.1c0.7,6.8-3,12.6-3.5,19c-0.1,0.9-1.1,2-2.9,1.5
			c1.4-10.2-1.8-20.3-0.1-30.5c0.5-2.8,1.4-6.2-4-4.3c-1.5,0.5-3.7-0.7-5.5-1.4c-5.1-2.2-6.3-1.5-6.3,4.1c0,7.2,2.2,14,3.5,21.1
			c2.1,12,6,23.7,5.8,36.1c-0.1,4.6,2.7,5.9,6.7,6c4.3,0.1,5-2.9,5.7-6.2C376.4,707.4,377.5,703.3,378.7,698z M571.5,648.3
			c-1.8,0.1-3.7,0-5.4,0.5c-2.7,0.8-6.1,2.7-5.5,5.4c1,4.2,0.2,8.4,1.2,12.6c1.4,6.1,2.7,12.3,2.8,18.6c0.2,8.2,2.2,16.3,0.6,24.5
			c-0.3,1.8,0.6,3,1.6,4.5c3.3,4.9,11.2,5.1,15.5,2.4c2.7-1.7,4.2-4.6,6.9-5.9c5.8-2.7,9.6-6.5,10.1-13.1c0.1-1,0.5-2.2,1.6-3
			c3.3-2.5,3.9-6.6,3.8-10c-0.3-6.5-1.5-13-2.8-19.3c-1.4-7-12.8-16.2-20-16.7C578.4,648.4,575,648.1,571.5,648.3z M455.6,713.7
			c2,0,4,0.1,6,0c2.6-0.1,5.7-0.5,6-3.3c0.3-2.6-2.9-4-5.1-4.4c-4.2-0.6-8.3-1.7-12-3.4c-4.5-2.1-10-0.4-13.8-4.4
			c-1-1-2-1.7-1.4-3.3c0.5-1.3,1.6-1.6,2.8-1.6c2.8,0,5.6,0,8.2-1.6c3.1-1.9,6.4-3.4,10.2-3.3c2.8,0.1,5.1-1.4,5.1-4.4
			c0-3.1-2.6-3.5-5.1-3.4c-5.6,0.2-11,0.3-16.4-1.9c-1.4-0.6-2.6-0.4-3.2-2.3c-1.5-4.5-0.7-9.1,3.4-10.6c6.1-2.2,12-6.7,19.2-4.9
			c1.8,0.4,3.3,0.3,3.9-1.9s-0.2-3.5-2.3-4.2c-4.1-1.4-8-2.6-12.5-2.5c-7.2,0.2-14.5,1.1-21.7-2c-4.1-1.8-10.4,2.1-10.7,5.4
			c-0.5,6.2-0.7,12.3,1.8,18.2c0.6,1.5,0.9,3.2,1,4.9c0.2,11.7-0.2,23.4,1.8,35c0.7,4.4,2,5.6,6.1,3.9
			C436.1,713.9,445.8,713.3,455.6,713.7z M520.7,695.1c3.3,3.7,8.2,4.2,10.3,8.4c1.9,3.9,5.5,5.8,8.9,8.2c2.8,1.9,6.4,1.8,8.7,4.6
			c0.9,1,2,2.1,3.3,0.5c1.1-1.3,1.9-3.4,0.3-4.4c-6.5-4-7.2-11.7-11.3-17.2c-2-2.8-2-5.3,1.2-7.7c3.9-2.9,6.6-14.9,4.8-19.6
			c-4.3-11.7-13.6-18.1-26.3-18.1c-1.6,0-3.3-0.2-4.9-0.5c-6.1-1.1-11.5,3.5-10.6,9.7c1.4,10.7,3.2,21.4,4.6,32.2
			c1,8.4-1.9,17.6,5.2,24.9c1,1,1.4,3.1,2.9,3c2-0.2,1.2-2.3,1.4-3.7C520.1,708.9,518,702.3,520.7,695.1z M484.3,708.2
			c0.2,3.2,0.5,7,0.8,10.9c0.2,2.5,2.1,3,3.3,1.4c1.9-2.6,4.5-4.1,6.9-5.9c2.4-1.8,2.7-4.4,0.8-7c-0.6-0.8-1.6-1.1-1.3-2.8
			c1.7-9.2,3.6-18.3,2.6-27.8c-0.5-4.9-0.2-9.9,2.1-14.7c1.4-3,2.5-8.1-0.4-9.6c-4.1-2.1-8.8-4.1-13.7-3.9c-2.3,0.1-4.4,1.8-3.7,3.7
			c1.1,3.2-0.1,6.1,0.3,9.2c0.9,8.1,3.3,16.2-0.3,24.3c-1,2.2-0.6,5,0.7,7.3C484.6,697.7,485.5,702.5,484.3,708.2z"/>
		<path class="st1" d="M249.3,816.5c-1.3-6.6,0.8-13,2.2-19.2c1.9-8.1,1.6-16,1.8-24.1c0.3-10.7,1.9-21.8,11.8-28.5
			c7.4-5,15.5-7.1,24.5-3.4c4.5,1.9,10,0.9,13.8,4.7c0.6,0.6,1.2,0.1,1.8-0.3c10.6-9.2,22.8-5.8,34.6-4c4.6,0.7,9,2.5,12.6,5.5
			c1.6,1.3,2.6,1.5,4.1-0.2c3-3.5,7.3-4.5,11.7-4.6c10.6-0.1,21.2-0.1,31.6,2.6c2.5,0.7,5.6-0.2,8.3-0.9c10-2.4,23.7,9.5,19.3,21.9
			c-3.6,10.1-5.6,12.7-16.5,13.5c-2.6,0.2-3.3,1.3-3.7,4.1c-0.9,7.7,0.8,15.5-1.7,23.1c-0.9,2.7,1.4,5.8-0.3,8.7
			c-0.2,0.3-0.1,0.7-0.2,1c-2.9,10.2-17.1,18.7-27.3,16.1c-3.6-0.9-6.2-1.1-9.2,1.9c-4.4,4.4-13.2,4.3-18.6,0.7
			c-1.2-0.8-2.4-1.8-3.7-2.5c-3.2-1.9-5.5-2.9-8.8,1.3c-5.2,6.5-16.4,7.9-23.7,0.3c-1.8-1.9-2.9-2.1-5.2-0.6
			c-5.5,3.6-11.4,3.9-17.5,1.4c-4-1.7-7.5-2.1-11.8,0.4c-4.8,2.8-10.4,4.9-16.5,3.3c-8.9-2.3-14-9-13.5-18.2
			C249.1,819.2,249.2,817.9,249.3,816.5z M328.4,800.5c3.7,3.6,8.5,4.5,10.7,8.8c1.1,2.1,2.9,3.4,4.6,5c3.7,3.4,8.7,4.1,12.5,7
			c1,0.7,1.8,2.7,3.1,1.1c1.1-1.2,2.7-3.5,0.7-4.8c-6.8-4.2-7.3-12.4-11.9-18c-1.3-1.6-1.9-4.2,0.1-5.4c4.1-2.4,5.1-6.4,6-10.4
			c1.7-7,1.1-13.6-4.1-19.4c-8-9.1-18.6-10.2-29.6-9.8c-5.1,0.2-8.7,3.9-8.1,7.5c0.7,4.7,0.9,9.5,2.1,14.2c1.1,4.4,1.5,9,2.3,13.5
			c1.9,10.2-2.9,21.6,5.4,30.8c1.1,1.2,1.4,3.8,3.5,3.5c2.2-0.4,1.1-2.7,1.3-4.3C327.7,813.8,325.8,807.4,328.4,800.5z M268.4,779.7
			c0.1,7.3-0.7,13.7-2.5,20.2c-2,7-2.3,14.3-2,21.6c0.1,1.2,0.4,2.3,1.6,2.8c2.6,1.1,10.1-3.1,10.1-6c0-5.4,1.8-10.3,3.6-15.3
			c1.7-4.8,5.4-2.4,7.9-2.6c2.2-0.2,4.2,2.6,3.7,4.9c-1,4.4,0.4,8.1,1.8,12c1.3,3.6,5,5.3,8.4,3.5c4-2.1,4.5-4.6,2.3-10.7
			c-1.3-3.5-3-7-2.9-10.9c0.1-5.5-1-10.8-2.4-16.1c-1.6-6-2.9-11.8-1.8-18.3c0.7-4.7-0.6-8.9-6.7-8.3c-2.2,0.2-4.1-0.9-6.1-1.9
			c-4.1-2-10.9,1.5-12.6,5.7C268.1,767,267.5,773.6,268.4,779.7z M379.1,808.2c0,3.4,0,5.4,0,7.4c0,1.2-0.1,2.4,1.4,2.8
			c1.3,0.3,2.7,0.7,3.6-0.7c2.9-4.1,8.9-6.6,6.8-13.3c-0.2-0.7,0.2-1.6,0.4-2.4c1.4-5.7,1.9-12,0.9-17.2c-1.2-6.1,3-9.9,3.2-15.1
			c0-0.7,1.3-1.9,2-2c4.4-0.2,7.9-3.7,12.4-3.2c1.9,0.2,3.3-0.2,3.4-2.4c0.2-2.4-1.4-3.4-3.4-3.4c-2.5,0-5,0.5-7.4,1.1
			c-1.8,0.4-3.5,0.6-5.4,0c-8.6-2.6-17.6-2.7-26.5-3.1c-2.2-0.1-4,0.3-4.2,3s-0.6,6,2.9,6.5c6.2,1,7.6,4.6,7.2,10.1
			c-0.2,2.8,1.1,5.6,1,8.4c-0.2,5.6,2.7,10.8,1.9,16.3C378.9,804,378.9,806.8,379.1,808.2z"/>
		<path class="st2" d="M229,704.1c2-12.9-2.7-25.2-2.7-38c0-3.5-3-3.6-5.2-4.4c-2-0.8-4.2-1-4.7-3.8c-0.8-4.2,0.4-6.1,4.6-6
			c7.9,0.2,16-0.1,23.7,1.9c2.6,0.7,2.9-2.1,5.1-2c8.9,0.5,17.9-0.1,26.6,2.4c1.9,0.6,3.5,1.1,3.9-1.8c0.4-3,3-2.9,5.1-2.5
			c3,0.6,6,0.7,8.9,0.5c3.8-0.3,5.1,1.7,4.1,4.8c-1.8,5.6,1.2,10.8,0.7,16.3c-0.1,0.9,0.2,2.1,1.6,2.1c1.1,0,2-0.8,2.2-1.7
			c1.1-4.3,3.8-8,3.1-12.9c-0.7-5.7,3.6-9.6,9.2-9.3c6.2,0.4,8.6,5.8,5.5,12.1c-2.4,5-4.5,10.2-7.6,14.9c-6,9.3-5.1,20.4-8.2,30.5
			c-0.1,0.3-0.2,0.7,0,1c3,5.5,0.1,7.6-4.8,9.4c-4.2,1.6-5.3,1.3-5.6-3.2c-0.5-10.8-2.1-21.4-4.2-32c-1.3-6.1-5.2-11.4-6.3-17.7
			c-0.3-1.6-1.7-3.3-4-3c-2.4,0.3-4,1.4-4.4,4c-0.3,2.3-1.3,4.4-2.6,6.4c-0.5,0.8-1.3,2-1.1,2.7c2.4,5.4-0.2,10.9,0.5,16.3
			c0.7,5-1.8,9.6-1.7,14.7c0,2.5-4.7,5.4-7.7,7.4c-1.5,1-3.7-0.4-3.4-2.9c0.6-4.5-0.8-9,0.2-13.4c1.2-5.7-1.9-10.8-1.8-16.4
			c0-4.6-1.6-9.2-1.4-13.9c0.2-4-2.9-4.6-5.7-4.8s-5.9,0.1-6.2,4c0,0.2,0,0.4-0.1,0.5c-4.6,8.5-2.1,17.8-2.9,26.7
			c-0.4,4.1-0.6,8.4-1.6,12.2c-0.8,3.2-4.9,5.8-8,8c-1.3,0.9-3.6-0.1-3.5-2.7C229.1,708.4,229,706.2,229,704.1z"/>
		<path class="st2" d="M161.6,692.9c0.4-11.1-0.3-19-3.1-26.9c-1.3-3.9-1.1-9.8,1.9-13c3-3.3,7.9-3.7,12.9-1.5
			c6.3,2.7,13.2,0.9,19.8,0.9c4.3,0,7.7,1.8,11.4,3c1.9,0.6,1.7,2.2,1.5,3.7c-0.3,1.6-1.5,2.5-2.9,2c-6.9-2.3-12.3,2.7-18.5,3.9
			c-4.8,0.9-7,7.1-5.1,11.4c0.7,1.6,1.7,2,3.3,2.5c5,1.6,10,2.5,15.4,1.9c2.5-0.3,6-0.5,6,3.4c0.1,3.6-2.9,4.6-6,4.5
			c-3-0.2-5.6,1.2-7.9,2.5c-2.9,1.6-5.7,2.5-9,2.4c-1.4,0-2.8-0.1-3.2,1.6c-0.4,1.5,0.5,2.2,1.5,3.3c3.9,4.3,9.7,2.1,14.2,4.4
			c4.3,2.2,9.4,3,14,4.7c1.1,0.4,3.2,0.9,2.7,3c-0.4,1.8-2,2.7-3.6,3s-3.3,0.4-5,0.3c-11.1-0.5-22.2-0.3-32.7,4.1
			c-3.9,1.7-5.1-0.3-5.4-3.7C162.8,706.1,160.9,698.2,161.6,692.9z"/>
		<path class="st2" d="M117.4,695.4c-3,7-0.7,13.5-1.8,19.8c-0.2,1.4,0.7,3.4-1.4,3.7c-1.7,0.3-2.1-1.6-3.1-2.7
			c-8.3-9.5-3.5-21.2-5.7-31.7c-0.9-4.2-1.2-8.4-1.9-12.6c-0.7-4-1.5-8.1-2.2-12.2c-1-5.8,3-11.5,8.7-10.7c6.3,0.8,12.9-0.1,19,2.9
			c10,4.9,18.6,14.8,13.2,28.7c-1.2,3-1.9,5.7-4.7,7.5c-2.1,1.4-2.3,3.8-1.1,5.2c3.1,3.7,3.9,8.4,6.2,12.3c1.3,2.2,2.9,4,5,5.5
			c2.2,1.5,2,3.7,0.8,5.3c-1.4,2.1-2.7,0-4-0.8c-2.7-1.6-5.5-2.9-8.3-4.3c-3.6-1.8-6.7-4.1-8.6-7.7
			C125.4,699.6,120.6,698.9,117.4,695.4z M117.9,675.1c-0.2,6.3-0.2,6.4,3.2,6.5c6.3,0.2,9.8-2.6,10.2-8.1c0.2-2.7-5.5-7.4-9.4-6.9
			C116.4,667.3,118.6,672.2,117.9,675.1z"/>
		<path class="st2" d="M55.9,695.7c1.6-9.6-3.3-18.5-3.3-27.9c0-3.8-1.1-7.5-1.5-11.3c-0.3-3.4,4.3-8,8.8-7.5
			c7.2,0.7,14.7-0.1,21.3,3.7c6.5,3.8,12.4,9,13,16.5c0.4,5.3,0.2,11.8-3.3,16.7c-2.2,3.1-6.3,4.7-10,4.2c-4.5-0.6-8.3,1.7-12.4,2.3
			c-3.3,0.5-3.6,5.6-3,9.1c0.8,5.2,0.8,10.3-0.1,15.4c-0.1,0.8,0.7,2.1-0.9,2.3c-1.3,0.2-2.1-0.6-2.9-1.6
			C56.1,711.3,54.9,703.8,55.9,695.7z M72,681.5c5.9,0,9.2-2.6,8.9-7c-0.3-4.8-4.6-8.4-9.5-8.2c-1.6,0.1-2.7,0.6-2.9,2.1
			c-0.4,3.6-0.8,7.2-0.7,10.9C67.8,682,70.2,681.5,72,681.5z"/>
		<path class="st2" d="M378.7,698c-1.3,5.2-2.4,9.3-3.3,13.5c-0.7,3.2-1.3,6.3-5.7,6.2c-4-0.1-6.8-1.5-6.7-6
			c0.2-12.4-3.7-24.1-5.8-36.1c-1.2-7-3.4-13.8-3.5-21.1c0-5.6,1.2-6.3,6.3-4.1c1.7,0.7,4,1.9,5.5,1.4c5.3-1.9,4.4,1.5,4,4.3
			c-1.7,10.2,1.5,20.4,0.1,30.5c1.9,0.5,2.9-0.6,2.9-1.5c0.6-6.4,4.2-12.2,3.5-19c-0.3-3.5,0.5-7.4,4.6-9.1c1.8-0.8,3-0.7,3.3,1.9
			c0.9,7.5,2,15.1,3.1,22.6c0.2,1.1-0.3,2.7,1.3,2.9c1.5,0.2,1.8-1.4,2-2.4c0.7-3.6,2.1-7.4,1.5-10.8c-1.1-5.7,0.2-10.9,1.4-16.2
			c0.8-3.4,4.6-5.2,7.2-4.8c2.4,0.4,6.8,1.1,5.4,6.7c-2.1,8.7-4.4,17.3-6.1,26c-1.7,8.5-3.9,17.1-4.8,25.8c-0.2,1.5-0.9,2.9-1.1,4.3
			c-0.5,3.6-2.2,5-6.1,4.5c-4.2-0.6-6.1-2.7-5.4-6.6C383.4,706.3,382.3,702.5,378.7,698z"/>
		<path class="st2" d="M571.5,648.3c3.5-0.1,6.9,0.1,10.4,0.4c7.2,0.5,18.6,9.6,20,16.7c1.3,6.4,2.5,12.9,2.8,19.3
			c0.2,3.4-0.4,7.5-3.8,10c-1.1,0.8-1.5,2-1.6,3c-0.5,6.7-4.3,10.4-10.1,13.1c-2.7,1.2-4.2,4.2-6.9,5.9c-4.4,2.7-12.2,2.5-15.5-2.4
			c-1-1.4-1.9-2.7-1.6-4.5c1.6-8.2-0.4-16.3-0.6-24.5c-0.1-6.2-1.4-12.5-2.8-18.6c-1-4.2-0.2-8.4-1.2-12.6c-0.7-2.7,2.7-4.6,5.5-5.4
			C567.8,648.3,569.7,648.4,571.5,648.3z M588,678.3c-0.1-7.4-1-9.1-6.4-11.3c-2.5-1-6.5-1.5-6.3,2.1c0.5,7.1,0.5,14.2,0.9,21.2
			c0.1,2.6,2,2.5,3.5,1.5C584.9,688.5,589,684.3,588,678.3z"/>
		<path class="st2" d="M455.6,713.7c-9.8-0.4-19.5,0.2-28.7,3.9c-4.1,1.7-5.3,0.5-6.1-3.9c-2-11.6-1.6-23.3-1.8-35
			c0-1.6-0.3-3.4-1-4.9c-2.5-5.9-2.3-12-1.8-18.2c0.3-3.4,6.6-7.2,10.7-5.4c7.1,3.1,14.4,2.2,21.7,2c4.5-0.1,8.5,1.1,12.5,2.5
			c2.1,0.7,2.9,2,2.3,4.2s-2.1,2.4-3.9,1.9c-7.2-1.8-13.1,2.6-19.2,4.9c-4.1,1.5-4.9,6.1-3.4,10.6c0.6,1.9,1.8,1.8,3.2,2.3
			c5.3,2.2,10.8,2.1,16.4,1.9c2.5-0.1,5.1,0.3,5.1,3.4c0,3-2.2,4.4-5.1,4.4c-3.8-0.1-7.1,1.4-10.2,3.3c-2.6,1.6-5.4,1.6-8.2,1.6
			c-1.3,0-2.3,0.3-2.8,1.6c-0.6,1.5,0.4,2.2,1.4,3.3c3.9,4,9.4,2.3,13.8,4.4c3.7,1.7,7.8,2.8,12,3.4c2.3,0.4,5.4,1.7,5.1,4.4
			c-0.3,2.8-3.4,3.2-6,3.3C459.6,713.8,457.6,713.7,455.6,713.7z"/>
		<path class="st2" d="M520.7,695.1c-2.7,7.2-0.6,13.8-1.6,20.2c-0.2,1.4,0.6,3.5-1.4,3.7c-1.5,0.2-1.9-2-2.9-3
			c-7.1-7.3-4.1-16.5-5.2-24.9c-1.3-10.8-3.1-21.4-4.6-32.2c-0.8-6.1,4.5-10.8,10.6-9.7c1.6,0.3,3.3,0.4,4.9,0.5
			c12.7,0.1,21.9,6.4,26.3,18.1c1.8,4.7-0.9,16.7-4.8,19.6c-3.2,2.4-3.2,4.9-1.2,7.7c4,5.5,4.8,13.2,11.3,17.2
			c1.6,1,0.8,3.1-0.3,4.4c-1.3,1.5-2.4,0.5-3.3-0.5c-2.3-2.7-6-2.7-8.7-4.6c-3.4-2.4-7-4.3-8.9-8.2
			C528.9,699.3,524,698.8,520.7,695.1z M524.9,681.5c6.8-0.1,10.1-3,10.1-8.4c0-2.5-6.5-7.5-9.8-6.6c-6.5,1.7-2.6,7.7-3.9,11.6
			C520.4,681.1,522.6,681.9,524.9,681.5z"/>
		<path class="st2" d="M484.3,708.2c1.2-5.7,0.3-10.5-2.2-15c-1.3-2.3-1.6-5.1-0.7-7.3c3.6-8.1,1.2-16.2,0.3-24.3
			c-0.3-3.1,0.8-6-0.3-9.2c-0.6-1.9,1.4-3.6,3.7-3.7c5-0.2,9.7,1.8,13.7,3.9c3,1.5,1.9,6.6,0.4,9.6c-2.2,4.8-2.6,9.8-2.1,14.7
			c1.1,9.5-0.8,18.6-2.6,27.8c-0.3,1.7,0.7,2,1.3,2.8c1.9,2.6,1.6,5.2-0.8,7s-5,3.3-6.9,5.9c-1.2,1.6-3.1,1.1-3.3-1.4
			C484.8,715.3,484.5,711.5,484.3,708.2z"/>
		<path class="st2" d="M328.4,800.5c-2.6,6.8-0.7,13.2-1.5,19.4c-0.2,1.5,0.9,3.9-1.3,4.3c-2,0.3-2.3-2.3-3.5-3.5
			c-8.3-9.2-3.5-20.6-5.4-30.8c-0.8-4.5-1.2-9.1-2.3-13.5c-1.2-4.7-1.3-9.5-2.1-14.2c-0.6-3.6,3-7.4,8.1-7.5
			c11-0.4,21.6,0.7,29.6,9.8c5.2,5.8,5.8,12.4,4.1,19.4c-0.9,4-1.9,7.9-6,10.4c-1.9,1.1-1.4,3.7-0.1,5.4c4.6,5.6,5.1,13.8,11.9,18
			c2.1,1.3,0.4,3.5-0.7,4.8c-1.3,1.6-2.2-0.4-3.1-1.1c-3.8-2.9-8.8-3.6-12.5-7c-1.7-1.6-3.6-2.9-4.6-5
			C336.9,805.1,332.1,804.2,328.4,800.5z M329.1,780.7c0.2,2.8-1.4,5.9,3.2,6c6.4,0.2,10.1-2.6,10.5-8.2c0.2-2.4-6-7.3-9.7-6.8
			C327.1,772.5,330.6,778,329.1,780.7z"/>
		<path class="st2" d="M268.4,779.7c-0.8-6.1-0.2-12.7,2.4-19.2c1.7-4.2,8.5-7.7,12.6-5.7c2,1,3.9,2.1,6.1,1.9
			c6.1-0.5,7.5,3.7,6.7,8.3c-1,6.4,0.2,12.2,1.8,18.3c1.4,5.2,2.5,10.6,2.4,16.1c-0.1,3.9,1.7,7.4,2.9,10.9c2.2,6,1.7,8.5-2.3,10.7
			c-3.4,1.8-7.1,0-8.4-3.5c-1.5-3.9-2.9-7.6-1.8-12c0.5-2.3-1.5-5.1-3.7-4.9c-2.6,0.3-6.2-2.2-7.9,2.6c-1.8,5-3.5,9.9-3.6,15.3
			c0,2.8-7.5,7-10.1,6c-1.3-0.5-1.6-1.6-1.6-2.8c-0.3-7.3,0-14.6,2-21.6C267.7,793.5,268.4,787.1,268.4,779.7z M285.5,771.9
			c-2,3.2-2.7,6.5-2.6,10.1c0.1,2.1,1.3,2.9,3.3,2.7c1.7-0.2,2.7-0.6,2.7-2.7C288.8,778.3,289,774.7,285.5,771.9z"/>
		<path class="st2" d="M379.1,808.2c-0.1-1.4-0.1-4.2,0.3-7.1c0.8-5.6-2.1-10.8-1.9-16.3c0.1-2.8-1.2-5.6-1-8.4
			c0.4-5.6-1-9.2-7.2-10.1c-3.5-0.5-3.1-3.8-2.9-6.5s2-3.1,4.2-3c8.9,0.4,17.9,0.5,26.5,3.1c1.9,0.6,3.5,0.4,5.4,0
			c2.4-0.6,4.9-1,7.4-1.1c1.9,0,3.5,1,3.4,3.4c-0.2,2.3-1.5,2.6-3.4,2.4c-4.5-0.5-8,2.9-12.4,3.2c-0.7,0-2,1.3-2,2
			c-0.2,5.1-4.4,8.9-3.2,15.1c1,5.2,0.5,11.5-0.9,17.2c-0.2,0.8-0.7,1.7-0.4,2.4c2.1,6.7-3.9,9.2-6.8,13.3c-1,1.4-2.4,1-3.6,0.7
			c-1.5-0.4-1.4-1.6-1.4-2.8C379.1,813.6,379.1,811.6,379.1,808.2z"/>
		<path class="st1" d="M117.9,675.1c0.7-2.8-1.5-7.7,4-8.4c3.9-0.5,9.5,4.2,9.4,6.9c-0.3,5.5-3.9,8.3-10.2,8.1
			C117.7,681.5,117.7,681.4,117.9,675.1z"/>
		<path class="st1" d="M72,681.5c-1.8-0.1-4.2,0.4-4.2-2.2c-0.1-3.6,0.3-7.2,0.7-10.9c0.2-1.4,1.3-2,2.9-2.1
			c4.9-0.2,9.3,3.4,9.5,8.2C81.2,679,77.9,681.5,72,681.5z"/>
		<path class="st1" d="M588,678.3c1,6.1-3.1,10.2-8.2,13.6c-1.6,1-3.4,1.1-3.5-1.5c-0.4-7.1-0.4-14.2-0.9-21.2
			c-0.2-3.6,3.7-3.1,6.3-2.1C587,669.2,587.9,670.9,588,678.3z"/>
		<path class="st1" d="M524.9,681.5c-2.3,0.3-4.6-0.5-3.6-3.4c1.3-3.9-2.6-9.9,3.9-11.6c3.3-0.9,9.8,4.1,9.8,6.6
			C535,678.6,531.7,681.4,524.9,681.5z"/>
		<path class="st1" d="M329.1,780.7c1.5-2.7-2-8.2,4-9c3.7-0.5,9.8,4.4,9.7,6.8c-0.4,5.6-4.1,8.4-10.5,8.2
			C327.6,786.7,329.3,783.5,329.1,780.7z"/>
		<path class="st1" d="M285.5,771.9c3.5,2.7,3.3,6.4,3.4,10.1c0.1,2.1-1,2.5-2.7,2.7c-2,0.2-3.3-0.6-3.3-2.7
			C282.8,778.5,283.5,775.1,285.5,771.9z"/>
	</g>
</g>
<g id="HO1ANE_1_">
	<g>
		<path class="st3" d="M451.3,499.7c-0.4,6,0.5,11.8,1.5,17.7c1.9,11.4,0.9,22.9,2.3,34.3c1.3,10.6,2.3,21.1,1.9,31.8
			c-0.3,8.4-1.5,16.6-2.1,25c-0.8,10.2-3.1,12.1-13.4,12.2c-16.6,0.2-33.2-0.8-49.6-3.1c-8.7-1.2-17.5,0.4-26.1,1.5
			c-10.9,1.4-21.8,0.7-32.6,0.3c-9.3-0.4-18.7-0.2-27.9-1.1c-14.1-1.4-28.2-1.1-42.2-1.5c-7.8-0.2-15.8,0.2-23.6,1
			c-13.8,1.4-26.9-1-39.4-6.8c-5.3-2.5-7.9-7-8.4-12.5c-1.2-14.3-2.7-28.5,0.6-43.1c3-13.5,2.6-27.7,2.6-42.4
			c-5.1,5.6-9.9,10.4-14.1,15.9c-5.2,6.7-10.8,13-15.3,20.3c-3.1,4.9-4.2,10.7-7.3,15.5c-0.6,1,0,1.9,0.5,2.7c1.1,1.7,2.2,3.4,3.5,5
			c6.4,7.5,6,15.6,2.9,24.2c-3.9,10.4-11.5,18.1-19.3,25.5c-6.4,6.2-14.9,6.9-23.5,6.2c-12.1-1-23.8-4.8-36-5.1
			c-4.7-0.1-9.4-1.7-13.6-4c-4.8-2.7-7.2-6.8-7.4-12.2c-0.1-2.9-0.2-5.7,0-8.6c0.1-2.4-0.8-2.9-3-2.1c-3.8,1.4-7.7,1.6-11.7,1.2
			c-5.2-0.6-9.6-2.9-11.9-7.6c-7.1-14.5-11.5-29.8-11.3-46.1c0.1-4.9,0.8-9.9,2.9-14.3c2.7-5.6,7.5-9.5,12.9-12.5
			c6.1-3.4,12.5-5.9,19.4-7.1c2.3-0.4,4.7-1.1,6.6-2.6c12.5-9.5,24.4-8.8,36.6,1c2.9,2.4,4.4,1.6,6.6-0.7
			c7.6-7.7,12.5-17.5,19.7-25.4c6.4-7,10.7-15.6,16.8-22.8c7.6-9.1,16.8-16.6,25.6-24.5c2-1.8,2.8-2.7-0.1-4.3
			c-8.1-4.5-15.4-10-21.1-17.5c-1.6-2.1-3-1.9-5-0.6c-8,5-15.6,10.5-24.3,14.4c-2.2,1-4,3-5.9,4.6c-8.6,7.2-19.5,6.3-26.6-2.3
			c-4.5-5.5-8-11.6-10.7-18.1C76,399.8,71,389,67,377.8c-9.5-26.6-19.7-53.1-26.6-80.5c-3.2-12.5-5.8-25.1-8.5-37.7
			c-3.4-15.8-9.7-30.7-13.6-46.4c-4-16.2-8.5-32.4-7-49.4c0.3-3.1,0.8-5.9,4-7.4c3.9-1.8,6.5-1.3,9.9,3c4.2,5.2,9.2,9.8,13.5,14.8
			c7,8.1,15.6,14.1,24.1,20.1c8.2,5.8,15.1,12.8,22.2,19.8c12,11.8,24.3,23.3,37.3,34c5.3,4.3,10.9,8.2,16.9,10.8
			c-5.2-30.3,1.2-55.7,29.5-72.6c-5.5-6.3-13-10.3-20-15.1c-3.8-2.6-8-4.8-12.3-6.6c-8.7-3.5-15.7-9.5-22.6-15.5
			c-5.4-4.7-11.5-4.8-17.9-3.1c-4,1.1-7.9,2.8-11.8,4.2c-11.6,4.2-23.3,0.9-31.2-8.4c-6.2-7.3-11.6-15.2-17.5-22.7
			c-6.7-8.5-5.2-21.5,1.4-28.3c4.3-4.5,9.2-8.2,14.5-11.5c7.4-4.7,14.5-10,21.4-15.6c4.8-3.9,9.6-7.5,16.1-7.6c1.4,0,2.4-0.5,3-2.1
			c1.2-3.7,3.9-6.4,6.9-8.5c10.3-7.4,20.6-14.7,30.5-22.6c3.5-2.8,6.7-6.1,10.6-8.5c9.7-6.1,19.5-3.8,26.1,5.5
			c8.2,11.5,16.6,22.8,21.8,36c4.2,10.8,4.1,21.4-2.9,31.3c-3,4.2-5.9,8.4-8.9,12.5c-0.9,1.2-0.7,1.7,0.4,2.5
			c11.2,8.4,19.4,19.7,28.8,29.9c10.2,11.2,20.2,22.7,32.2,32.1c1.1,0.8,2,1.6,3.5,1.1c7.8-2.4,15.8-3.5,23.9-4.4
			c18.3-2,36.6-4.8,54.9-5.1c23.7-0.4,47.6-1.2,71.2,2.4c5.9,0.9,11.7,2.3,17.5,3.7c1.8,0.5,2.5,0,3.5-1.3
			c11.5-15.7,23.6-30.9,34.6-47c4.4-6.4,7.5-13.6,11.3-20.4c0.8-1.5,0.4-2.8-0.5-4c-3.7-5.2-5.6-11.3-8.7-16.8
			c-4.7-8.4-2.1-17.7,6.2-22.5c8.4-4.9,17.9-6.6,27.2-8.5c9.3-1.9,18.7-3.2,28.4-3.2c10.6,0,20.8,5.8,22.8,19.2
			c1.3,8.3,3.8,16.3,4.1,24.7c0.1,1.8,0.9,1.7,2.3,1.6c3.4-0.2,6.4-1.7,9.8-1.8c11.2-0.6,21.1,2.9,30.1,9.3c3.7,2.7,5.2,7,5.4,11.3
			c0.7,12.8,0.3,25.6-2.7,38.1c-3.1,13-9.6,17.3-21.7,17.9c-10.5,0.5-21.3,1-31.5-2.9c-1.8-0.7-2.7,0.3-3.7,1.3
			c-4.4,4.7-9,9.3-13,14.3c-6.6,8.4-14.1,15.9-21.5,23.5c-2.5,2.5-3.2,4.9-1.5,8.3c4.2,8.2,4.9,17.1,4.3,26.2
			c-0.5,7.9-1,15.7-2.7,23.8c3.5-1.7,5.5-4.4,8.2-6.4c14.2-10.6,28.4-21.1,41.9-32.4c12.4-10.4,25.2-20.3,35.6-32.6
			c5.9-7,11.5-14.4,18.3-20.6c1.2-1.1,2.4-2.4,3.8-3.3c2.7-1.7,5.6-3.2,8.7-1.5c3.2,1.7,4.4,4.8,4.4,8.5c0.1,9.7-0.8,19.3-2.5,28.9
			c-4.5,25.3-8.7,50.6-13.5,75.8c-4,21-9.5,41.6-16.2,61.9c-7.5,22.5-13.8,45.4-20.4,68.2c-1.4,4.9-4,9.1-7.2,13.1
			c-2.5,3.1-5.9,4.2-9.7,4.5c-10.5,1.1-20.5-0.8-30.1-4.9c-6.7-2.9-13.9-4.4-20.7-7.4c-1.1,3-1,6-1.4,8.8c-1,7.3-4.5,12.8-11.5,15.6
			c-2.6,1-2.5,1.9-0.9,3.9c5.3,6.1,11.8,10.8,17.3,16.6c6.8,7.1,12.6,15,19.6,21.8c3.5,3.4,7.7,5.9,11.7,8.8
			c5.9,4.3,12,8.3,17.4,13.2c5.1,4.6,10.3,5.5,16,2.5c8.2-4.2,16.9-3.8,25.6-3.3c4.6,0.3,8.7,2.7,12.4,5.4
			c5.3,3.7,10.3,7.8,14.4,12.8c3.6,4.4,8.3,7.8,11.1,13c3.1,5.7,5.5,11.7,7.6,17.7c2.3,6.6-0.3,12.7-3,18.6
			c-2.6,5.5-5.6,10.9-9.1,15.8c-3.6,5-8.4,6.1-14.5,5.3c-9.9-1.3-18.8-5.8-29-8.5c2.6,3.7,4.3,7.2,5.1,11.2
			c0.9,4.5,0.4,8.6-2.2,12.3c-5.3,7.4-11.2,14.2-19.3,18.8c-5.9,3.3-11.4,7.3-17.5,10.3c-4.6,2.2-11.6,1.4-16.2-3.1
			c-4.3-4-8.5-8.1-13.2-11.5c-8.9-6.5-10.9-15.1-8.3-25.4c0.9-3.5,1.6-7,2.8-10.4c0.9-2.7,0.2-4.6-1.5-6.8
			c-9-11.6-20.1-21.5-28.3-33.8c-7.7-11.6-17.4-21.9-24.1-34.2C451.9,500,451.5,499.9,451.3,499.7c-0.2-0.3-0.3-0.6-0.3-1
			c-0.1,0.1-0.2,0.2-0.2,0.3C450.8,499.3,450.5,499.9,451.3,499.7z M422.8,494.1c0.8-0.4,0.8-0.9,0.7-1.3c-3.3-17-3.7-34.2-2.7-51.4
			c0.3-4.9,1.5-9.5,5.8-12.1c4.9-3.1,9.7-6.6,14.8-9.2c10.1-5.2,19-11.8,26.6-20.2c1.6-1.8,2.4-3.7,2.4-6.1
			c0.1-5.6-1.4-11.2-1.4-16.7c0-6.5-0.1-13.1,0.1-19.6c0.4-13.6,0.2-27.2-0.1-40.9c-0.5-23.2,0.3-46.4-0.7-69.6
			c-0.6-14.3-3-28.2-7-41.9c-0.7-2.5-1.7-5.3-4.6-6c-6.3-1.4-12.6-2.5-18.9-3.7c-0.4-0.1-0.9,0.2-1.4,0.4c-2.1,0.8-4.2,0.8-6.3,0.5
			c-4.5-0.5-9-1.3-13.5-1.2c-31,0.4-61.9-2.1-92.8-1.4c-7.1,0.2-7.1,0-3.7,6.4c0.9,1.7,1.7,3.4,2.6,5.1c4.8,9.2,8.5,18.9,12.4,28.5
			c2.2,5.4,5,10.6,7.5,15.9c1.1,2.2,1.3,4.6-0.8,6.2c-5.5,4.4-9.5,10.1-12.9,16.1c-7.1,12.7-18.3,22.7-24.1,36.2
			c-0.7,1.7-0.9,2.8,0.2,4.2c4.6,6,8.2,12.6,11.6,19.3c3.2,6.3,7.6,11.9,9.6,18.7c0.6,1.9,0.9,3.8-0.5,5.5
			c-3.9,4.6-6.9,10.1-10.9,14.6c-3,3.4-4,6.5-2.4,10.6c1.1,2.8,0.5,6.1,2.8,8.7c6.6,7.5,12,15.8,16.2,24.8c3.2,7,5.7,14.4,8.6,21.6
			c2.4,5.8,5.4,11.5,7.7,17.3c2.9,7.3-1.5,13.7-9.3,13.8c-3.5,0-6.9,0-10.4-0.1c-2.2-0.1-2.8,0.6-1.7,2.7c3,5.8,5.7,11.7,11.3,15.8
			c3.3,2.4,5.4,6,7.3,9.6c1.6,2.9,2.8,5.9,5.2,8.9c2.2-6,6.5-10.2,9.3-15.3c4.7-8.6,12.5-13,21.4-15.5c12.2-3.4,32.5-0.1,38.5,16.5
			C420,491.7,421.5,492.9,422.8,494.1z M270.1,505.9c0.5-0.4,1.1-0.7,1.4-1.2c3.6-5.5,7.4-11,10.8-16.7c5.2-8.8,13.1-12.6,23-12.7
			c4.4-0.1,8.8-0.3,13.2,0.7c-1.3-6.4-3.2-8.2-9.2-8.1c-5.1,0.1-10.3,0-15.4,0.6c-6.4,0.8-10.2-4-8.4-10.2c1-3.7,2.4-7.3,3.1-11
			c3.4-17.8,8.8-34.9,15.2-51.8c0.5-1.4,0.8-2.7,0.1-4.1c-2.1-4.2-3-8.8-4.4-13.2c-1.4-4.6-0.4-8.3,2.2-12.1
			c3.5-5.2,7.4-10,11.5-14.6c1.3-1.5,2.7-3.1,1-5.3c-7.8-10.1-11.5-22.5-19.4-32.6c-2.3-2.9-2.5-6.8-0.5-9.9
			c4-6.2,6.7-12.9,10.2-19.3c5.5-9.6,12.6-17.9,20.3-25.9c3.3-3.4,3.9-7,2-11.4c-3.2-7.5-6.9-14.7-11-21.7c-2.3-4-5-8-5.8-12.7
			c-1.1-6.7-4.6-12.5-6.6-18.8c-0.4-1.1-1.1-1.4-2.1-1.5c-9.3-0.8-18.6-1.2-27.9-0.2c-8.7,0.9-17.2,2.7-25.8,3.9
			c-14.4,2-29,2.4-43.3,5.7c-12.2,2.8-22.4,8.7-30.9,17.7c-4.2,4.5-7.4,9.7-8,16.1c-0.6,7.3-1.3,14.5-1.3,21.8
			c0,16.6,0.2,33.2-0.4,49.8c-0.6,16.5,0.2,33,1.4,49.4c0.8,11.6,4.4,22.7,6.6,34.1c1.6,8,6,12.7,13.8,15.1
			c8.5,2.7,17.5,4.7,24.4,11.2c0.5,0.4,1.3,0.5,2,0.6c6.5,1.1,9.4,3.9,10.4,10.4c1.5,9.2-0.2,18.4-0.7,27.5
			c-0.3,6.1-1,12.2-1.5,18.2c6.5-7.5,15-8.2,23.8-8.4c5.6-0.2,9.9,2.3,13.4,6.3c2.2,2.5,3.7,5.6,5.2,8.6
			C266.7,488.1,267.3,497.2,270.1,505.9z M145,294.8c0-2.5,0-5,0-7.5c0-1.5-0.4-2.5-1.8-3.2c-11.1-5.3-20.6-12.8-30.4-20
			c-7.6-5.6-13.5-13.2-21.3-18.5c-9-6.2-16.2-14.3-24.3-21.6c-9.9-9-19.8-17.9-30.4-26c-0.6-0.5-1.1-1.5-2.1-0.8
			c-0.6,0.5-0.1,1.4,0.1,2c4.9,15.6,8.7,31.5,13,47.3c5.8,21.2,13,42,20,62.7c7.7,22.6,14.9,45.3,23.8,67.5
			c4.4,11.1,6.6,22.9,12.4,33.5c1.2,2.2,1.9,2.5,3.9,0.9c6.6-5.3,13.1-10.8,20.4-15.2c5.1-3.1,10-6.4,14.7-10.1
			c5-3.9,6.6-7.7,5-14.2c-3.5-13.6-2.9-27.7-3.5-41.7C144,318.3,144.4,306.5,145,294.8z M486.3,361.3c0,10.7,0,10.7,7.8,14.9
			c0.5,0.3,1,0.6,1.5,0.9c12.1,6.6,23.6,14.4,37.3,17.5c2.6,0.6,3.6,0.1,4.4-2.4c3.2-9.5,6.3-19,10-28.3c7-17.7,14.1-35.2,18-53.9
			c2.4-11.4,4.6-23,7.7-34.2c2.5-9.3,5.6-18.5,7.4-28c3.2-16.3,7.5-32.3,11.8-48.4c0.3-1,1.5-2.4,0-3.2c-1.1-0.6-1.8,0.9-2.6,1.5
			c-6.8,5.5-12,12.6-18.9,18c-12.2,9.4-23.7,19.6-36,28.9c-9.7,7.3-18,16.4-28.5,22.8c-5.7,3.5-10.4,8.4-17,10.4
			c-1.8,0.6-1.6,2.1-1.6,3.6C487.3,308.6,488.1,335.9,486.3,361.3z M153.2,140c2.5,0.1,3.5,0.9,4.5,1.7c10.2,8.5,21.5,15.8,31,25.1
			c2.3,2.3,5.4,3.9,8.3,5.6c1.5,0.9,3.6,0.9,4.5-0.6c0.9-1.4-1.1-2-2-2.8c-11.4-10.6-22.3-22-34.6-31.6c-0.7-0.5-1.9-1.3-1.1-2.3
			c0.8-1.2,1.9-0.4,2.8,0.2c5.2,3.8,10.2,7.8,14.9,12.3c8.1,7.6,16.2,15.1,24.4,22.7c0.8,0.7,1.8,1.7,2.7,0.6
			c0.7-0.9-0.4-1.7-1.1-2.3c-15.1-14.3-30-28.7-43.5-44.5c-5-5.9-11-10.9-14.6-18c-1.5-3.1-1.5-6,0.1-8.9c1.4-2.6,3-5.2,4.5-7.7
			c4.3-6.9,10.8-11.7,16.2-17.5c2.1-2.3,2.4-4.2,0.9-7c-5.8-10.1-13.8-18.6-20.3-28.2c-1-1.5-2-1.1-3.3-0.5
			c-11.4,5.6-21.9,12.5-31.7,20.6c-1.9,1.5-2.7,3.2-2.6,5.5c0.1,5.1-0.1,10.3,0.1,15.4c0.1,3.7-0.9,6.8-4.2,8.5
			c-3.5,1.8-7,0.9-10-1.5c-2.5-2-5-4.1-7.4-6.2c-1.6-1.4-2.9-1.4-4.7,0.1c-2.6,2.3-5.5,4.2-8.3,6.2c-8.7,6.2-18,11.9-25.7,19.7
			c-1.3,1.3-2.3,2.3-0.6,4.1c5.6,6.2,11.2,12.4,16.6,18.7c1.5,1.7,2.9,2.1,5,1.4c8.4-3.1,17.4-4.1,26.1-6.1c7-1.6,14.1-0.8,19.5,5
			c5.9,6.4,13.2,11.3,19.9,16.9c12.6,10.5,25.7,20.6,38.3,31.2c0.8,0.7,1.7,1.3,2.6,2c1.5,1.1,2.7,0,3.5-0.8
			c1.2-1.3-0.4-1.6-1.2-2.2c-3.2-2.5-6.6-4.7-9.3-7.8c-3.7-4.1-8.2-7.1-12.5-10.3c-2.2-1.6-4.1-3.6-6.1-5.5
			c-0.7-0.7-1.5-1.6-0.7-2.4c0.8-0.9,1.7-0.1,2.5,0.6c6.8,5.9,14.4,10.9,20.8,17.3c2.9,2.9,6,5.3,9.5,7.3c1.7,1,3.6,1.8,4.8,0.1
			c1.3-1.8-1.2-2.8-2.1-3.4c-8.5-6.6-16.4-14.1-25.3-20.2C160.3,147.6,156.6,144.4,153.2,140z M144.3,525.1
			c-0.5-0.6-0.3-1.1-0.1-1.5c4.6-9,10.9-17,18.2-23.7c9.3-8.5,17.3-18.2,25.8-27.4c1.6-1.7,1.3-3.9,0.1-5.2
			c-1.7-1.7-2.8,0.7-3.6,1.6c-3,3.3-5.4,7.3-8.6,10.4c-13.2,13-25.6,26.9-38.6,40.2c-0.8,0.8-1.6,2.4-2.8,1.2
			c-1.1-1.1,0.3-2.1,1.1-3c9.8-10.5,19.3-21.1,29.4-31.3c7-7,13.7-14.3,20-22c1.1-1.4,2.3-3.2,0.7-4.4c-2-1.6-2.4,1.2-3.2,2.1
			c-10.9,12.2-22.4,23.8-34.5,34.8c-8.9,8.1-18,15.9-25.6,25.4c-4.2,5.2-7.6,11-12.6,15.5c-4.1,3.7-8.2,3.8-12.5,0.3
			c-3.4-2.7-5.9-6-7.2-10.1c-1.1-3.6-2.9-3.6-5.8-2.2c-6,2.9-12.4,4.9-18.7,7.3c-5.4,2.1-11.1,2.7-16.6,4.3c-2,0.6-2.9,1.5-2.2,3.6
			c3.8,10.7,5.8,21.9,8.2,33c0.5,2.2,1.4,2.6,3.5,2c5.5-1.5,11.1-2.8,16.7-3.9c7.8-1.5,13.5,4.8,11.8,12.5c-1,4.3-2,8.6-2.4,13
			c-0.6,5.5-0.3,5.7,5.1,6.9c11.2,2.5,22.7,3.4,33.8,6.1c3.1,0.8,5.2-0.2,7.2-2.6c5.6-6.5,9.9-14,15.2-20.8c1.2-1.5,0.6-2.5-1-3.4
			c-3.6-2.2-6.4-5.4-9.2-8.5c-5.7-6.2-6.5-11.7-3.2-18.3c8.4-17,20.1-31.8,31.8-46.6c8.3-10.5,17.8-19.9,26.7-29.9
			c1.7-1.9,2.1-4.1,0.2-5.6c-1.9-1.5-2.8,1-3.7,2.1c-5.3,5.8-9.9,12.2-15.6,17.6c-9.2,8.6-17.3,18-24.7,28.1
			C146.3,523.7,146,525,144.3,525.1z M575.4,547.7c2.1-0.1,4,0.4,5.7,1.8c4.6,3.6,9.2,7.2,13.8,10.9c1.2,0.9,2.1,1.6,3.4,0.5
			c5-4.1,10.3-7.8,14.7-12.5c1.5-1.6,1.4-2.7-0.2-4.2c-8.3-7.8-15.1-16.9-21.4-26.3c-2.1-3.1-4.5-4-7.9-2.6
			c-3.8,1.5-7.5,3.2-11.5,3.9c-5.7,0.9-11.3,2.5-16.1,5.6c-5,3.3-9.5,2.2-14-0.6c-1.7-1.1-3.3-2.4-4.8-3.7
			c-14.8-12.1-26.4-27.4-41.1-39.7c-6.1-5.1-10.8-11.7-16.5-17.2c-3.8-3.7-6.7-8.1-10.8-11.4c-1.5-1.2-2.3-4.6-4.4-2.9
			c-1.3,1.1,1.3,3.5,2.8,4.9c6.2,5.6,12.1,11.5,17.8,17.6c6.6,7.1,13.6,14,20.3,21c0.6,0.7,1.7,1.6,1,2.4c-0.9,1.1-1.9,0-2.7-0.7
			c-1.1-0.9-2.2-1.8-3.2-2.8c-6.9-6.6-13.3-13.7-19.8-20.7c-4.3-4.7-8.7-9.2-13.1-13.7c-0.6-0.6-1.2-1.4-2.1-0.8
			c-0.9,0.7-0.7,1.7-0.2,2.6c0.4,0.7,1,1.3,1.6,1.9c2.9,3,5.8,6,8.7,9c8.2,8.4,15.3,17.7,22.9,26.5c0.8,0.9,2.5,1.8,1.1,3.2
			c-1.3,1.3-2.3-0.4-3.3-1.1c-0.5-0.3-0.8-0.9-1.1-1.4c-9.5-11.2-18.8-22.5-29.1-33c-0.7-0.7-1.3-2-2.5-1.7c-1.5,0.4-1.5,2-2,3.2
			s0.6,1.9,1.3,2.7c9.9,10.8,18.9,22.5,29.5,32.7c0.7,0.6,1.7,1.3,0.9,2.4c-0.7,1-1.8,0.4-2.6-0.2c-3-2-5.6-4.4-8-7.1
			c-7.2-8.3-14.4-16.6-21.7-24.8c-0.6-0.7-1.2-2.1-2.5-0.9c-0.9,0.9-1.5,1.9-0.7,3.2c0.3,0.5,0.7,1,1,1.5
			c11.3,16.1,26.7,28.9,36.8,46c0.1,0.1,0.2,0.2,0.2,0.3c10.4,13.1,20.9,26.1,31.3,39.2c2.4,3,3.3,6.7,1.8,10.5
			c-2.9,7.2-5.8,14.4-9,21.4c-1.3,2.8-0.5,4.1,1.8,5.4c4.5,2.7,9.1,5.3,13.5,8.1c2.1,1.4,3.4,1,4.7-0.8c3.3-4.5,7.5-8,11.8-11.5
			c3.3-2.7,6.7-5.3,10.1-8c2-1.6,2.3-3,0.4-5c-3-3.4-5.6-7.1-7.7-11.2c-3.1-6.1-3.5-12.2,4.5-15.6c3.2-1.3,6.4-2.8,9.4-4.4
			C570.5,548.2,572.9,547.9,575.4,547.7z M488.8,138.4c0.2,1.6-0.8,2.4-1.6,3.2c-9.6,10.9-17.8,22.9-26.8,34.3
			c-2.5,3.2,1.5,3.9,2.7,5.5c1.5,2,2.3-0.3,3-1.4c6.6-10,13.8-19.5,21.6-28.5c1.9-2.2,3.7-4.6,6.7-5.6c0.9,1.8-0.6,2.6-1.3,3.5
			c-8.4,10.8-16.8,21.6-25.2,32.4c-0.5,0.7-1.8,1.4-0.7,2.4c1.2,1,1.9-0.2,2.6-1c1.4-1.7,2.7-3.6,4.3-5.3
			c9.9-10.3,19.8-20.7,29.8-30.9c4.5-4.5,8.4-10.2,15.3-11.2c7.4-1.2,15-1.4,22.5-0.6c5.7,0.5,11.4,0.7,17.2,1
			c2.4,0.2,3.4-0.9,3.4-3.3c0-7.4,0.2-14.8,0.5-22.2c0.1-2.6-0.8-3.7-3.5-3.7c-11.1-0.1-22.2,0.3-33.3,1.5
			c-7.2,0.8-11.7-2.4-13.1-9.5c-0.2-0.9-0.2-1.9-0.3-2.8c-1.4-11.7-2.8-23.5-4.2-35.2c-0.2-1.8-1-2.9-3.1-2.4
			c-10.4,3-21.2,3.3-31.8,5c-2.8,0.5-3.3,1.5-2.4,4.1c2.7,7.1,5.7,14.2,9.9,20.6c3.4,5.1,2.8,10.1-1.2,14.7
			c-2.2,2.5-4.3,5.1-6.3,7.8c-5.8,7.9-11.9,15.5-17.6,23.4c-6,8.4-12.8,16.3-19.2,24.5c-1.5,1.9-1.6,2.8,0.5,4.2s3.4,1.6,5.3-0.7
			c6.5-8.3,11.3-17.7,19-25.1c3.6-3.5,6.5-7.8,10.8-11.1c0.9,2.7-0.8,3.9-1.8,5.2c-3.5,4.2-7.2,8.3-10.8,12.4
			c-5.6,6.4-9.4,14.1-15.2,20.3c-1.1,1.2-2.4,2.4-0.1,3.6c1.7,0.8,3.3,4,5.6,0.6c2.1-3.2,4.4-6.3,6.6-9.3c7.1-9.6,13.8-19.5,22-28.2
			c0.8-0.9,1.5-2.2,3.4-1.8c-0.3,1.7-1.2,3.1-2.2,4.4c-9,11.8-17.9,23.6-26.9,35.3c-1.7,2.2-2.1,3.6,0.5,5.4c2.3,1.6,4.2,3,6-0.4
			c0.3-0.6,0.8-1.2,1.2-1.7c6.9-9.3,13.8-18.6,20.9-27.7C483,141.4,485.2,138.8,488.8,138.4z M388.3,532.7c2.5,4.1,3.5,8.6,4.6,12.9
			c3.8,14.8,5,29.9,3.8,45.1c-0.2,2.2,0.3,3.5,2.9,3.1c2-0.4,4.9,1,4.4-3.1c-0.6-5.8-0.9-11.7-1.4-17.5c-1.3-14-3.3-28-2.4-42.2
			c0.1-1.3-0.5-3.1,1.1-3.4c1.8-0.4,2.1,1.7,2.4,2.9c4.6,18.3,7.8,36.9,6.7,55.9c-0.1,2.2-2,5.1-0.2,6.4c1.6,1.1,4.6,0.3,6.9,0.5
			c2.6,0.3,3.3-0.8,3.1-3.3c-0.6-6.9-0.9-13.8-1.3-20.7c-0.1-2.4-0.6-4.8,0.2-7.1c0.3-0.9,0.2-2.5,1.5-2.6c1-0.1,1.4,1.1,1.9,1.9
			c1,1.6,1.6,3.4,1.9,5.3c1.3,7.7,1.1,15.5,0.9,23.3c0,1.1-0.6,2.7,0.8,3.2c2.8,1,5.8,2.6,8.5,2.1c1.6-0.3-1-3.6-0.6-5.7
			c0-0.1,0-0.2,0-0.4c-1.6-9.8-1.5-19.8-3.8-29.5c-2.6-11.2-5.6-22.2-8.4-33.3c-3.5-14.4-11.3-26.2-22.7-35.5c-3.6-3-7.7-5.6-12.8-4
			c-7.5,2.4-13.8,6.6-17.2,14.1c-5,11.1-6.7,23.2-8,35.1c-2.1,19.4-0.3,38.9-0.2,58.4c0,2.2,1.1,2.9,3.3,2.5
			c2.1-0.4,4.3-0.7,6.4-0.7c2.2,0,2.8-0.8,2.8-3c-0.1-12,0.4-23.9-0.3-35.9c-0.1-1.7,0.1-3.4,1-5.2c1.7,1.6,2.1,3.6,2.8,5.3
			c4.5,10.8,3.1,22.1,2.4,33.3c-0.3,4.8-0.5,4.8,4.1,4.1c1.2-0.2,2.4-0.4,3.6-0.4c1.7,0,2.3-0.8,2.3-2.4c-0.2-4.5-0.2-9.1-0.5-13.6
			c-0.8-13.6-2.1-27.2-1.9-40.8C387.3,536.2,386.9,534.4,388.3,532.7z M316.5,532.6c1.5,2.4,1.7,4.6,2,6.7
			c3.1,18.4,3.3,37.1,4.6,55.7c0.2,2.3,0.5,3.5,3.1,3.5c3.1-0.1,2.4-2.2,2.2-3.7c-1.2-6.8-0.6-13.6-0.7-20.4
			c-0.1-5.6,2.3-10.7,3.6-16c0.4-1.5,1.2-2.1,2.3-0.4c6.8,10.6,7.6,22.1,4.2,33.7c-2.1,7.4-2.4,7.5,5.5,6.5c2.1-0.3,2.7-1.1,2.4-3.3
			c-2-13.5-3.9-26.9-5.7-40.4c-1.8-13.6-3.9-27.2-8.7-40.2c-3.2-8.6-7.5-16.3-16.6-20c-1.2-0.5-2.5-1.2-3.8-0.6
			c-3.7,1.7-7.8,2.7-10.9,5.4c-9.7,8.6-14.6,19.9-16.9,32.4c-1.8,9.6-3.1,19.3-4.8,29c-2,11.2-2.7,22.5-2.6,33.9
			c0,1.3-0.1,3,1.5,3.2c2.7,0.3,5.5,0.3,8.2,0.3c0.8,0,0.9-0.6,0.9-1.5c-1-11-0.6-22-0.3-32.9c0.1-5,1.6-9.7,4.3-14.4
			c3.4,6.1,3.4,6.1,3.4,12.5c0.1,11.4,0.3,22.7,0.5,34.1c0,1.4,0,2.9,1.9,2.9c2.2,0,4.5,0.8,6.6-0.6c0.3-0.2,0.2-1.1,0.1-1.7
			c-0.7-5.6-1-11.2-1.2-16.8c-0.8-15.4-0.6-30.8,2.6-46c1-4.6,2.2-9.2,5.2-13.3c1.3,1.3,1,2.7,1,3.9c-0.1,5-0.2,10-0.5,15
			c-0.9,18.6-1.6,37.3-1.1,55.9c0,1.2-0.3,2.4,0.8,3.3c0.6,0.5,8.9,0.6,9.2,0c0.9-2.1-1.4-3-1.8-4.7s-1.2-3.4-1.5-5.1
			c-0.7-4.6-1.4-9.2-1.8-13.8c-1.1-11.6-1.6-23.1,0.6-34.7C314.8,537.5,315,535.1,316.5,532.6z M228.4,543.6
			c0.4,0.1,0.8,0.2,1.2,0.3c0,1.9,0,3.7,0,5.6c-0.3,12.7-0.4,25.3-0.3,38c0,3.3,1.9,3.2,4.1,3.4c2.9,0.2,2.2-1.8,2.1-3.4
			c-0.6-11.8-1.2-23.6-0.9-35.5c0.3-10.6,0.7-21.3,4.2-31.5c0.6-1.7,0.9-4.8,2.6-4.6c1.9,0.3,1,3.2,1,5c-0.6,21.1-1.2,42.3-1.8,63.4
			c-0.2,7.6-0.2,7.5,7.4,8.4c2,0.2,2.8-0.2,2.1-2.2c-2.5-7.2-1.9-14.6-1.8-22c0-2.9,0.1-6.3,3.3-7.7c1.7-0.8,3.8,3.5,3.9,8
			c0.1,5.6,0.2,11.2-0.5,16.8c-0.3,2.1-0.3,4.3-0.2,6.4c0.1,2.3,2.1,2.3,3.7,2.5c1.5,0.1,1.7-0.9,1.4-2.2
			c-1.6-5.8-1.1-11.9-1.4-17.8c-1.1-19.8-1.5-39.6-4.3-59.3c-1.6-10.9-2.7-21.8-8-31.7c-2.6-4.9-8.7-7.3-14-5.4
			c-4,1.5-6.7,4.6-9.7,7.5c-3.2,3.1-3.6,6.6-3.6,10.7c0,7.8-0.5,15.5-0.7,23.3c-0.7,21-0.9,42-2.9,63c-0.7,7.2-0.4,7.2,7.6,7.3
			c2,0,2.8-0.7,2.3-2.8c-2.2-9.5-2.2-19.2-1.3-28.9C224.2,553.1,225.4,548,228.4,543.6z"/>
		<path class="st4" d="M422.8,494.1c-1.3-1.1-2.9-2.3-3.5-4.1c-6-16.6-26.4-19.9-38.5-16.5c-9,2.5-16.7,6.9-21.4,15.5
			c-2.8,5.1-7.1,9.3-9.3,15.3c-2.4-3-3.6-6.1-5.2-8.9c-2-3.6-4.1-7.2-7.3-9.6c-5.6-4.1-8.3-10-11.3-15.8c-1.1-2.2-0.5-2.8,1.7-2.7
			c3.5,0.1,6.9,0.2,10.4,0.1c7.8-0.1,12.3-6.5,9.3-13.8c-2.4-5.9-5.3-11.5-7.7-17.3c-3-7.1-5.5-14.5-8.6-21.6
			c-4.1-9.1-9.6-17.3-16.2-24.8c-2.3-2.6-1.7-5.9-2.8-8.7c-1.6-4.1-0.6-7.2,2.4-10.6c4-4.5,7-9.9,10.9-14.6c1.4-1.6,1.1-3.5,0.5-5.5
			c-2-6.9-6.5-12.5-9.6-18.7c-3.4-6.7-7-13.3-11.6-19.3c-1.1-1.4-0.9-2.6-0.2-4.2c5.8-13.5,17-23.5,24.1-36.2
			c3.4-6,7.3-11.7,12.9-16.1c2.1-1.6,1.8-4,0.8-6.2c-2.5-5.3-5.3-10.5-7.5-15.9c-3.9-9.6-7.7-19.3-12.4-28.5
			c-0.9-1.7-1.7-3.4-2.6-5.1c-3.4-6.4-3.4-6.2,3.7-6.4c31-0.7,61.9,1.8,92.8,1.4c4.5-0.1,9,0.7,13.5,1.2c2.2,0.3,4.3,0.3,6.3-0.5
			c0.4-0.2,0.9-0.5,1.4-0.4c6.3,1.2,12.6,2.3,18.9,3.7c2.9,0.7,3.9,3.5,4.6,6c4,13.7,6.4,27.6,7,41.9c1,23.2,0.2,46.4,0.7,69.6
			c0.3,13.6,0.5,27.2,0.1,40.9c-0.2,6.5-0.1,13.1-0.1,19.6c0,5.5,1.5,11,1.4,16.7c-0.1,2.4-0.8,4.3-2.4,6.1
			c-7.6,8.5-16.4,15-26.6,20.2c-5.1,2.6-9.9,6.1-14.8,9.2c-4.3,2.6-5.5,7.2-5.8,12.1c-0.9,17.2-0.5,34.4,2.7,51.4
			C423.6,493.2,423.6,493.7,422.8,494.1z M384.6,388.9c13.5-0.9,26.9-1.7,40.3-3.5c6-0.8,11.8-10.3,11-14.6
			c-2.4-12.5-1.6-25.1-2.6-37.7c-0.6-8.7-1.3-17.3-2.4-25.9c-1.6-12.7-4.7-25-8.4-37.1c-2-6.4-4.2-12.6-5.5-19.2c-0.8-4-2-8-5-11.3
			c-4-4.5-9.2-3.7-11.9,1.7c-3.8,7.8-6.9,15.9-10.1,23.9c-4.1,10.1-9.1,19.8-12.7,30.1c-2.7,7.8-6.9,15-10.1,22.6
			c-4.2,10.2-8.8,20.3-13.7,30.2c-4,8.2-7.8,16.5-10.5,25.3c-1.2,3.9-0.7,7.2,2.4,10.1c3.9,3.7,8.1,5.7,13.7,5.4
			C367.6,388.6,376.1,388.9,384.6,388.9z"/>
		<path class="st4" d="M270.1,505.9c-2.8-8.6-3.4-17.7-7.5-25.8c-1.5-3-2.9-6.1-5.2-8.6c-3.6-4-7.8-6.5-13.4-6.3
			c-8.8,0.3-17.3,0.9-23.8,8.4c0.5-6.1,1.2-12.1,1.5-18.2c0.4-9.2,2.2-18.3,0.7-27.5c-1.1-6.5-4-9.3-10.4-10.4
			c-0.7-0.1-1.6-0.2-2-0.6c-6.9-6.5-15.8-8.5-24.4-11.2c-7.8-2.4-12.2-7.2-13.8-15.1c-2.3-11.3-5.8-22.5-6.6-34.1
			c-1.2-16.4-2-32.9-1.4-49.4c0.6-16.6,0.3-33.2,0.4-49.8c0-7.3,0.6-14.6,1.3-21.8c0.5-6.3,3.7-11.6,8-16.1
			c8.5-9,18.7-14.8,30.9-17.7c14.3-3.3,28.8-3.7,43.3-5.7c8.6-1.2,17.2-3,25.8-3.9c9.3-0.9,18.6-0.6,27.9,0.2c1,0.1,1.7,0.4,2.1,1.5
			c2.1,6.3,5.5,12.1,6.6,18.8c0.8,4.6,3.4,8.6,5.8,12.7c4.1,7,7.8,14.2,11,21.7c1.9,4.4,1.3,8-2,11.4c-7.6,7.9-14.8,16.2-20.3,25.9
			c-3.6,6.3-6.3,13.1-10.2,19.3c-2,3-1.8,6.9,0.5,9.9c7.9,10,11.6,22.5,19.4,32.6c1.7,2.2,0.4,3.8-1,5.3c-4.1,4.7-8,9.5-11.5,14.6
			c-2.6,3.8-3.6,7.6-2.2,12.1c1.4,4.4,2.2,9,4.4,13.2c0.7,1.4,0.4,2.7-0.1,4.1c-6.4,16.9-11.8,34-15.2,51.8c-0.7,3.7-2.1,7.3-3.1,11
			c-1.8,6.2,2,11,8.4,10.2c5.1-0.6,10.3-0.5,15.4-0.6c6-0.1,7.9,1.6,9.2,8.1c-4.4-1-8.8-0.8-13.2-0.7c-9.9,0.1-17.8,3.9-23,12.7
			c-3.4,5.7-7.1,11.2-10.8,16.7C271.2,505.2,270.6,505.5,270.1,505.9z M247.2,385.3c2.5,0.1,5,0.4,7.5,0.3c6.7-0.2,13.6,1.2,20-2
			c6.1-3,8.5-7.3,6.4-12.8c-1.3-3.4-2.3-6.8-3.3-10.2c-2.8-9.8-8.8-18.2-12.3-27.7c-2.7-7.3-7.8-13.4-10.8-20.7
			c-5.2-12.7-10-25.6-14.2-38.6c-3.6-11.3-8.9-21.9-12.8-33.1c-1.7-4.7-5.5-7.3-10.4-7.5c-4.7-0.2-6.4,3.6-7.9,7.2
			c-7.5,17.4-9.8,36-11.2,54.5c-1.3,17.5-1.7,35.1-1.1,52.7c0.2,6.3,0.8,12.6,1.8,18.9c1.8,10.9,7.9,16.1,18.5,18.2
			C227.5,386.3,237.3,384.9,247.2,385.3z"/>
		<path class="st4" d="M145,294.8c-0.6,11.7-1,23.4-0.5,35.1c0.5,13.9,0,28.1,3.5,41.7c1.7,6.6,0.1,10.4-5,14.2
			c-4.7,3.6-9.6,7-14.7,10.1c-7.3,4.4-13.8,9.9-20.4,15.2c-2,1.6-2.7,1.4-3.9-0.9c-5.8-10.6-8-22.5-12.4-33.5
			c-8.9-22.2-16.1-44.9-23.8-67.5c-7.1-20.8-14.3-41.5-20-62.7c-4.3-15.8-8.1-31.7-13-47.3c-0.2-0.7-0.7-1.5-0.1-2
			c0.9-0.8,1.5,0.3,2.1,0.8c10.6,8.1,20.5,17.1,30.4,26c8,7.3,15.3,15.4,24.3,21.6c7.8,5.4,13.7,12.9,21.3,18.5
			c9.8,7.2,19.3,14.8,30.4,20c1.4,0.7,1.8,1.7,1.8,3.2C145,289.8,145,292.3,145,294.8z M131.8,338.6c-0.2-1.9,0.8-3.8-0.5-5.6
			c-2.7-3.8-5.1-7.9-8.3-11.2c-8.4-8.4-15.5-17.8-23.2-26.8c-4.3-5-8.6-9.9-13-14.7c-1.5-1.6-3.3-2.3-4.5,0.3
			c-1.4,3.2-2.1,6.6-0.8,10.1c1.1,2.9,2.4,5.8,4.2,8.3c9.4,13.5,18.9,27,28.4,40.4c0.9,1.3,1.3,2.3,0.9,3.9c-0.8,3.4-0.9,6.8,0,10.3
			c0.9,3.3,2.8,5.5,6.4,5.7c3.6,0.3,6.4-1.4,7.2-4.6C129.8,349.3,131.7,344.1,131.8,338.6z"/>
		<path class="st4" d="M486.3,361.3c1.8-25.4,1.1-52.6,1.3-79.9c0-1.4-0.2-3,1.6-3.6c6.5-2,11.3-6.9,17-10.4
			c10.4-6.4,18.8-15.5,28.5-22.8c12.3-9.3,23.8-19.4,36-28.9c6.9-5.4,12.2-12.4,18.9-18c0.8-0.7,1.4-2.1,2.6-1.5
			c1.5,0.8,0.2,2.1,0,3.2c-4.3,16-8.6,32.1-11.8,48.4c-1.8,9.5-4.9,18.7-7.4,28c-3,11.3-5.2,22.8-7.7,34.2
			c-3.9,18.7-11.1,36.2-18,53.9c-3.7,9.3-6.8,18.8-10,28.3c-0.8,2.5-1.8,2.9-4.4,2.4c-13.8-3.1-25.3-10.9-37.3-17.5
			c-0.5-0.3-1-0.6-1.5-0.9C486.2,372,486.2,372,486.3,361.3z M515.7,367.9c5.7-0.1,9.7-3.2,9.9-7.8c0.1-2.4,0-4.9-0.7-7.1
			c-2.8-8.9-3.8-17.9-4.1-27.2c-0.1-2.4,0.4-4.3,2-6.2c7.4-8.5,14.7-17.3,19.7-27.6c2.5-5.3,5.7-10.3,5.8-16.4
			c0.2-6.2-5.8-9.8-11.1-6.8c-2.2,1.2-4.3,2.7-5.9,4.6c-11.3,13.9-22.5,27.8-33.7,41.7c-1.3,1.6-1.5,3.6-2,5.7
			c-1.4,6.2,0.6,12.1,1.4,18c1.4,9.8,4.8,18.7,11.8,25.9C510.7,366.9,512.8,368.1,515.7,367.9z"/>
		<path class="st4" d="M153.2,140c3.4,4.5,7,7.6,11,10.4c8.9,6.2,16.7,13.6,25.3,20.2c0.9,0.7,3.4,1.7,2.1,3.4
			c-1.2,1.7-3.1,0.9-4.8-0.1c-3.5-2-6.6-4.4-9.5-7.3c-6.4-6.4-14-11.4-20.8-17.3c-0.7-0.6-1.6-1.4-2.5-0.6c-0.8,0.9,0,1.8,0.7,2.4
			c2,1.9,3.9,3.9,6.1,5.5c4.4,3.2,8.9,6.2,12.5,10.3c2.7,3,6.1,5.3,9.3,7.8c0.8,0.6,2.3,1,1.2,2.2c-0.8,0.8-2,1.9-3.5,0.8
			c-0.9-0.6-1.7-1.3-2.6-2c-12.6-10.6-25.7-20.7-38.3-31.2c-6.7-5.6-13.9-10.5-19.9-16.9c-5.5-5.9-12.5-6.6-19.5-5
			c-8.7,1.9-17.6,3-26.1,6.1c-2.1,0.7-3.5,0.3-5-1.4c-5.5-6.3-11-12.6-16.6-18.7c-1.7-1.8-0.6-2.8,0.6-4.1
			c7.7-7.8,16.9-13.5,25.7-19.9c2.8-2,5.7-3.9,8.3-6.2c1.7-1.5,3-1.5,4.7-0.1c2.4,2.1,4.9,4.2,7.4,6.2c3,2.4,6.5,3.3,10,1.5
			c3.3-1.7,4.3-4.8,4.2-8.5c-0.2-5.1,0-10.3-0.1-15.4c0-2.3,0.8-4,2.6-5.5c9.8-8.1,20.3-15.1,31.7-20.6c1.4-0.7,2.3-1,3.3,0.5
			c6.4,9.6,14.5,18.1,20.3,28.2c1.6,2.8,1.3,4.7-0.9,7c-5.5,5.8-12,10.6-16.2,17.5c-1.6,2.5-3.1,5.1-4.5,7.7
			c-1.5,2.9-1.6,5.9-0.1,8.9c3.5,7.1,9.5,12.2,14.6,18c13.5,15.8,28.4,30.2,43.5,44.5c0.7,0.6,1.8,1.4,1.1,2.3
			c-0.9,1.1-2,0.1-2.7-0.6c-8.1-7.5-16.3-15-24.4-22.7c-4.7-4.4-9.7-8.5-14.9-12.3c-0.9-0.6-2-1.4-2.8-0.2c-0.8,1,0.4,1.8,1.1,2.3
			c12.4,9.6,23.2,21,34.6,31.6c0.9,0.8,2.9,1.4,2,2.8c-0.9,1.5-3,1.5-4.5,0.6c-2.9-1.7-5.9-3.3-8.3-5.6c-9.6-9.4-20.8-16.6-31-25.1
			C156.7,140.9,155.7,140,153.2,140z"/>
		<path class="st4" d="M144.3,525.1c1.6-0.1,2-1.4,2.7-2.3c7.4-10.1,15.5-19.5,24.7-28.1c5.7-5.3,10.4-11.8,15.6-17.6
			c0.9-1,1.9-3.5,3.7-2.1c2,1.5,1.6,3.7-0.2,5.6c-8.9,10-18.4,19.4-26.7,29.9c-11.6,14.8-23.3,29.6-31.8,46.6
			c-3.3,6.6-2.5,12,3.2,18.3c2.8,3.1,5.6,6.2,9.2,8.5c1.5,0.9,2.1,1.9,1,3.4c-5.3,6.8-9.6,14.3-15.2,20.8c-2,2.4-4.1,3.3-7.2,2.6
			c-11.1-2.7-22.6-3.6-33.8-6.1c-5.4-1.2-5.7-1.4-5.1-6.9c0.5-4.4,1.5-8.7,2.4-13c1.7-7.7-4-14-11.8-12.5
			c-5.6,1.1-11.2,2.4-16.7,3.9c-2.1,0.6-3,0.2-3.5-2c-2.4-11.1-4.4-22.2-8.2-33c-0.7-2.1,0.2-3,2.2-3.6c5.5-1.6,11.2-2.2,16.6-4.3
			c6.2-2.4,12.7-4.3,18.7-7.3c2.9-1.4,4.7-1.4,5.8,2.2c1.3,4,3.8,7.4,7.2,10.1c4.4,3.5,8.4,3.4,12.5-0.3c5-4.5,8.5-10.3,12.6-15.5
			c7.6-9.5,16.7-17.3,25.6-25.4c12.1-11,23.7-22.5,34.5-34.8c0.8-0.9,1.2-3.7,3.2-2.1c1.6,1.3,0.4,3-0.7,4.4c-6.3,7.7-13,14.9-20,22
			c-10.1,10.1-19.6,20.8-29.4,31.3c-0.8,0.8-2.1,1.9-1.1,3c1.2,1.2,2-0.3,2.8-1.2c13-13.3,25.4-27.1,38.6-40.2
			c3.2-3.1,5.6-7.1,8.6-10.4c0.8-0.8,1.9-3.3,3.6-1.6c1.3,1.3,1.5,3.5-0.1,5.2c-8.5,9.2-16.4,18.9-25.8,27.4
			c-7.3,6.7-13.6,14.7-18.2,23.7C144,524,143.8,524.5,144.3,525.1z"/>
		<path class="st4" d="M575.4,547.7c-2.5,0.2-4.9,0.5-7.2,1.8c-3.1,1.6-6.2,3.1-9.4,4.4c-8.1,3.4-7.7,9.5-4.5,15.6
			c2.1,4,4.7,7.8,7.7,11.2c1.8,2.1,1.6,3.5-0.4,5c-3.4,2.6-6.8,5.2-10.1,8c-4.2,3.5-8.5,7-11.8,11.5c-1.4,1.9-2.6,2.2-4.7,0.8
			c-4.4-2.9-9-5.5-13.5-8.1c-2.3-1.3-3.1-2.6-1.8-5.4c3.3-7,6.1-14.2,9-21.4c1.5-3.8,0.6-7.4-1.8-10.5
			c-10.3-13.1-20.8-26.1-31.3-39.2c-0.1-0.1-0.2-0.2-0.2-0.3c-10.1-17.1-25.5-29.9-36.8-46c-0.3-0.5-0.7-0.9-1-1.5
			c-0.8-1.3-0.2-2.3,0.7-3.2c1.3-1.2,1.9,0.1,2.5,0.9c7.2,8.3,14.5,16.5,21.7,24.8c2.4,2.7,5,5.2,8,7.1c0.8,0.5,1.8,1.1,2.6,0.2
			c0.8-1-0.3-1.7-0.9-2.4c-10.6-10.2-19.6-21.9-29.5-32.7c-0.7-0.8-1.8-1.5-1.3-2.7s0.5-2.8,2-3.2c1.3-0.4,1.8,0.9,2.5,1.7
			c10.3,10.5,19.7,21.8,29.1,33c0.4,0.5,0.7,1,1.1,1.4c1,0.7,2,2.4,3.3,1.1c1.4-1.3-0.3-2.2-1.1-3.2c-7.7-8.8-14.8-18.1-22.9-26.5
			c-2.9-3-5.8-6-8.7-9c-0.6-0.6-1.2-1.2-1.6-1.9c-0.5-0.9-0.8-1.9,0.2-2.6c0.9-0.6,1.5,0.2,2.1,0.8c4.4,4.6,8.8,9.1,13.1,13.7
			c6.5,7,12.9,14.1,19.8,20.7c1,1,2.1,1.9,3.2,2.8c0.8,0.7,1.8,1.8,2.7,0.7c0.7-0.8-0.4-1.7-1-2.4c-6.8-7-13.7-13.9-20.3-21
			c-5.7-6.1-11.6-12-17.8-17.6c-1.5-1.3-4.1-3.8-2.8-4.9c2-1.7,2.9,1.7,4.4,2.9c4.1,3.3,7,7.8,10.8,11.4
			c5.7,5.6,10.5,12.2,16.5,17.2c14.7,12.2,26.4,27.6,41.1,39.7c1.6,1.3,3.1,2.6,4.8,3.7c4.5,2.9,9,3.9,14,0.6
			c4.8-3.2,10.4-4.7,16.1-5.6c4-0.6,7.8-2.3,11.5-3.9c3.4-1.4,5.8-0.5,7.9,2.6c6.4,9.4,13.1,18.5,21.4,26.3c1.6,1.5,1.7,2.6,0.2,4.2
			c-4.4,4.8-9.7,8.5-14.7,12.5c-1.3,1.1-2.3,0.4-3.4-0.5c-4.5-3.7-9.2-7.2-13.8-10.9C579.4,548.1,577.6,547.6,575.4,547.7z"/>
		<path class="st4" d="M488.8,138.4c-3.6,0.4-5.8,3-7.6,5.4c-7.1,9.1-13.9,18.4-20.9,27.7c-0.4,0.6-0.9,1.1-1.2,1.7
			c-1.8,3.4-3.6,2-6,0.4c-2.6-1.8-2.2-3.2-0.5-5.4c9-11.7,17.9-23.5,26.9-35.3c1-1.3,1.9-2.6,2.2-4.4c-1.9-0.4-2.5,0.9-3.4,1.8
			c-8.3,8.7-14.9,18.6-22,28.2c-2.3,3.1-4.5,6.2-6.6,9.3c-2.3,3.4-3.9,0.3-5.6-0.6c-2.3-1.1-1-2.3,0.1-3.6
			c5.8-6.2,9.6-13.9,15.2-20.3c3.6-4.1,7.3-8.2,10.8-12.4c1-1.2,2.7-2.5,1.8-5.2c-4.3,3.3-7.2,7.6-10.8,11.1
			c-7.6,7.4-12.5,16.8-19,25.1c-1.9,2.4-3.1,2.1-5.3,0.7c-2.1-1.4-2-2.3-0.5-4.2c6.4-8.2,13.2-16.1,19.2-24.5
			c5.7-8,11.8-15.6,17.6-23.4c2-2.7,4.1-5.3,6.3-7.8c4-4.6,4.6-9.6,1.2-14.7c-4.2-6.4-7.2-13.4-9.9-20.6c-1-2.6-0.4-3.6,2.4-4.1
			c10.6-1.8,21.4-2,31.8-5c2.1-0.6,2.8,0.5,3.1,2.4c1.4,11.7,2.8,23.5,4.2,35.2c0.1,0.9,0.2,1.9,0.3,2.8c1.4,7.2,5.9,10.3,13.1,9.5
			c11.1-1.2,22.2-1.5,33.3-1.5c2.7,0,3.5,1.1,3.5,3.7c-0.3,7.4-0.4,14.8-0.5,22.2c0,2.5-1,3.5-3.4,3.3c-5.7-0.4-11.5-0.5-17.2-1
			c-7.5-0.7-15.1-0.5-22.5,0.6c-6.9,1.1-10.8,6.7-15.3,11.2c-10,10.2-19.9,20.6-29.8,30.9c-1.6,1.6-2.8,3.5-4.3,5.3
			c-0.7,0.8-1.4,2.1-2.6,1c-1.1-0.9,0.2-1.7,0.7-2.4c8.4-10.8,16.8-21.5,25.2-32.4c0.7-0.9,2.2-1.7,1.3-3.5c-3,0.9-4.8,3.4-6.7,5.6
			c-7.8,9-15,18.6-21.6,28.5c-0.7,1-1.4,3.4-3,1.4c-1.2-1.5-5.2-2.3-2.7-5.5c9-11.4,17.2-23.4,26.8-34.3
			C488,140.7,488.9,140,488.8,138.4z"/>
		<path class="st4" d="M388.3,532.7c-1.4,1.8-1,3.5-1.1,5.1c-0.2,13.6,1.1,27.2,1.9,40.8c0.3,4.5,0.3,9.1,0.5,13.6
			c0.1,1.6-0.6,2.4-2.3,2.4c-1.2,0-2.4,0.3-3.6,0.4c-4.6,0.7-4.4,0.7-4.1-4.1c0.6-11.2,2-22.4-2.4-33.3c-0.7-1.7-1.1-3.7-2.8-5.3
			c-1,1.7-1.1,3.4-1,5.2c0.6,11.9,0.2,23.9,0.3,35.9c0,2.1-0.6,3-2.8,3c-2.1,0-4.3,0.3-6.4,0.7s-3.3-0.2-3.3-2.5
			c0-19.5-1.8-39,0.2-58.4c1.3-11.9,3-24,8-35.1c3.3-7.5,9.6-11.7,17.2-14.1c5-1.6,9.1,1,12.8,4c11.4,9.4,19.2,21.1,22.7,35.5
			c2.7,11.1,5.7,22.2,8.4,33.3c2.3,9.7,2.2,19.7,3.8,29.5c0,0.1,0,0.2,0,0.4c-0.5,2.1,2.1,5.4,0.6,5.7c-2.6,0.5-5.7-1.1-8.5-2.1
			c-1.4-0.5-0.8-2.1-0.8-3.2c0.1-7.8,0.4-15.5-0.9-23.3c-0.3-1.9-0.9-3.7-1.9-5.3c-0.5-0.8-0.9-2-1.9-1.9c-1.3,0.1-1.2,1.6-1.5,2.6
			c-0.8,2.3-0.3,4.7-0.2,7.1c0.4,6.9,0.8,13.8,1.3,20.7c0.2,2.5-0.5,3.6-3.1,3.3c-2.4-0.2-5.3,0.6-6.9-0.5c-1.8-1.3,0.1-4.2,0.2-6.4
			c1.1-19.1-2.1-37.6-6.7-55.9c-0.3-1.3-0.6-3.3-2.4-2.9c-1.5,0.3-1,2.2-1.1,3.4c-0.8,14.2,1.1,28.1,2.4,42.2
			c0.5,5.8,0.8,11.7,1.4,17.5c0.4,4.1-2.5,2.8-4.4,3.1c-2.6,0.5-3-0.8-2.9-3.1c1.2-15.2,0-30.3-3.8-45.1
			C391.8,541.2,390.8,536.8,388.3,532.7z"/>
		<path class="st4" d="M316.5,532.6c-1.5,2.5-1.7,4.9-2.2,7.2c-2.2,11.5-1.7,23.1-0.6,34.7c0.4,4.6,1.1,9.2,1.8,13.8
			c0.3,1.7,1.1,3.4,1.5,5.1c0.4,1.7,2.7,2.6,1.8,4.7c-0.2,0.6-8.6,0.4-9.2,0c-1.1-0.9-0.8-2.2-0.8-3.3c-0.5-18.7,0.2-37.3,1.1-55.9
			c0.3-5,0.4-10,0.5-15c0-1.2,0.3-2.6-1-3.9c-3,4.1-4.2,8.7-5.2,13.3c-3.3,15.2-3.4,30.6-2.6,46c0.3,5.6,0.5,11.2,1.2,16.8
			c0.1,0.6,0.2,1.5-0.1,1.7c-2,1.4-4.4,0.6-6.6,0.6c-1.8,0-1.8-1.5-1.9-2.9c-0.1-11.4-0.3-22.7-0.5-34.1c-0.1-6.4,0-6.4-3.4-12.5
			c-2.7,4.6-4.1,9.4-4.3,14.4c-0.3,11-0.6,22,0.3,32.9c0.1,0.9,0,1.5-0.9,1.5c-2.7,0-5.5,0-8.2-0.3c-1.7-0.2-1.5-1.9-1.5-3.2
			c-0.1-11.4,0.6-22.7,2.6-33.9c1.7-9.6,3-19.3,4.8-29c2.3-12.5,7.2-23.7,16.9-32.4c3.1-2.7,7.2-3.7,10.9-5.4
			c1.3-0.6,2.5,0.1,3.8,0.6c9.1,3.7,13.4,11.5,16.6,20c4.8,13,6.9,26.5,8.7,40.2c1.8,13.5,3.7,27,5.7,40.4c0.3,2.2-0.2,3-2.4,3.3
			c-7.9,1.1-7.6,0.9-5.5-6.5c3.3-11.7,2.5-23.2-4.2-33.7c-1.1-1.7-2-1.1-2.3,0.4c-1.3,5.3-3.6,10.4-3.6,16
			c0.1,6.8-0.5,13.6,0.7,20.4c0.3,1.6,1,3.7-2.2,3.7c-2.7,0-3-1.1-3.1-3.5c-1.4-18.6-1.5-37.2-4.6-55.7
			C318.2,537.2,318,535,316.5,532.6z"/>
		<path class="st4" d="M228.4,543.6c-2.9,4.4-4.2,9.5-4.7,14.7c-1,9.7-1,19.3,1.3,28.9c0.5,2.1-0.3,2.9-2.3,2.8
			c-8-0.1-8.3-0.1-7.6-7.3c2.1-21,2.2-42,2.9-63c0.3-7.8,0.7-15.5,0.7-23.3c0-4.1,0.5-7.6,3.6-10.7c3-2.9,5.7-6.1,9.7-7.5
			c5.3-2,11.4,0.4,14,5.4c5.3,9.9,6.4,20.9,8,31.7c2.8,19.7,3.2,39.5,4.3,59.3c0.3,6-0.2,12,1.4,17.8c0.3,1.2,0.1,2.3-1.4,2.2
			c-1.6-0.1-3.6-0.2-3.7-2.5c-0.1-2.1-0.1-4.3,0.2-6.4c0.7-5.6,0.5-11.2,0.5-16.8c0-4.5-2.2-8.7-3.9-8c-3.2,1.4-3.3,4.8-3.3,7.7
			c-0.1,7.4-0.7,14.8,1.8,22c0.7,2,0,2.4-2.1,2.2c-7.6-0.8-7.6-0.8-7.4-8.4c0.6-21.1,1.3-42.3,1.8-63.4c0-1.8,0.9-4.7-1-5
			c-1.7-0.3-2,2.8-2.6,4.6c-3.5,10.2-3.9,20.9-4.2,31.5c-0.4,11.8,0.3,23.7,0.9,35.5c0.1,1.6,0.9,3.6-2.1,3.4
			c-2.2-0.2-4.1-0.1-4.1-3.4c-0.1-12.7,0-25.3,0.3-38c0.1-1.9,0-3.7,0-5.6C229.2,543.8,228.8,543.7,228.4,543.6z"/>
		<path class="st3" d="M384.6,388.9c-8.5,0-17-0.3-25.4,0.1c-5.6,0.2-9.8-1.7-13.7-5.4c-3.1-3-3.6-6.3-2.4-10.1
			c2.7-8.8,6.5-17.1,10.5-25.3c4.8-10,9.5-20,13.7-30.2c3.1-7.6,7.4-14.8,10.1-22.6c3.6-10.3,8.6-20,12.7-30.1
			c3.3-8,6.3-16.1,10.1-23.9c2.7-5.4,7.9-6.2,11.9-1.7c2.9,3.3,4.2,7.3,5,11.3c1.3,6.6,3.5,12.8,5.5,19.2
			c3.8,12.1,6.9,24.4,8.4,37.1c1.1,8.6,1.7,17.3,2.4,25.9c0.9,12.5,0.2,25.2,2.6,37.7c0.8,4.3-5,13.8-11,14.6
			C411.5,387.2,398,387.9,384.6,388.9z"/>
		<path class="st3" d="M247.2,385.3c-9.9-0.4-19.7,1-29.7-0.9c-10.6-2-16.7-7.3-18.5-18.2c-1-6.3-1.6-12.5-1.8-18.9
			c-0.6-17.6-0.3-35.2,1.1-52.7c1.4-18.5,3.8-37.1,11.2-54.5c1.5-3.6,3.2-7.4,7.9-7.2c4.9,0.2,8.8,2.7,10.4,7.5
			c3.9,11.2,9.2,21.8,12.8,33.1c4.2,13.1,9,25.9,14.2,38.6c3,7.3,8.1,13.3,10.8,20.7c3.5,9.5,9.5,17.9,12.3,27.7
			c1,3.4,2,6.9,3.3,10.2c2.1,5.5-0.3,9.8-6.4,12.8c-6.4,3.2-13.3,1.8-20,2C252.2,385.7,249.7,385.4,247.2,385.3z"/>
		<path class="st3" d="M131.8,338.6c0,5.5-2,10.7-3.3,16c-0.8,3.2-3.6,4.9-7.2,4.6s-5.5-2.4-6.4-5.7c-0.9-3.4-0.8-6.9,0-10.3
			c0.4-1.6,0-2.6-0.9-3.9c-9.5-13.4-19-26.9-28.4-40.4c-1.8-2.5-3.1-5.4-4.2-8.3c-1.3-3.5-0.6-6.9,0.8-10.1c1.2-2.6,3-1.9,4.5-0.3
			c4.4,4.9,8.8,9.8,13,14.7c7.7,9,14.8,18.4,23.2,26.8c3.3,3.2,5.6,7.4,8.3,11.2C132.5,334.7,131.6,336.7,131.8,338.6z"/>
		<path class="st3" d="M515.7,367.9c-2.8,0.2-5-0.9-6.9-3c-7-7.3-10.4-16.1-11.8-25.9c-0.8-6-2.8-11.8-1.4-18c0.5-2,0.7-4.1,2-5.7
			c11.2-13.9,22.4-27.8,33.7-41.7c1.6-1.9,3.7-3.4,5.9-4.6c5.3-3,11.3,0.6,11.1,6.8c-0.1,6.1-3.3,11.1-5.8,16.4
			c-5,10.3-12.2,19-19.7,27.6c-1.6,1.9-2.1,3.7-2,6.2c0.3,9.2,1.4,18.3,4.1,27.2c0.7,2.2,0.7,4.7,0.7,7.1
			C525.4,364.7,521.3,367.8,515.7,367.9z"/>
	</g>
</g>
</svg>
