<?xml version="1.0" encoding="utf-8"?>
<!-- Generator: Adobe Illustrator 21.0.2, SVG Export Plug-In . SVG Version: 6.00 Build 0)  -->
<svg version="1.1" id="Layer_1" xmlns="http://www.w3.org/2000/svg" xmlns:xlink="http://www.w3.org/1999/xlink" x="0px" y="0px"
	 viewBox="0 0 763.2 103.6" style="enable-background:new 0 0 763.2 103.6;" xml:space="preserve">
<style type="text/css">
	.st0{fill:#1E0F11;}
	.st1{fill:#DE215B;}
</style>
<g id="OFB49j_1_">
	<g>
		<path class="st0" d="M244.5,85.6c-4.9,4.9-9.2,10.4-16.3,10c-6.4-0.4-12.9-1.5-16.9-7.6c-6.6,7.7-13.9,10.6-26.7,3.9
			c-1.4-0.7-2.2-0.7-3.5,0c-5.4,3.3-11.3,4.3-17.6,3.9c-9.8-0.7-19.5,0.7-28.7,4.1c-3.5,1.3-6.9,1-10.1-0.4c-3-1.3-5.9-1.5-9-0.4
			c-5.1,1.8-9.7,0.3-14.1-2.5c-1.5-1-3.2-1.8-4.7-2.8c-2.4-1.6-3.9-1.5-5.9,1.2c-5.7,7.7-17,8.6-24.1,1.9
			c-6.6-6.2-10.9-13.8-11.5-23c-0.2-3-1.2-2.9-3.6-2.7c-5.5,0.3-8.2,2.4-7.4,8.3c0.4,2.8,0.1,5.6-0.2,8.4
			c-0.6,6.5-4.3,11.1-10.1,12.8c-7.5,2.2-15.3,0-19.9-5.7c-6.2-7.7-10-16.3-9.2-26.5c0.8-10.8-1.7-21.1-3.4-31.6
			C1,32.7,0.3,28.5,0,24.2c-0.8-14,12.4-22.7,25.6-22.3C35.6,2.2,45.5,3,54.2,8.7c1.2,0.8,2.1,0.6,3.1-0.3c9.6-8.7,21-6.8,32.1-5.1
			c6.9,1,13.4,3.7,18.8,8.5c1.7,1.5,2.3,1.5,4.1-0.3C119.6,4,128.6,0.6,138.9,4c6.5,2.2,12.9,0.2,19.2,0.9c1,0.1,2.2-0.5,2.9-0.1
			c7.6,4.6,15.1-0.2,22.6-0.2c7.8,0,15.6,0.8,23.3,0.5c8.8-0.4,17.6-1.1,26.4,0.5c0.8,0.1,1.7-0.1,2.4-0.4C246,1.1,256.5,2.4,267,4
			c1,0.1,2.1,0.3,2.9-0.1c7.5-3.3,14.7-0.9,21.8,1.2c5.7,1.7,9.2,9.1,9.3,15.7c0.1,10.1-3.8,18.7-8.5,26.9
			c-5.8,10.2-8.3,20.7-7,32.5c0.5,4.5-1.1,9.5-5.1,12.4c-7.1,5.2-14.4,9.9-24.2,7.5C248.9,98.3,246.1,92.9,244.5,85.6z M193,71.4
			c0,2.2,0,4.3,0,6.5c-0.1,2.6,2.2,3.7,3.5,2.7c3.1-2.2,7.2-4.8,8-8c1-3.8,1.2-8.1,1.6-12.2c0.8-8.9-1.7-18.2,2.9-26.7
			c0.1-0.1,0-0.3,0.1-0.5c0.4-4,3.4-4.2,6.2-4c2.8,0.2,5.9,0.8,5.7,4.8c-0.2,4.7,1.4,9.3,1.4,13.9c0,5.6,3.1,10.8,1.8,16.4
			c-1,4.5,0.4,9-0.2,13.4c-0.3,2.5,1.8,3.9,3.4,2.9c3.1-2,7.8-5,7.7-7.4c-0.1-5.1,2.3-9.8,1.7-14.7c-0.7-5.4,1.9-10.9-0.5-16.3
			c-0.3-0.6,0.5-1.9,1.1-2.7c1.3-2,2.3-4.1,2.6-6.4c0.4-2.6,2-3.6,4.4-4c2.3-0.3,3.8,1.4,4,3c1.1,6.3,5,11.6,6.3,17.7
			c2.2,10.5,3.7,21.2,4.2,32c0.2,4.6,1.4,4.8,5.6,3.2c4.9-1.8,7.7-3.9,4.8-9.4c-0.1-0.3-0.1-0.7,0-1c3-10.1,2.1-21.2,8.2-30.5
			c3.1-4.7,5.1-9.9,7.6-14.9c3.1-6.4,0.7-11.8-5.5-12.1c-5.6-0.3-9.9,3.5-9.2,9.3c0.6,4.9-2,8.6-3.1,12.9c-0.2,0.9-1.1,1.7-2.2,1.7
			c-1.4,0-1.7-1.2-1.6-2.1c0.4-5.5-2.5-10.7-0.7-16.3c1-3.1-0.3-5.1-4.1-4.8c-3,0.2-5.9,0.1-8.9-0.5c-2.1-0.4-4.6-0.5-5.1,2.5
			c-0.4,2.9-2,2.4-3.9,1.8c-8.7-2.5-17.7-1.9-26.6-2.4c-2.2-0.1-2.5,2.6-5.1,2c-7.7-2-15.8-1.7-23.7-1.9c-4.3-0.1-5.4,1.8-4.6,6
			c0.5,2.8,2.7,3,4.7,3.8c2.2,0.8,5.2,0.9,5.2,4.4C190.2,46.2,195,58.6,193,71.4z M125.6,60.3c-0.8,5.3,1.2,13.2,2.1,21.2
			c0.4,3.4,1.5,5.4,5.4,3.7c10.5-4.4,21.5-4.6,32.7-4.1c1.6,0.1,3.3,0,5-0.3c1.7-0.3,3.2-1.2,3.6-3c0.5-2.1-1.6-2.6-2.7-3
			c-4.6-1.7-9.7-2.4-14-4.7c-4.6-2.3-10.3-0.2-14.2-4.4c-1-1.1-1.9-1.8-1.5-3.3c0.5-1.7,1.9-1.6,3.2-1.6c3.2,0.1,6-0.7,9-2.4
			c2.3-1.3,4.9-2.7,7.9-2.5c3.1,0.2,6-0.8,6-4.5c-0.1-3.9-3.5-3.6-6-3.4c-5.3,0.6-10.3-0.3-15.4-1.9c-1.6-0.5-2.6-0.9-3.3-2.5
			c-1.8-4.3,0.4-10.5,5.1-11.4c6.2-1.1,11.6-6.1,18.5-3.9c1.4,0.5,2.6-0.5,2.9-2c0.3-1.5,0.4-3.1-1.5-3.7c-3.7-1.2-7.1-3-11.4-3
			c-6.6,0.1-13.5,1.8-19.8-0.9c-5-2.1-9.9-1.8-12.9,1.5c-2.9,3.2-3.2,9.2-1.9,13C125.3,41.3,126,49.2,125.6,60.3z M81.4,62.8
			c3.2,3.6,8,4.2,10.2,8.3c1.9,3.6,5.1,5.9,8.6,7.7c2.8,1.4,5.6,2.7,8.3,4.3c1.4,0.8,2.6,2.9,4,0.8c1.1-1.6,1.3-3.8-0.8-5.3
			c-2.1-1.4-3.8-3.3-5-5.5c-2.3-4-3.1-8.6-6.2-12.3c-1.2-1.5-1.1-3.8,1.1-5.2c2.8-1.8,3.5-4.5,4.7-7.5c5.4-13.9-3.2-23.8-13.2-28.7
			c-6.1-3-12.7-2.1-19-2.9c-5.7-0.7-9.7,4.9-8.7,10.7c0.7,4.1,1.5,8.1,2.2,12.2c0.8,4.1,1.1,8.4,1.9,12.6
			c2.2,10.5-2.6,22.2,5.7,31.7c1,1.1,1.4,3,3.1,2.7c2.1-0.4,1.2-2.4,1.4-3.7C80.7,76.3,78.3,69.7,81.4,62.8z M19.8,63.1
			c-1,8.1,0.2,15.6,5.6,22c0.8,1,1.5,1.8,2.9,1.6c1.6-0.2,0.8-1.5,0.9-2.3c0.9-5.1,0.9-10.2,0.1-15.4c-0.5-3.4-0.2-8.5,3-9.1
			c4.1-0.7,7.9-2.9,12.4-2.3c3.7,0.5,7.8-1.2,10-4.2c3.6-4.9,3.7-11.4,3.3-16.7c-0.6-7.5-6.5-12.6-13-16.5
			c-6.6-3.9-14.2-3.1-21.3-3.7C19.3,16,14.7,20.6,15,24c0.4,3.8,1.5,7.5,1.5,11.3C16.6,44.7,21.5,53.5,19.8,63.1z"/>
		<path class="st0" d="M371.3,90.1c-5.6,8.6-13.5,11.3-23.2,8.9c-2.8-0.7-5.5-0.8-8.2,0.2c-6.3,2.2-12.2,0-17.9-1.9
			c-4.1-1.4-6.5-4.9-7.8-9.2c-2.1-7.1-1.8-14.5-3.1-21.6c-1.7-9.1-3.9-18.1-5.8-27.2c-1.4-6.7-2.6-13.3-2.3-20.2
			c0.6-12,10.2-19.7,21.7-16.8c6.6,1.6,14,1.1,19.5,6.4c1.3,1.2,3.2,0.5,4.6-0.4c8.2-5.4,16.5-8.1,26-2.8c2.1,1.2,5.1-0.6,7.6-1.5
			c3.5-1.2,7.2-2.5,10.6-0.9c7,3.2,14.4,1.8,21.6,1.8c4.6,0,8.8,0.5,12.9,2.8c3.3,1.8,5.9,2.1,9.3-1.3c6.9-6.9,15.5-5.2,23.8-2.6
			c1.7,0.5,3.3,1.5,5.3,0.8c15.6-5,30.3-2.9,44.1,6c1.3,0.9,2.2,0.9,3.3-0.5c8-9.7,19-9,30.1-9.2c13.3-0.2,21.9,8.3,31.2,15.6
			c3.4,2.7,3.8,7,4.8,10.7c3.1,11.5,5.3,23.1,2.1,35.2C578,75.8,570,85.8,558.9,93.8c-9.4,6.8-19.2,8.9-30.2,4.5
			c-2.2-0.9-4.3-0.9-6.9,0.2c-6,2.5-12,1.8-17.3-2.3c-1.3-1-3-1.4-4.3-2.4c-2.4-1.8-3.6-1.2-5.4,1.2c-5.5,7.5-16.9,8.7-23.7,2.4
			c-3-2.7-4.2-3.1-7.1,0.1c-7.4,8-21.4,9.1-27.1-1.7c-0.6-1.1-1.3-2.1-2.7-1.5c-7.2,3.1-14.8,1.5-22.2,1.7
			c-6.1,0.1-11.8,1.4-17.3,3.4C384,103.1,375.4,98.1,371.3,90.1z M342.7,65.4c3.5,4.4,4.6,8.3,3.8,12.9c-0.7,3.8,1.1,6,5.4,6.6
			c3.9,0.5,5.6-0.9,6.1-4.5c0.2-1.5,0.9-2.9,1.1-4.3c0.9-8.7,3.1-17.3,4.8-25.8c1.8-8.7,4.1-17.3,6.1-26c1.3-5.6-3-6.3-5.4-6.7
			c-2.6-0.4-6.4,1.4-7.2,4.8c-1.2,5.3-2.6,10.5-1.4,16.2c0.7,3.4-0.8,7.2-1.5,10.8c-0.2,1-0.6,2.6-2,2.4c-1.5-0.2-1.1-1.8-1.3-2.9
			c-1.1-7.5-2.2-15-3.1-22.6c-0.3-2.6-1.5-2.6-3.3-1.9c-4.1,1.7-4.9,5.6-4.6,9.1c0.7,6.8-3,12.6-3.5,19c-0.1,0.9-1.1,2-2.9,1.5
			c1.4-10.2-1.8-20.3-0.1-30.5c0.5-2.8,1.4-6.2-4-4.3c-1.5,0.5-3.7-0.7-5.5-1.4c-5.1-2.2-6.3-1.5-6.3,4.1c0,7.2,2.2,14,3.5,21.1
			c2.1,12,6,23.7,5.8,36.1c-0.1,4.6,2.7,5.9,6.7,6c4.3,0.1,5-2.9,5.7-6.2C340.3,74.8,341.4,70.7,342.7,65.4z M535.4,15.7
			c-1.8,0.1-3.7,0-5.4,0.5c-2.7,0.8-6.1,2.7-5.5,5.4c1,4.2,0.2,8.4,1.2,12.6c1.4,6.1,2.7,12.3,2.8,18.6c0.2,8.2,2.2,16.3,0.6,24.5
			c-0.3,1.8,0.6,3,1.6,4.5c3.3,4.9,11.2,5.1,15.5,2.4c2.7-1.7,4.2-4.6,6.9-5.9c5.8-2.7,9.6-6.5,10.1-13.1c0.1-1,0.5-2.2,1.6-3
			c3.3-2.5,3.9-6.6,3.8-10c-0.3-6.5-1.5-13-2.8-19.3c-1.4-7-12.8-16.2-20-16.7C542.4,15.8,538.9,15.5,535.4,15.7z M419.6,81.1
			c2,0,4,0.1,6,0c2.6-0.1,5.7-0.5,6-3.3c0.3-2.6-2.9-4-5.1-4.4c-4.2-0.6-8.3-1.7-12-3.4c-4.5-2.1-10-0.4-13.8-4.4
			c-1-1-2-1.7-1.4-3.3c0.5-1.3,1.6-1.6,2.8-1.6c2.8,0,5.6,0,8.2-1.6c3.1-1.9,6.4-3.4,10.2-3.3c2.8,0.1,5.1-1.4,5.1-4.4
			c0-3.1-2.6-3.5-5.1-3.4c-5.6,0.2-11,0.3-16.4-1.9c-1.4-0.6-2.6-0.4-3.2-2.3c-1.5-4.5-0.7-9.1,3.4-10.6c6.1-2.2,12-6.7,19.2-4.9
			c1.8,0.4,3.3,0.3,3.9-1.9c0.6-2.2-0.2-3.5-2.3-4.2c-4.1-1.4-8-2.6-12.5-2.5c-7.2,0.2-14.5,1.1-21.7-2c-4.1-1.8-10.4,2.1-10.7,5.4
			c-0.5,6.2-0.7,12.3,1.8,18.2c0.6,1.5,0.9,3.2,1,4.9c0.2,11.7-0.2,23.4,1.8,35c0.7,4.4,2,5.6,6.1,3.9
			C400,81.3,409.8,80.7,419.6,81.1z M484.7,62.5c3.3,3.7,8.2,4.2,10.3,8.4c1.9,3.9,5.5,5.8,8.9,8.2c2.8,1.9,6.4,1.8,8.7,4.6
			c0.9,1,2,2.1,3.3,0.5c1.1-1.3,1.9-3.4,0.3-4.4c-6.5-4-7.2-11.7-11.3-17.2c-2-2.8-2-5.3,1.2-7.7c3.9-2.9,6.6-14.9,4.8-19.6
			c-4.3-11.7-13.6-18.1-26.3-18.1c-1.6,0-3.3-0.2-4.9-0.5c-6.1-1.1-11.5,3.5-10.6,9.7c1.4,10.7,3.2,21.4,4.6,32.2
			c1,8.4-1.9,17.6,5.2,24.9c1,1,1.4,3.1,2.9,3c2-0.2,1.2-2.3,1.4-3.7C484.1,76.3,481.9,69.7,484.7,62.5z M448.2,75.6
			c0.2,3.2,0.5,7,0.8,10.9c0.2,2.5,2.1,3,3.3,1.4c1.9-2.6,4.5-4.1,6.9-5.9c2.4-1.8,2.7-4.4,0.8-7c-0.6-0.8-1.6-1.1-1.3-2.8
			c1.7-9.2,3.6-18.3,2.6-27.8c-0.5-4.9-0.2-9.9,2.1-14.7c1.4-3,2.5-8.1-0.4-9.6c-4.1-2.1-8.8-4.1-13.7-3.9c-2.3,0.1-4.4,1.8-3.7,3.7
			c1.1,3.2-0.1,6.1,0.3,9.2c0.9,8.1,3.3,16.2-0.3,24.3c-1,2.2-0.6,5,0.7,7.3C448.6,65.1,449.4,69.9,448.2,75.6z"/>
		<path class="st0" d="M583.4,77c-1.3-6.6,0.8-13,2.2-19.2c1.9-8.1,1.6-16,1.8-24.1c0.3-10.7,1.9-21.8,11.8-28.5
			c7.4-5,15.5-7.1,24.5-3.4c4.5,1.9,10,0.9,13.8,4.7c0.6,0.6,1.2,0.1,1.8-0.3c10.6-9.2,22.8-5.8,34.6-4c4.6,0.7,9,2.5,12.6,5.5
			c1.6,1.3,2.6,1.5,4.1-0.2c3-3.5,7.3-4.5,11.7-4.6c10.6-0.1,21.2-0.1,31.6,2.6c2.5,0.7,5.6-0.2,8.3-0.9c10-2.4,23.7,9.5,19.3,21.9
			c-3.6,10.1-5.6,12.7-16.5,13.5c-2.6,0.2-3.3,1.3-3.7,4.1c-0.9,7.7,0.8,15.5-1.7,23.1c-0.9,2.7,1.4,5.8-0.3,8.7
			c-0.2,0.3-0.1,0.7-0.2,1C736,87.1,721.8,95.6,711.7,93c-3.6-0.9-6.2-1.1-9.2,1.9c-4.4,4.4-13.2,4.3-18.6,0.7
			c-1.2-0.8-2.4-1.8-3.7-2.5c-3.2-1.9-5.5-2.9-8.8,1.3c-5.2,6.5-16.4,7.9-23.7,0.3c-1.8-1.9-2.9-2.1-5.2-0.6
			c-5.5,3.6-11.4,3.9-17.5,1.4c-4-1.7-7.5-2.1-11.8,0.4c-4.8,2.8-10.4,4.9-16.5,3.3c-8.9-2.3-14-9-13.5-18.2
			C583.1,79.7,583.3,78.3,583.4,77z M662.4,61c3.7,3.6,8.5,4.5,10.7,8.8c1.1,2.1,2.9,3.4,4.6,5c3.7,3.4,8.7,4.1,12.5,7
			c1,0.7,1.8,2.7,3.1,1.1c1.1-1.2,2.7-3.5,0.7-4.8c-6.8-4.2-7.3-12.4-11.9-18c-1.3-1.6-1.9-4.2,0.1-5.4c4.1-2.4,5.1-6.4,6-10.4
			c1.7-7,1.1-13.6-4.1-19.4c-8-9.1-18.6-10.2-29.6-9.8c-5.1,0.2-8.7,3.9-8.1,7.5c0.7,4.7,0.9,9.5,2.1,14.2c1.1,4.4,1.5,9,2.3,13.5
			c1.9,10.2-2.9,21.6,5.4,30.8c1.1,1.2,1.4,3.8,3.5,3.5c2.2-0.4,1.1-2.7,1.3-4.3C661.8,74.2,659.8,67.8,662.4,61z M602.4,40.2
			c0.1,7.3-0.7,13.7-2.5,20.2c-2,7-2.3,14.3-2,21.6c0.1,1.2,0.4,2.3,1.6,2.8c2.6,1.1,10.1-3.1,10.1-6c0-5.4,1.8-10.3,3.6-15.3
			c1.7-4.8,5.4-2.4,7.9-2.6c2.2-0.2,4.2,2.6,3.7,4.9c-1,4.4,0.4,8.1,1.8,12c1.3,3.6,5,5.3,8.4,3.5c4-2.1,4.5-4.6,2.3-10.7
			c-1.3-3.5-3-7-2.9-10.9c0.1-5.5-1-10.8-2.4-16.1c-1.6-6-2.9-11.8-1.8-18.3c0.7-4.7-0.6-8.9-6.7-8.3c-2.2,0.2-4.1-0.9-6.1-1.9
			c-4.1-2-10.9,1.5-12.6,5.7C602.2,27.5,601.6,34.1,602.4,40.2z M713.1,68.7c0,3.4,0,5.4,0,7.4c0,1.2-0.1,2.4,1.4,2.8
			c1.3,0.3,2.7,0.7,3.6-0.7c2.9-4.1,8.9-6.6,6.8-13.3c-0.2-0.7,0.2-1.6,0.4-2.4c1.4-5.7,1.9-12,0.9-17.2c-1.2-6.1,3-9.9,3.2-15.1
			c0-0.7,1.3-1.9,2-2c4.4-0.2,7.9-3.7,12.4-3.2c1.9,0.2,3.3-0.2,3.4-2.4c0.2-2.4-1.4-3.4-3.4-3.4c-2.5,0-5,0.5-7.4,1.1
			c-1.8,0.4-3.5,0.6-5.4,0c-8.6-2.6-17.6-2.7-26.5-3.1c-2.2-0.1-4,0.3-4.2,3c-0.2,2.7-0.6,6,2.9,6.5c6.2,1,7.6,4.6,7.2,10.1
			c-0.2,2.8,1.1,5.6,1,8.4c-0.2,5.6,2.7,10.8,1.9,16.3C713,64.5,712.9,67.3,713.1,68.7z"/>
		<path class="st1" d="M193,71.4c2-12.9-2.7-25.2-2.7-38c0-3.5-3-3.6-5.2-4.4c-2-0.8-4.2-1-4.7-3.8c-0.8-4.2,0.4-6.1,4.6-6
			c7.9,0.2,16-0.1,23.7,1.9c2.6,0.7,2.9-2.1,5.1-2c8.9,0.5,17.9-0.1,26.6,2.4c1.9,0.6,3.5,1.1,3.9-1.8c0.4-3,3-2.9,5.1-2.5
			c3,0.6,6,0.7,8.9,0.5c3.8-0.3,5.1,1.7,4.1,4.8c-1.8,5.6,1.2,10.8,0.7,16.3c-0.1,0.9,0.2,2.1,1.6,2.1c1.1,0,2-0.8,2.2-1.7
			c1.1-4.3,3.8-8,3.1-12.9c-0.7-5.7,3.6-9.6,9.2-9.3c6.2,0.4,8.6,5.8,5.5,12.1c-2.4,5-4.5,10.2-7.6,14.9c-6,9.3-5.1,20.4-8.2,30.5
			c-0.1,0.3-0.2,0.7,0,1c3,5.5,0.1,7.6-4.8,9.4c-4.2,1.6-5.3,1.3-5.6-3.2c-0.5-10.8-2.1-21.4-4.2-32c-1.3-6.1-5.2-11.4-6.3-17.7
			c-0.3-1.6-1.7-3.3-4-3c-2.4,0.3-4,1.4-4.4,4c-0.3,2.3-1.3,4.4-2.6,6.4c-0.5,0.8-1.3,2-1.1,2.7c2.4,5.4-0.2,10.9,0.5,16.3
			c0.7,5-1.8,9.6-1.7,14.7c0,2.5-4.7,5.4-7.7,7.4c-1.5,1-3.7-0.4-3.4-2.9c0.6-4.5-0.8-9,0.2-13.4c1.2-5.7-1.9-10.8-1.8-16.4
			c0-4.6-1.6-9.2-1.4-13.9c0.2-4-2.9-4.6-5.7-4.8c-2.8-0.2-5.9,0.1-6.2,4c0,0.2,0,0.4-0.1,0.5c-4.6,8.5-2.1,17.8-2.9,26.7
			c-0.4,4.1-0.6,8.4-1.6,12.2c-0.8,3.2-4.9,5.8-8,8c-1.3,0.9-3.6-0.1-3.5-2.7C193,75.8,193,73.6,193,71.4z"/>
		<path class="st1" d="M125.6,60.3c0.4-11.1-0.3-19-3.1-26.9c-1.3-3.9-1.1-9.8,1.9-13c3-3.3,7.9-3.7,12.9-1.5
			c6.3,2.7,13.2,0.9,19.8,0.9c4.3,0,7.7,1.8,11.4,3c1.9,0.6,1.7,2.2,1.5,3.7c-0.3,1.6-1.5,2.5-2.9,2c-6.9-2.3-12.3,2.7-18.5,3.9
			c-4.8,0.9-7,7.1-5.1,11.4c0.7,1.6,1.7,2,3.3,2.5c5,1.6,10,2.5,15.4,1.9c2.5-0.3,6-0.5,6,3.4c0.1,3.6-2.9,4.6-6,4.5
			c-3-0.2-5.6,1.2-7.9,2.5c-2.9,1.6-5.7,2.5-9,2.4c-1.4,0-2.8-0.1-3.2,1.6c-0.4,1.5,0.5,2.2,1.5,3.3c3.9,4.3,9.7,2.1,14.2,4.4
			c4.3,2.2,9.4,3,14,4.7c1.1,0.4,3.2,0.9,2.7,3c-0.4,1.8-2,2.7-3.6,3c-1.6,0.3-3.3,0.4-5,0.3c-11.1-0.5-22.2-0.3-32.7,4.1
			c-3.9,1.7-5.1-0.3-5.4-3.7C126.8,73.5,124.8,65.6,125.6,60.3z"/>
		<path class="st1" d="M81.4,62.8c-3,7-0.7,13.5-1.8,19.8c-0.2,1.4,0.7,3.4-1.4,3.7c-1.7,0.3-2.1-1.6-3.1-2.7
			c-8.3-9.5-3.5-21.2-5.7-31.7c-0.9-4.2-1.2-8.4-1.9-12.6c-0.7-4-1.5-8.1-2.2-12.2c-1-5.8,3-11.5,8.7-10.7c6.3,0.8,12.9-0.1,19,2.9
			c10,4.9,18.6,14.8,13.2,28.7c-1.2,3-1.9,5.7-4.7,7.5c-2.1,1.4-2.3,3.8-1.1,5.2c3.1,3.7,3.9,8.4,6.2,12.3c1.3,2.2,2.9,4,5,5.5
			c2.2,1.5,2,3.7,0.8,5.3c-1.4,2.1-2.7,0-4-0.8c-2.7-1.6-5.5-2.9-8.3-4.3c-3.6-1.8-6.7-4.1-8.6-7.7C89.4,66.9,84.6,66.3,81.4,62.8z
			 M81.8,42.5c-0.2,6.3-0.2,6.4,3.2,6.5c6.3,0.2,9.8-2.6,10.2-8.1c0.2-2.7-5.5-7.4-9.4-6.9C80.4,34.7,82.5,39.6,81.8,42.5z"/>
		<path class="st1" d="M19.8,63.1c1.6-9.6-3.3-18.5-3.3-27.9c0-3.8-1.1-7.5-1.5-11.3c-0.3-3.4,4.3-8,8.8-7.5
			c7.2,0.7,14.7-0.1,21.3,3.7c6.5,3.8,12.4,9,13,16.5c0.4,5.3,0.2,11.8-3.3,16.7c-2.2,3.1-6.3,4.7-10,4.2c-4.5-0.6-8.3,1.7-12.4,2.3
			c-3.3,0.5-3.6,5.6-3,9.1c0.8,5.2,0.8,10.3-0.1,15.4c-0.1,0.8,0.7,2.1-0.9,2.3c-1.3,0.2-2.1-0.6-2.9-1.6
			C20,78.7,18.9,71.2,19.8,63.1z M35.9,48.9c5.9,0,9.2-2.6,8.9-7c-0.3-4.8-4.6-8.4-9.5-8.2c-1.6,0.1-2.7,0.6-2.9,2.1
			c-0.4,3.6-0.8,7.2-0.7,10.9C31.8,49.4,34.2,48.9,35.9,48.9z"/>
		<path class="st1" d="M342.7,65.4c-1.3,5.2-2.4,9.3-3.3,13.5c-0.7,3.2-1.3,6.3-5.7,6.2c-4-0.1-6.8-1.5-6.7-6
			c0.2-12.4-3.7-24.1-5.8-36.1c-1.2-7-3.4-13.8-3.5-21.1c0-5.6,1.2-6.3,6.3-4.1c1.7,0.7,4,1.9,5.5,1.4c5.3-1.9,4.4,1.5,4,4.3
			c-1.7,10.2,1.5,20.4,0.1,30.5c1.9,0.5,2.9-0.6,2.9-1.5c0.6-6.4,4.2-12.2,3.5-19c-0.3-3.5,0.5-7.4,4.6-9.1c1.8-0.8,3-0.7,3.3,1.9
			c0.9,7.5,2,15.1,3.1,22.6c0.2,1.1-0.3,2.7,1.3,2.9c1.5,0.2,1.8-1.4,2-2.4c0.7-3.6,2.1-7.4,1.5-10.8c-1.1-5.7,0.2-10.9,1.4-16.2
			c0.8-3.4,4.6-5.2,7.2-4.8c2.4,0.4,6.8,1.1,5.4,6.7c-2.1,8.7-4.4,17.3-6.1,26c-1.7,8.5-3.9,17.1-4.8,25.8c-0.2,1.5-0.9,2.9-1.1,4.3
			c-0.5,3.6-2.2,5-6.1,4.5c-4.2-0.6-6.1-2.7-5.4-6.6C347.3,73.7,346.2,69.9,342.7,65.4z"/>
		<path class="st1" d="M535.4,15.7c3.5-0.1,6.9,0.1,10.4,0.4c7.2,0.5,18.6,9.6,20,16.7c1.3,6.4,2.5,12.9,2.8,19.3
			c0.2,3.4-0.4,7.5-3.8,10c-1.1,0.8-1.5,2-1.6,3c-0.5,6.7-4.3,10.4-10.1,13.1c-2.7,1.2-4.2,4.2-6.9,5.9c-4.4,2.7-12.2,2.5-15.5-2.4
			c-1-1.4-1.9-2.7-1.6-4.5c1.6-8.2-0.4-16.3-0.6-24.5c-0.1-6.2-1.4-12.5-2.8-18.6c-1-4.2-0.2-8.4-1.2-12.6c-0.7-2.7,2.7-4.6,5.5-5.4
			C531.7,15.7,533.6,15.8,535.4,15.7z M551.9,45.7c-0.1-7.4-1-9.1-6.4-11.3c-2.5-1-6.5-1.5-6.3,2.1c0.5,7.1,0.5,14.2,0.9,21.2
			c0.1,2.6,2,2.5,3.5,1.5C548.9,55.9,552.9,51.7,551.9,45.7z"/>
		<path class="st1" d="M419.6,81.1c-9.8-0.4-19.5,0.2-28.7,3.9c-4.1,1.7-5.3,0.5-6.1-3.9c-2-11.6-1.6-23.3-1.8-35
			c0-1.6-0.3-3.4-1-4.9c-2.5-5.9-2.3-12-1.8-18.2c0.3-3.4,6.6-7.2,10.7-5.4c7.1,3.1,14.4,2.2,21.7,2c4.5-0.1,8.5,1.1,12.5,2.5
			c2.1,0.7,2.9,2,2.3,4.2c-0.6,2.2-2.1,2.4-3.9,1.9c-7.2-1.8-13.1,2.6-19.2,4.9c-4.1,1.5-4.9,6.1-3.4,10.6c0.6,1.9,1.8,1.8,3.2,2.3
			c5.3,2.2,10.8,2.1,16.4,1.9c2.5-0.1,5.1,0.3,5.1,3.4c0,3-2.2,4.4-5.1,4.4c-3.8-0.1-7.1,1.4-10.2,3.3c-2.6,1.6-5.4,1.6-8.2,1.6
			c-1.3,0-2.3,0.3-2.8,1.6c-0.6,1.5,0.4,2.2,1.4,3.3c3.9,4,9.4,2.3,13.8,4.4c3.7,1.7,7.8,2.8,12,3.4c2.3,0.4,5.4,1.7,5.1,4.4
			c-0.3,2.8-3.4,3.2-6,3.3C423.6,81.2,421.6,81.1,419.6,81.1z"/>
		<path class="st1" d="M484.7,62.5c-2.7,7.2-0.6,13.8-1.6,20.2c-0.2,1.4,0.6,3.5-1.4,3.7c-1.5,0.2-1.9-2-2.9-3
			c-7.1-7.3-4.1-16.5-5.2-24.9c-1.3-10.8-3.1-21.4-4.6-32.2c-0.8-6.1,4.5-10.8,10.6-9.7c1.6,0.3,3.3,0.4,4.9,0.5
			c12.7,0.1,21.9,6.4,26.3,18.1c1.8,4.7-0.9,16.7-4.8,19.6c-3.2,2.4-3.2,4.9-1.2,7.7c4,5.5,4.8,13.2,11.3,17.2
			c1.6,1,0.8,3.1-0.3,4.4c-1.3,1.5-2.4,0.5-3.3-0.5c-2.3-2.7-6-2.7-8.7-4.6c-3.4-2.4-7-4.3-8.9-8.2
			C492.9,66.7,487.9,66.2,484.7,62.5z M488.9,48.9c6.8-0.1,10.1-3,10.1-8.4c0-2.5-6.5-7.5-9.8-6.6c-6.5,1.7-2.6,7.7-3.9,11.6
			C484.3,48.5,486.6,49.2,488.9,48.9z"/>
		<path class="st1" d="M448.2,75.6c1.2-5.7,0.3-10.5-2.2-15c-1.3-2.3-1.6-5.1-0.7-7.3c3.6-8.1,1.2-16.2,0.3-24.3
			c-0.3-3.1,0.8-6-0.3-9.2c-0.6-1.9,1.4-3.6,3.7-3.7c5-0.2,9.7,1.8,13.7,3.9c3,1.5,1.9,6.6,0.4,9.6c-2.2,4.8-2.6,9.8-2.1,14.7
			c1.1,9.5-0.8,18.6-2.6,27.8c-0.3,1.7,0.7,2,1.3,2.8c1.9,2.6,1.6,5.2-0.8,7c-2.4,1.8-5,3.3-6.9,5.9c-1.2,1.6-3.1,1.1-3.3-1.4
			C448.7,82.7,448.5,78.8,448.2,75.6z"/>
		<path class="st1" d="M662.4,61c-2.6,6.8-0.7,13.2-1.5,19.4c-0.2,1.5,0.9,3.9-1.3,4.3c-2,0.3-2.3-2.3-3.5-3.5
			c-8.3-9.2-3.5-20.6-5.4-30.8c-0.8-4.5-1.2-9.1-2.3-13.5c-1.2-4.7-1.3-9.5-2.1-14.2c-0.6-3.6,3-7.4,8.1-7.5
			c11-0.4,21.6,0.7,29.6,9.8c5.2,5.8,5.8,12.4,4.1,19.4c-0.9,4-1.9,7.9-6,10.4c-1.9,1.1-1.4,3.7-0.1,5.4c4.6,5.6,5.1,13.8,11.9,18
			c2.1,1.3,0.4,3.5-0.7,4.8c-1.3,1.6-2.2-0.4-3.1-1.1c-3.8-2.9-8.8-3.6-12.5-7c-1.7-1.6-3.6-2.9-4.6-5C671,65.5,666.1,64.6,662.4,61
			z M663.1,41.2c0.2,2.8-1.4,5.9,3.2,6c6.4,0.2,10.1-2.6,10.5-8.2c0.2-2.4-6-7.3-9.7-6.8C661.1,33,664.6,38.5,663.1,41.2z"/>
		<path class="st1" d="M602.4,40.2c-0.8-6.1-0.2-12.7,2.4-19.2c1.7-4.2,8.5-7.7,12.6-5.7c2,1,3.9,2.1,6.1,1.9
			c6.1-0.5,7.5,3.7,6.7,8.3c-1,6.4,0.2,12.2,1.8,18.3c1.4,5.2,2.5,10.6,2.4,16.1c-0.1,3.9,1.7,7.4,2.9,10.9c2.2,6,1.7,8.5-2.3,10.7
			c-3.4,1.8-7.1,0-8.4-3.5c-1.5-3.9-2.9-7.6-1.8-12c0.5-2.3-1.5-5.1-3.7-4.9c-2.6,0.3-6.2-2.2-7.9,2.6c-1.8,5-3.5,9.9-3.6,15.3
			c0,2.8-7.5,7-10.1,6c-1.3-0.5-1.6-1.6-1.6-2.8c-0.3-7.3,0-14.6,2-21.6C601.7,54,602.5,47.5,602.4,40.2z M619.5,32.4
			c-2,3.2-2.7,6.5-2.6,10.1c0.1,2.1,1.3,2.9,3.3,2.7c1.7-0.2,2.7-0.6,2.7-2.7C622.8,38.8,623,35.1,619.5,32.4z"/>
		<path class="st1" d="M713.1,68.7c-0.1-1.4-0.1-4.2,0.3-7.1c0.8-5.6-2.1-10.8-1.9-16.3c0.1-2.8-1.2-5.6-1-8.4
			c0.4-5.6-1-9.2-7.2-10.1c-3.5-0.5-3.1-3.8-2.9-6.5c0.2-2.7,2-3.1,4.2-3c8.9,0.4,17.9,0.5,26.5,3.1c1.9,0.6,3.5,0.4,5.4,0
			c2.4-0.6,4.9-1,7.4-1.1c1.9,0,3.5,1,3.4,3.4c-0.2,2.3-1.5,2.6-3.4,2.4c-4.5-0.5-8,2.9-12.4,3.2c-0.7,0-2,1.3-2,2
			c-0.2,5.1-4.4,8.9-3.2,15.1c1,5.2,0.5,11.5-0.9,17.2c-0.2,0.8-0.7,1.7-0.4,2.4c2.1,6.7-3.9,9.2-6.8,13.3c-1,1.4-2.4,1-3.6,0.7
			c-1.5-0.4-1.4-1.6-1.4-2.8C713.1,74.1,713.1,72.1,713.1,68.7z"/>
		<path class="st0" d="M81.8,42.5c0.7-2.8-1.5-7.7,4-8.4c3.9-0.5,9.5,4.2,9.4,6.9c-0.3,5.5-3.9,8.3-10.2,8.1
			C81.7,48.8,81.6,48.8,81.8,42.5z"/>
		<path class="st0" d="M35.9,48.9c-1.8-0.1-4.2,0.4-4.2-2.2c-0.1-3.6,0.3-7.2,0.7-10.9c0.2-1.4,1.3-2,2.9-2.1
			c4.9-0.2,9.3,3.4,9.5,8.2C45.1,46.4,41.9,48.9,35.9,48.9z"/>
		<path class="st0" d="M551.9,45.7c1,6.1-3.1,10.2-8.2,13.6c-1.6,1-3.4,1.1-3.5-1.5c-0.4-7.1-0.4-14.2-0.9-21.2
			c-0.2-3.6,3.7-3.1,6.3-2.1C550.9,36.6,551.9,38.3,551.9,45.7z"/>
		<path class="st0" d="M488.9,48.9c-2.3,0.3-4.6-0.5-3.6-3.4c1.3-3.9-2.6-9.9,3.9-11.6c3.3-0.9,9.8,4.1,9.8,6.6
			C499,46,495.6,48.8,488.9,48.9z"/>
		<path class="st0" d="M663.1,41.2c1.5-2.7-2-8.2,4-9c3.7-0.5,9.8,4.4,9.7,6.8c-0.4,5.6-4.1,8.4-10.5,8.2
			C661.7,47.1,663.3,44,663.1,41.2z"/>
		<path class="st0" d="M619.5,32.4c3.5,2.7,3.3,6.4,3.4,10.1c0.1,2.1-1,2.5-2.7,2.7c-2,0.2-3.3-0.6-3.3-2.7
			C616.8,39,617.5,35.6,619.5,32.4z"/>
	</g>
</g>
</svg>
