<?xml version="1.0" encoding="utf-8"?>
<!-- Generator: Adobe Illustrator 21.0.2, SVG Export Plug-In . SVG Version: 6.00 Build 0)  -->
<svg version="1.1" id="Layer_1" xmlns="http://www.w3.org/2000/svg" xmlns:xlink="http://www.w3.org/1999/xlink" x="0px" y="0px"
	 viewBox="0 0 864.7 860.6" style="enable-background:new 0 0 864.7 860.6;" xml:space="preserve">
<style type="text/css">
	.st0{fill:#FFFFFF;}
</style>
<g id="HO1ANE_1_">
	<g>
		<path class="st0" d="M573.9,673.2c-1.9-1.6-4-3.3-4.9-5.7c-8.4-23.2-36.8-27.7-53.7-23c-12.5,3.4-23.3,9.6-29.9,21.6
			c-3.9,7.1-9.9,12.9-13,21.3c-3.4-4.2-5-8.5-7.2-12.4c-2.7-5-5.6-10.1-10.2-13.4c-7.8-5.7-11.5-13.9-15.7-22
			c-1.6-3-0.7-3.9,2.4-3.8c4.8,0.1,9.7,0.2,14.5,0.2c10.9-0.1,17.1-9.1,13-19.3c-3.3-8.2-7.4-16-10.8-24.1c-4.2-10-7.6-20.2-12-30
			c-5.7-12.6-13.3-24.2-22.5-34.6c-3.2-3.6-2.4-8.2-3.9-12.1c-2.2-5.7-0.8-10,3.4-14.8c5.6-6.3,9.7-13.8,15.2-20.3
			c1.9-2.3,1.5-4.9,0.7-7.6c-2.8-9.6-9-17.4-13.4-26.1c-4.7-9.3-9.8-18.6-16.1-27c-1.5-2-1.2-3.6-0.2-5.9
			c8.1-18.9,23.7-32.8,33.6-50.5c4.7-8.4,10.2-16.3,17.9-22.4c2.9-2.3,2.5-5.6,1.1-8.7c-3.5-7.4-7.3-14.6-10.4-22.1
			c-5.5-13.4-10.7-26.9-17.3-39.8c-1.2-2.4-2.3-4.8-3.6-7.1c-4.8-8.9-4.8-8.7,5.1-8.9c43.2-1,86.2,2.6,129.4,1.9
			c6.3-0.1,12.6,0.9,18.9,1.7c3,0.4,6,0.5,8.8-0.7c0.6-0.3,1.3-0.7,1.9-0.6c8.8,1.7,17.6,3.2,26.4,5.2c4.1,0.9,5.4,4.8,6.4,8.3
			c5.6,19.1,8.9,38.5,9.8,58.4c1.4,32.3,0.3,64.6,1,96.9c0.4,19,0.6,37.9,0.1,56.9c-0.3,9.1-0.1,18.3-0.1,27.4
			c0,7.6,2.1,15.4,1.9,23.2c-0.1,3.4-1.1,6-3.4,8.5c-10.5,11.8-22.9,20.9-37,28.2c-7.1,3.7-13.8,8.6-20.7,12.8
			c-5.9,3.7-7.7,10.1-8.1,16.9c-1.3,24-0.7,47.9,3.8,71.6C575,672,575,672.6,573.9,673.2z M520.6,526.6c18.8-1.3,37.5-2.4,56.2-4.9
			c8.3-1.1,16.5-14.3,15.3-20.3c-3.3-17.4-2.3-35-3.6-52.5c-0.9-12.1-1.8-24.1-3.3-36.1c-2.2-17.6-6.5-34.8-11.7-51.7
			c-2.8-8.9-5.9-17.5-7.7-26.7c-1.1-5.6-2.9-11.2-7-15.8c-5.6-6.2-12.9-5.2-16.6,2.4c-5.3,10.9-9.6,22.1-14.1,33.3
			c-5.7,14.1-12.7,27.6-17.7,42c-3.8,10.9-9.7,20.8-14,31.5c-5.9,14.3-12.3,28.2-19,42.1c-5.5,11.5-10.9,23-14.7,35.2
			c-1.7,5.4-0.9,10,3.4,14.1c5.4,5.2,11.3,7.9,19,7.5C497,526.2,508.8,526.6,520.6,526.6z"/>
		<path class="st0" d="M361.1,689.7c-4-12-4.8-24.7-10.4-36c-2.1-4.2-4.1-8.4-7.2-11.9c-5-5.6-10.9-9-18.7-8.8
			c-12.2,0.4-24.1,1.3-33.1,11.8c0.7-8.5,1.6-16.9,2-25.4c0.6-12.8,3-25.5,0.9-38.4c-1.5-9.1-5.5-13-14.6-14.5
			c-1-0.2-2.2-0.2-2.8-0.8c-9.6-9-22.1-11.8-34-15.6c-10.9-3.4-17.1-10-19.3-21.1c-3.1-15.8-8-31.3-9.2-47.5
			c-1.7-22.9-2.8-45.8-2-68.9s0.5-46.3,0.5-69.5c0-10.2,0.9-20.3,1.8-30.4c0.8-8.8,5.2-16.1,11.1-22.4c11.8-12.6,26-20.7,43-24.6
			c19.9-4.6,40.2-5.2,60.3-7.9c12-1.6,23.9-4.2,36-5.4c13-1.3,25.9-0.9,38.9,0.3c1.4,0.1,2.4,0.5,2.9,2.1c2.9,8.8,7.7,16.9,9.2,26.3
			c1.1,6.5,4.8,12,8.1,17.6c5.7,9.8,10.9,19.8,15.3,30.2c2.6,6.2,1.8,11.2-2.8,15.9c-10.6,11.1-20.6,22.6-28.2,36.1
			c-5,8.8-8.8,18.3-14.3,26.9c-2.7,4.2-2.5,9.7,0.7,13.8c10.9,14,16.2,31.4,27,45.4c2.4,3.1,0.5,5.3-1.3,7.4
			c-5.7,6.5-11.1,13.2-16,20.4c-3.6,5.3-5.1,10.6-3,16.9c2,6.2,3.1,12.6,6.1,18.4c1,2,0.6,3.8-0.1,5.8
			c-8.9,23.5-16.4,47.4-21.1,72.2c-1,5.2-2.9,10.2-4.4,15.4c-2.4,8.7,2.8,15.3,11.7,14.2c7.2-0.9,14.3-0.8,21.4-0.9
			c8.3-0.1,11,2.2,12.8,11.2c-6.2-1.3-12.3-1-18.4-1c-13.8,0.2-24.7,5.4-32,17.7c-4.7,8-9.9,15.6-15,23.3
			C362.6,688.7,361.8,689.1,361.1,689.7z M329.2,521.7c3.5,0.2,7,0.6,10.5,0.4c9.4-0.3,19,1.6,27.9-2.8c8.5-4.2,11.9-10.2,9-17.8
			c-1.8-4.7-3.2-9.5-4.6-14.3c-3.9-13.7-12.3-25.3-17.2-38.6c-3.7-10.2-10.9-18.6-15-28.8c-7.2-17.7-13.9-35.7-19.8-53.8
			c-5.1-15.7-12.4-30.5-17.8-46.1c-2.3-6.6-7.7-10.1-14.5-10.4c-6.5-0.3-8.9,5-11,10c-10.4,24.2-13.6,50.1-15.6,75.9
			c-1.9,24.3-2.3,48.9-1.5,73.4c0.3,8.8,1.1,17.5,2.6,26.3c2.5,15.1,10.9,22.5,25.8,25.3C301.7,523.1,315.4,521.1,329.2,521.7z"/>
		<path class="st0" d="M186.8,395.6c-0.9,16.3-1.4,32.6-0.7,48.9c0.8,19.4,0,39.1,4.8,58.1c2.3,9.1,0.1,14.5-6.9,19.9
			c-6.6,5.1-13.4,9.7-20.5,14c-10.2,6.1-19.2,13.7-28.4,21.1c-2.8,2.2-3.7,1.9-5.4-1.2c-8-14.8-11.1-31.3-17.3-46.7
			c-12.3-30.9-22.5-62.6-33.2-94.1c-9.8-29-19.9-57.9-27.9-87.4c-6-22-11.3-44.1-18.1-65.9c-0.3-0.9-1-2.1-0.1-2.8
			c1.3-1.1,2.1,0.4,2.9,1.1c14.8,11.3,28.6,23.8,42.4,36.3c11.2,10.1,21.3,21.4,33.8,30.1c10.8,7.5,19.1,18,29.7,25.8
			c13.6,10,27,20.6,42.4,27.9c1.9,0.9,2.6,2.4,2.5,4.4C186.7,388.6,186.8,392.1,186.8,395.6z M168.3,456.5c-0.2-2.6,1.1-5.4-0.7-7.8
			c-3.8-5.2-7.1-11-11.6-15.5c-11.7-11.7-21.6-24.8-32.3-37.3c-6-6.9-12-13.8-18.2-20.6c-2.1-2.3-4.7-3.3-6.3,0.4
			c-2,4.5-2.9,9.1-1.1,14c1.5,4.1,3.3,8,5.8,11.6c13.1,18.8,26.3,37.6,39.6,56.3c1.3,1.8,1.8,3.2,1.3,5.4c-1.1,4.7-1.3,9.5,0,14.3
			c1.2,4.6,3.8,7.6,8.9,8c5,0.4,9-1.9,10-6.5C165.5,471.4,168.3,464.2,168.3,456.5z"/>
		<path class="st0" d="M662.3,488.2c2.6-35.4,1.5-73.4,1.8-111.3c0-2-0.3-4.2,2.3-5c9.1-2.8,15.8-9.7,23.7-14.5
			c14.5-9,26.2-21.6,39.7-31.8c17.1-13,33.2-27.1,50.2-40.2c9.6-7.5,17-17.3,26.4-25c1.1-0.9,2-3,3.6-2.1c2,1.1,0.3,2.9,0,4.4
			c-6,22.3-12,44.7-16.4,67.4c-2.6,13.2-6.8,26.1-10.3,39.1c-4.2,15.7-7.3,31.8-10.7,47.7c-5.5,26-15.4,50.5-25.2,75.1
			c-5.1,13-9.4,26.3-13.9,39.5c-1.2,3.4-2.5,4.1-6.2,3.3c-19.2-4.3-35.2-15.1-52-24.4c-0.7-0.4-1.4-0.9-2.1-1.3
			C662.3,503.1,662.3,503.1,662.3,488.2z M703.3,497.3c7.9-0.1,13.5-4.4,13.7-10.8c0.1-3.3,0-6.8-0.9-9.9c-3.8-12.4-5.3-25-5.7-37.9
			c-0.1-3.4,0.5-6,2.8-8.6c10.4-11.9,20.5-24,27.4-38.4c3.5-7.3,7.9-14.4,8.1-22.8c0.2-8.6-8.1-13.6-15.5-9.4
			c-3.1,1.7-6,3.8-8.2,6.5c-15.7,19.3-31.4,38.7-47,58.1c-1.8,2.2-2.1,5.1-2.8,7.9c-2,8.7,0.8,16.8,1.9,25.2
			c1.9,13.7,6.7,26,16.4,36.1C696.4,496.1,699.4,497.6,703.3,497.3z"/>
		<path class="st0" d="M198.2,179.7c4.7,6.3,9.8,10.7,15.3,14.5c12.4,8.6,23.3,19,35.2,28.2c1.2,1,4.7,2.3,2.9,4.8
			c-1.7,2.3-4.3,1.2-6.7-0.2c-4.9-2.8-9.2-6.2-13.2-10.2c-8.9-8.9-19.5-15.9-29-24.1c-1-0.9-2.3-2-3.4-0.8c-1.1,1.2-0.1,2.5,1,3.4
			c2.8,2.6,5.5,5.4,8.5,7.7c6.1,4.5,12.4,8.7,17.5,14.4c3.8,4.2,8.5,7.3,12.9,10.8c1.1,0.8,3.3,1.4,1.6,3.1
			c-1.1,1.2-2.8,2.7-4.8,1.2c-1.2-0.9-2.4-1.8-3.6-2.7c-17.6-14.7-35.8-28.8-53.4-43.5c-9.3-7.7-19.4-14.6-27.7-23.5
			c-7.6-8.2-17.4-9.2-27.2-7c-12.1,2.7-24.6,4.2-36.4,8.5c-2.9,1-4.9,0.5-7-1.9c-7.6-8.8-15.4-17.5-23.2-26.1
			c-2.3-2.6-0.9-4,0.9-5.8c10.7-10.9,23.6-18.8,35.9-27.7c3.9-2.8,8-5.5,11.6-8.7c2.4-2.1,4.2-2.1,6.5-0.1c3.4,2.9,6.8,5.8,10.3,8.6
			c4.2,3.4,9.1,4.6,14,2.1c4.6-2.3,6-6.6,5.8-11.8c-0.3-7.2,0-14.3-0.1-21.5c-0.1-3.2,1.1-5.5,3.7-7.7c13.6-11.3,28.3-21,44.2-28.8
			c1.9-0.9,3.2-1.4,4.6,0.6c9,13.4,20.2,25.2,28.2,39.2c2.2,3.8,1.8,6.5-1.2,9.7c-7.6,8.1-16.7,14.8-22.6,24.5
			c-2.2,3.5-4.4,7.1-6.3,10.7c-2.1,4.1-2.2,8.2-0.1,12.4c4.9,9.9,13.3,16.9,20.3,25.1c18.8,22,39.6,42.2,60.6,62.1
			c0.9,0.9,2.5,2,1.5,3.2c-1.3,1.6-2.7,0.2-3.8-0.8c-11.3-10.5-22.7-21-34-31.6c-6.5-6.2-13.5-11.8-20.8-17.1
			c-1.2-0.9-2.8-2-3.9-0.3c-1,1.5,0.6,2.5,1.6,3.2c17.2,13.4,32.3,29.2,48.2,44.1c1.3,1.2,4,2,2.8,4c-1.3,2.1-4.2,2.1-6.3,0.9
			c-4-2.3-8.3-4.6-11.5-7.8c-13.3-13-29-23.2-43.3-35C203,181,201.6,179.8,198.2,179.7z"/>
		<path class="st0" d="M185.8,716.5c2.3-0.1,2.8-2,3.7-3.2c10.3-14.1,21.6-27.2,34.4-39.1c8-7.4,14.4-16.4,21.8-24.5
			c1.3-1.4,2.6-4.9,5.2-2.9c2.7,2.1,2.2,5.1-0.2,7.8c-12.4,13.9-25.7,27-37.2,41.7c-16.2,20.6-32.5,41.3-44.3,65
			c-4.6,9.2-3.5,16.8,4.4,25.5c3.9,4.3,7.8,8.7,12.8,11.8c2.1,1.3,3,2.7,1.3,4.8c-7.3,9.5-13.3,19.9-21.1,29
			c-2.8,3.3-5.8,4.7-10,3.6c-15.5-3.8-31.5-5-47.1-8.5c-7.5-1.7-7.9-1.9-7.1-9.7c0.6-6.1,2-12.1,3.4-18.1
			c2.4-10.7-5.6-19.4-16.4-17.4c-7.8,1.5-15.6,3.4-23.3,5.4c-3,0.8-4.2,0.2-4.9-2.8c-3.4-15.4-6.2-31-11.4-45.9
			c-1-2.9,0.3-4.2,3.1-5c7.7-2.2,15.6-3.1,23.2-6c8.7-3.3,17.6-6,26-10.2c4-2,6.5-2,8.1,3.1c1.8,5.6,5.3,10.3,10,14
			c6.1,4.8,11.7,4.7,17.4-0.5c7-6.3,11.8-14.4,17.6-21.7c10.5-13.2,23.2-24.2,35.7-35.4c16.9-15.3,33-31.4,48.1-48.4
			c1.2-1.3,1.7-5.2,4.5-2.9c2.2,1.7,0.6,4.2-0.9,6.1c-8.7,10.7-18.1,20.8-27.9,30.7c-14,14.1-27.3,29-40.9,43.6
			c-1.1,1.2-3,2.7-1.5,4.2c1.6,1.6,2.8-0.5,3.9-1.6c18.1-18.5,35.4-37.8,53.8-56c4.4-4.4,7.8-9.9,12-14.5c1.1-1.2,2.6-4.6,5-2.2
			c1.8,1.8,2.1,4.8-0.1,7.2c-11.8,12.5-22.9,26-35.9,37.9c-10.2,9.3-19,20.4-25.4,33C185.4,715,185.1,715.6,185.8,716.5z"/>
		<path class="st0" d="M786.6,748c-3.5,0.3-6.9,0.8-10.1,2.5c-4.3,2.3-8.7,4.3-13.1,6.1c-11.3,4.7-10.7,13.2-6.3,21.8
			c2.9,5.6,6.5,10.9,10.7,15.6c2.6,2.9,2.2,4.8-0.6,7c-4.7,3.7-9.5,7.3-14.1,11.1c-5.9,4.9-11.8,9.7-16.4,16
			c-1.9,2.6-3.7,3.1-6.6,1.2c-6.1-4-12.5-7.6-18.8-11.3c-3.1-1.8-4.4-3.6-2.5-7.6c4.6-9.8,8.6-19.8,12.6-29.9
			c2.1-5.3,0.8-10.4-2.5-14.6c-14.4-18.3-29-36.4-43.6-54.6c-0.1-0.1-0.3-0.2-0.3-0.4c-14-23.8-35.6-41.7-51.3-64.1
			c-0.5-0.7-1-1.3-1.5-2c-1.1-1.8-0.2-3.2,1-4.4c1.8-1.7,2.6,0.2,3.5,1.2c10.1,11.5,20.2,23,30.2,34.6c3.3,3.8,6.9,7.2,11.2,9.9
			c1.1,0.7,2.5,1.6,3.6,0.2c1.1-1.5-0.4-2.4-1.3-3.3c-14.8-14.2-27.3-30.5-41.1-45.6c-1-1.1-2.6-2-1.9-3.8c0.7-1.6,0.7-3.9,2.7-4.5
			c1.7-0.5,2.5,1.3,3.5,2.4c14.3,14.6,27.4,30.4,40.6,46c0.5,0.6,0.9,1.4,1.6,1.9c1.4,1,2.8,3.3,4.6,1.5c1.9-1.9-0.5-3.1-1.6-4.4
			c-10.7-12.3-20.6-25.3-32-37c-4.1-4.2-8.1-8.4-12.1-12.6c-0.8-0.8-1.6-1.7-2.2-2.7c-0.7-1.2-1.1-2.7,0.3-3.6
			c1.2-0.9,2.1,0.3,2.9,1.1c6.1,6.4,12.3,12.7,18.3,19.1c9,9.8,18,19.6,27.6,28.8c1.4,1.4,3,2.7,4.5,3.9c1.1,0.9,2.5,2.5,3.8,0.9
			c1-1.1-0.5-2.4-1.4-3.3c-9.5-9.8-19.1-19.4-28.4-29.3c-7.9-8.5-16.1-16.7-24.7-24.5c-2.1-1.9-5.7-5.3-3.9-6.8
			c2.9-2.3,4,2.4,6.1,4.1c5.7,4.7,9.8,10.8,15,15.9c7.9,7.8,14.6,17,23,24c20.5,17.1,36.7,38.4,57.3,55.3c2.2,1.8,4.4,3.6,6.7,5.1
			c6.3,4,12.6,5.5,19.5,0.9c6.7-4.4,14.5-6.6,22.4-7.8c5.6-0.9,10.8-3.3,16.1-5.4c4.7-1.9,8.1-0.7,11,3.6
			c8.9,13.1,18.2,25.8,29.8,36.7c2.2,2.1,2.3,3.6,0.3,5.8c-6.1,6.7-13.5,11.8-20.4,17.5c-1.8,1.5-3.2,0.6-4.8-0.7
			c-6.3-5.1-12.8-10.1-19.2-15.1C792.2,748.6,789.6,747.8,786.6,748z"/>
		<path class="st0" d="M665.8,177.5c-5,0.6-8,4.2-10.6,7.5c-9.9,12.7-19.4,25.7-29.1,38.6c-0.6,0.8-1.3,1.6-1.7,2.4
			c-2.5,4.7-5.1,2.8-8.3,0.6c-3.6-2.5-3.1-4.5-0.7-7.6c12.6-16.3,25-32.8,37.5-49.2c1.4-1.8,2.7-3.7,3.1-6.1
			c-2.6-0.5-3.5,1.3-4.7,2.5c-11.5,12.1-20.8,25.9-30.7,39.2c-3.2,4.3-6.3,8.6-9.2,13c-3.2,4.8-5.4,0.4-7.8-0.8
			c-3.2-1.6-1.4-3.3,0.2-5c8.1-8.7,13.4-19.4,21.2-28.3c5-5.8,10.2-11.4,15-17.3c1.4-1.7,3.8-3.5,2.5-7.2c-6,4.7-10,10.6-15,15.5
			c-10.6,10.3-17.4,23.5-26.4,35c-2.6,3.3-4.3,3-7.3,1c-2.9-1.9-2.7-3.2-0.7-5.8c8.9-11.4,18.4-22.4,26.8-34.1
			c7.9-11.1,16.5-21.7,24.6-32.7c2.8-3.7,5.7-7.3,8.7-10.9c5.5-6.5,6.3-13.4,1.7-20.6c-5.9-9-10-18.7-13.8-28.7
			c-1.4-3.6-0.6-5.1,3.3-5.7c14.8-2.4,29.8-2.8,44.3-7c2.9-0.8,4,0.7,4.3,3.3c1.9,16.4,3.9,32.7,5.8,49.1c0.2,1.3,0.2,2.7,0.5,4
			c2,10,8.2,14.4,18.3,13.3c15.4-1.7,30.9-2.1,46.4-2.1c3.8,0,4.9,1.6,4.8,5.1c-0.4,10.3-0.6,20.6-0.7,31c0,3.5-1.3,4.9-4.7,4.7
			c-8-0.5-16-0.7-23.9-1.5c-10.5-1-21-0.7-31.4,0.9c-9.6,1.5-15.1,9.3-21.3,15.7c-14,14.2-27.8,28.7-41.6,43.1
			c-2.2,2.3-3.9,4.9-6,7.3c-0.9,1.1-1.9,2.9-3.6,1.4c-1.5-1.3,0.3-2.3,1-3.3c11.7-15,23.5-30,35.1-45.1c1-1.3,3.1-2.4,1.9-4.9
			c-4.2,1.3-6.7,4.7-9.4,7.7c-10.9,12.6-20.9,25.9-30.1,39.8c-1,1.5-2,4.7-4.1,1.9c-1.7-2.1-7.3-3.2-3.8-7.6
			c12.6-15.8,24-32.6,37.4-47.7C664.7,180.8,666,179.7,665.8,177.5z"/>
		<path class="st0" d="M525.9,727c-2,2.5-1.5,4.9-1.5,7.1c-0.3,19,1.5,37.9,2.6,56.9c0.4,6.3,0.4,12.6,0.6,19
			c0.1,2.3-0.8,3.4-3.2,3.4c-1.7,0-3.3,0.4-4.9,0.6c-6.4,0.9-6.1,1-5.7-5.8c0.9-15.6,2.8-31.3-3.4-46.4c-1-2.4-1.5-5.1-3.9-7.4
			c-1.3,2.4-1.6,4.8-1.5,7.2c0.9,16.7,0.2,33.3,0.4,50c0,3-0.8,4.2-3.9,4.1c-3,0-6,0.4-8.9,1c-3,0.6-4.5-0.3-4.5-3.4
			c0-27.1-2.5-54.4,0.3-81.4c1.8-16.6,4.2-33.4,11.1-48.9c4.7-10.4,13.4-16.3,23.9-19.7c7-2.3,12.8,1.5,17.8,5.6
			c15.9,13,26.7,29.4,31.6,49.5c3.8,15.5,8,30.9,11.7,46.5c3.2,13.5,3.1,27.4,5.3,41.1c0,0.2,0,0.3,0,0.5c-0.7,2.9,2.9,7.6,0.8,7.9
			c-3.7,0.6-7.9-1.5-11.8-2.9c-1.9-0.7-1.2-2.9-1.1-4.5c0.2-10.8,0.5-21.6-1.3-32.4c-0.5-2.7-1.3-5.2-2.7-7.4
			c-0.7-1.1-1.3-2.8-2.7-2.7c-1.8,0.2-1.6,2.3-2.1,3.6c-1.1,3.2-0.5,6.6-0.3,9.9c0.6,9.6,1.1,19.3,1.9,28.9c0.3,3.5-0.6,5-4.3,4.6
			c-3.3-0.3-7.4,0.9-9.7-0.7c-2.5-1.8,0.1-5.8,0.3-8.9c1.5-26.6-2.9-52.4-9.4-77.9c-0.5-1.8-0.8-4.6-3.4-4.1c-2.2,0.4-1.4,3-1.5,4.8
			c-1.2,19.7,1.6,39.2,3.4,58.8c0.8,8.1,1.1,16.3,2,24.4c0.6,5.7-3.5,3.8-6.2,4.3c-3.6,0.6-4.2-1.1-4-4.3c1.6-21.2,0-42.3-5.3-62.9
			C530.7,738.9,529.3,732.8,525.9,727z"/>
		<path class="st0" d="M425.8,726.9c-2.1,3.5-2.4,6.8-3,10c-3.1,16-2.4,32.2-0.8,48.3c0.6,6.5,1.5,12.9,2.6,19.3
			c0.4,2.4,1.5,4.7,2.1,7.1c0.5,2.3,3.7,3.6,2.4,6.5c-0.3,0.8-11.9,0.6-12.8-0.1c-1.5-1.3-1.1-3-1.1-4.7c-0.7-26,0.2-52,1.5-77.9
			c0.4-7,0.5-14,0.6-21c0-1.7,0.4-3.6-1.4-5.5c-4.2,5.7-5.8,12.1-7.2,18.5c-4.5,21.2-4.7,42.6-3.7,64.1c0.4,7.8,0.7,15.6,1.7,23.4
			c0.1,0.8,0.3,2.1-0.1,2.4c-2.9,1.9-6.1,0.8-9.2,0.8c-2.5,0-2.6-2.1-2.6-4c-0.2-15.8-0.4-31.7-0.6-47.5c-0.1-8.9-0.1-8.9-4.8-17.4
			c-3.7,6.5-5.7,13.1-5.9,20c-0.5,15.3-0.9,30.6,0.4,45.9c0.1,1.3-0.1,2.1-1.2,2.1c-3.8,0-7.7,0.1-11.5-0.4
			c-2.3-0.3-2.1-2.6-2.2-4.5c-0.1-15.8,0.9-31.6,3.6-47.2c2.4-13.4,4.2-27,6.6-40.4c3.2-17.4,10.1-33.1,23.6-45.1
			c4.3-3.8,10-5.2,15.1-7.5c1.8-0.8,3.5,0.2,5.3,0.9c12.7,5.2,18.7,16,23.1,27.9c6.7,18.1,9.6,37,12.1,56
			c2.5,18.8,5.1,37.6,7.9,56.3c0.5,3.1-0.3,4.2-3.3,4.6c-11,1.5-10.6,1.3-7.6-9c4.7-16.3,3.5-32.3-5.9-47c-1.5-2.4-2.8-1.5-3.3,0.6
			c-1.8,7.4-5,14.5-5,22.3c0.1,9.5-0.7,19,1,28.4c0.4,2.2,1.4,5.1-3,5.2c-3.7,0.1-4.1-1.6-4.4-4.8c-1.9-25.9-2.1-51.9-6.5-77.6
			C428.1,733.3,427.9,730.3,425.8,726.9z"/>
		<path class="st0" d="M302.9,742.3c-4.1,6.1-5.8,13.2-6.5,20.4c-1.3,13.5-1.4,27,1.7,40.3c0.7,3-0.4,4-3.2,4
			c-11.2-0.1-11.6-0.1-10.6-10.2c2.9-29.2,3.1-58.5,4.1-87.8c0.3-10.8,1-21.6,1-32.5c0-5.7,0.7-10.6,5.1-14.9
			c4.1-4.1,7.9-8.4,13.5-10.5c7.4-2.7,15.9,0.6,19.5,7.5c7.4,13.8,8.9,29.1,11.1,44.2c4,27.4,4.5,55,6,82.6c0.4,8.3-0.3,16.7,2,24.8
			c0.5,1.7,0.2,3.2-2,3c-2.3-0.2-5-0.3-5.2-3.4c-0.2-3-0.1-6,0.3-9c1-7.8,0.8-15.6,0.7-23.5c-0.1-6.2-3.1-12.2-5.4-11.1
			c-4.4,2-4.5,6.7-4.6,10.8c-0.1,10.3-1,20.7,2.6,30.7c1,2.8-0.1,3.4-2.9,3.1c-10.6-1.2-10.6-1.1-10.3-11.7
			c0.9-29.5,1.8-58.9,2.6-88.4c0.1-2.4,1.2-6.6-1.4-7c-2.3-0.4-2.8,4-3.6,6.4c-4.9,14.2-5.4,29.1-5.8,43.9
			c-0.5,16.5,0.4,33,1.2,49.5c0.1,2.2,1.2,5-2.9,4.7c-3.1-0.2-5.7-0.1-5.7-4.7c-0.1-17.7,0-35.3,0.5-53c0.1-2.6,0-5.2,0-7.8
			C304,742.5,303.5,742.4,302.9,742.3z"/>
	</g>
</g>
</svg>
