<?xml version="1.0" encoding="utf-8"?>
<!-- Generator: Adobe Illustrator 21.0.2, SVG Export Plug-In . SVG Version: 6.00 Build 0)  -->
<svg version="1.1" id="Layer_1" xmlns="http://www.w3.org/2000/svg" xmlns:xlink="http://www.w3.org/1999/xlink" x="0px" y="0px"
	 viewBox="0 0 864.7 860.6" style="enable-background:new 0 0 864.7 860.6;" xml:space="preserve">
<style type="text/css">
	.st0{fill:#FFFFFF;}
</style>
<g id="HO1ANE_1_">
	<g>
		<path class="st0" d="M613.6,681.1c-0.5,8.3,0.8,16.5,2.1,24.6c2.6,15.9,1.2,31.9,3.2,47.8c1.8,14.7,3.2,29.5,2.7,44.3
			c-0.4,11.7-2,23.2-3,34.8c-1.2,14.2-4.4,16.9-18.6,17.1c-23.2,0.3-46.2-1.2-69.2-4.3c-12.1-1.6-24.3,0.5-36.3,2
			c-15.2,1.9-30.3,1-45.4,0.4c-13-0.5-26-0.3-38.9-1.6c-19.6-1.9-39.3-1.6-58.9-2.1c-10.9-0.3-22,0.3-32.9,1.4
			c-19.3,1.9-37.4-1.4-54.9-9.5c-7.4-3.4-11-9.8-11.7-17.4c-1.7-20-3.7-39.8,0.8-60c4.2-18.9,3.6-38.6,3.7-59
			c-7.1,7.7-13.8,14.5-19.7,22.1c-7.2,9.3-15,18.2-21.4,28.2c-4.3,6.9-5.8,14.9-10.1,21.6c-0.9,1.4,0,2.7,0.7,3.7
			c1.5,2.4,3,4.8,4.8,6.9c8.9,10.4,8.4,21.8,4,33.8c-5.4,14.6-16.1,25.2-26.8,35.5c-9,8.6-20.7,9.7-32.8,8.7
			c-16.9-1.4-33.2-6.7-50.2-7.1c-6.6-0.2-13.1-2.3-19-5.6c-6.7-3.7-10.1-9.5-10.3-17.1c-0.1-4-0.2-8,0-12c0.2-3.4-1.1-4.1-4.1-3
			c-5.3,2-10.7,2.3-16.2,1.7c-7.2-0.8-13.3-4-16.5-10.6c-9.9-20.3-16-41.6-15.7-64.3c0.1-6.8,1-13.8,4-19.9
			c3.8-7.8,10.4-13.2,17.9-17.5c8.5-4.8,17.4-8.2,27.1-9.9c3.3-0.6,6.5-1.5,9.2-3.6c17.4-13.2,34-12.3,51,1.4c4.1,3.3,6.1,2.2,9.2-1
			c10.5-10.8,17.4-24.3,27.5-35.5c8.9-9.8,15-21.7,23.4-31.7c10.6-12.6,23.4-23.2,35.7-34.1c2.8-2.5,3.9-3.7-0.2-6
			c-11.2-6.3-21.5-14-29.4-24.4c-2.2-3-4.1-2.6-7-0.8c-11.1,6.9-21.8,14.7-33.9,20.1c-3.1,1.4-5.5,4.2-8.2,6.4
			c-12.1,10-27.1,8.7-37.1-3.3c-6.3-7.6-11.2-16.1-14.9-25.3c-6.3-15.4-13.4-30.5-19-46.1C64.8,474.1,50.6,437.2,40.9,399
			c-4.4-17.4-8-35-11.8-52.6c-4.7-22-13.6-42.8-18.9-64.6C4.7,259.2-1.7,236.7,0.4,213c0.4-4.4,1.1-8.2,5.6-10.2
			c5.5-2.5,9-1.8,13.8,4.2c5.9,7.3,12.8,13.6,18.9,20.6c9.8,11.3,21.7,19.7,33.6,28.1c11.4,8,21.1,17.9,30.9,27.5
			c16.7,16.5,33.8,32.5,52,47.4c7.3,6,15.1,11.4,23.5,15c-7.2-42.2,1.6-77.7,41.1-101.2c-7.6-8.7-18.1-14.4-27.8-21
			c-5.3-3.7-11.1-6.7-17.2-9.1c-12.1-4.9-21.9-13.2-31.5-21.6c-7.5-6.5-16-6.8-24.9-4.3c-5.6,1.6-11,3.9-16.4,5.9
			c-16.1,5.9-32.5,1.3-43.5-11.7c-8.6-10.2-16.2-21.2-24.4-31.6c-9.3-11.9-7.3-29.9,1.9-39.5c6-6.3,12.8-11.4,20.2-16.1
			c10.4-6.6,20.3-14,29.8-21.7C92.8,68,99.4,63,108.5,62.8c2,0,3.4-0.7,4.1-2.9c1.7-5.1,5.4-8.9,9.6-11.9
			c14.3-10.3,28.7-20.5,42.5-31.5c4.9-3.9,9.3-8.5,14.7-11.9c13.5-8.4,27.2-5.4,36.4,7.6c11.4,16,23.1,31.8,30.3,50.2
			c5.9,15,5.7,29.9-4.1,43.6c-4.1,5.8-8.2,11.7-12.5,17.5c-1.2,1.6-1,2.3,0.6,3.5c15.7,11.7,27.1,27.4,40.1,41.6
			c14.2,15.6,28.1,31.6,44.9,44.7c1.5,1.2,2.8,2.2,4.9,1.5c10.8-3.3,22-4.9,33.3-6.2c25.5-2.8,51-6.7,76.5-7.1
			c33.1-0.5,66.3-1.7,99.2,3.4c8.2,1.3,16.3,3.1,24.4,5.2c2.5,0.6,3.5,0,4.8-1.8c16-21.9,33-43.1,48.3-65.5
			c6.1-8.9,10.5-18.9,15.7-28.4c1.1-2.1,0.5-4-0.7-5.6c-5.1-7.3-7.8-15.8-12.1-23.5c-6.5-11.7-2.9-24.7,8.6-31.3
			c11.7-6.8,24.9-9.2,37.9-11.9c13-2.7,26.1-4.5,39.5-4.5c14.7,0,29,8.1,31.8,26.8c1.8,11.5,5.3,22.7,5.7,34.4
			c0.1,2.5,1.3,2.3,3.2,2.2c4.7-0.3,9-2.3,13.7-2.6c15.6-0.8,29.5,4,41.9,13c5.1,3.7,7.3,9.7,7.6,15.7c0.9,17.8,0.4,35.7-3.7,53.2
			c-4.3,18.1-13.4,24.1-30.3,24.9c-14.7,0.6-29.7,1.4-44-4.1c-2.5-1-3.8,0.4-5.1,1.9c-6.1,6.6-12.5,12.9-18.1,20
			c-9.2,11.6-19.7,22.2-30,32.8c-3.4,3.5-4.4,6.8-2,11.5c5.9,11.5,6.8,23.8,5.9,36.5c-0.8,10.9-1.3,21.9-3.7,33.2
			c4.8-2.4,7.7-6.2,11.4-8.9c19.8-14.7,39.6-29.4,58.5-45.2c17.2-14.4,35.1-28.3,49.7-45.5c8.3-9.8,16-20,25.5-28.7
			c1.7-1.6,3.3-3.3,5.3-4.5c3.7-2.4,7.8-4.5,12.2-2.1s6.1,6.8,6.1,11.8c0.1,13.5-1.2,26.9-3.5,40.2c-6.2,35.2-12.1,70.5-18.9,105.6
			c-5.6,29.2-13.2,58-22.6,86.3c-10.4,31.4-19.2,63.3-28.5,95.1c-2,6.9-5.6,12.7-10,18.2c-3.5,4.3-8.2,5.8-13.6,6.3
			c-14.6,1.5-28.6-1.2-41.9-6.9c-9.4-4-19.3-6.1-28.8-10.3c-1.6,4.2-1.4,8.3-2,12.3c-1.3,10.1-6.3,17.8-16.1,21.7
			c-3.7,1.5-3.5,2.7-1.2,5.4c7.3,8.4,16.4,15,24.1,23.1c9.5,9.9,17.6,20.9,27.4,30.4c4.9,4.8,10.8,8.3,16.3,12.3
			c8.2,6,16.7,11.6,24.2,18.4c7,6.4,14.3,7.6,22.4,3.5c11.4-5.9,23.6-5.3,35.7-4.6c6.5,0.4,12.1,3.8,17.2,7.5
			c7.3,5.2,14.4,10.8,20.1,17.9c5,6.2,11.6,10.9,15.5,18.2c4.3,7.9,7.6,16.3,10.6,24.7c3.2,9.2-0.4,17.7-4.2,25.9
			c-3.6,7.7-7.7,15.1-12.7,22.1s-11.7,8.5-20.2,7.4c-13.8-1.8-26.2-8.1-40.4-11.8c3.6,5.2,5.9,10,7,15.5c1.3,6.3,0.6,12-3.1,17.1
			c-7.4,10.3-15.6,19.7-27,26.2c-8.2,4.6-15.9,10.2-24.4,14.3c-6.4,3.1-16.1,1.9-22.6-4.3c-5.9-5.6-11.9-11.3-18.4-16.1
			c-12.4-9.1-15.2-21.1-11.6-35.4c1.2-4.8,2.2-9.8,3.8-14.5c1.3-3.8,0.3-6.5-2.1-9.5c-12.6-16.2-28-30-39.4-47.1
			c-10.8-16.2-24.3-30.5-33.6-47.6C614.4,681.5,613.9,681.4,613.6,681.1c-0.2-0.4-0.4-0.9-0.5-1.4c-0.1,0.1-0.3,0.3-0.2,0.4
			C612.9,680.5,612.5,681.3,613.6,681.1z M573.9,673.2c1.1-0.6,1.1-1.2,1-1.9c-4.6-23.7-5.1-47.6-3.8-71.6
			c0.4-6.8,2.1-13.2,8.1-16.9c6.9-4.3,13.5-9.2,20.7-12.8c14.1-7.3,26.5-16.4,37-28.2c2.2-2.5,3.3-5.1,3.4-8.5
			c0.2-7.9-1.9-15.6-1.9-23.2c0-9.1-0.2-18.3,0.1-27.4c0.6-19,0.3-38-0.1-56.9c-0.7-32.3,0.4-64.6-1-96.9
			c-0.8-19.9-4.1-39.3-9.8-58.4c-1-3.5-2.3-7.4-6.4-8.3c-8.7-2-17.6-3.5-26.4-5.2c-0.6-0.1-1.3,0.3-1.9,0.6
			c-2.9,1.2-5.8,1.1-8.8,0.7c-6.3-0.7-12.6-1.8-18.9-1.7c-43.1,0.6-86.2-2.9-129.4-1.9c-9.9,0.2-9.9,0-5.1,8.9
			c1.3,2.3,2.4,4.8,3.6,7.1c6.6,12.9,11.9,26.4,17.3,39.8c3.1,7.5,6.9,14.7,10.4,22.1c1.5,3.1,1.8,6.4-1.1,8.7
			c-7.7,6.1-13.2,14.1-17.9,22.4c-9.9,17.7-25.5,31.6-33.6,50.5c-1,2.3-1.2,3.9,0.2,5.9c6.4,8.4,11.4,17.6,16.1,27
			c4.4,8.7,10.7,16.5,13.4,26.1c0.8,2.7,1.2,5.4-0.7,7.6c-5.5,6.5-9.6,14-15.2,20.3c-4.2,4.7-5.5,9-3.4,14.8c1.5,4,0.8,8.5,3.9,12.1
			c9.2,10.4,16.8,22,22.5,34.6c4.4,9.8,7.9,20.1,12,30c3.4,8.1,7.5,16,10.8,24.1c4.1,10.2-2.1,19.1-13,19.3c-4.8,0.1-9.7,0-14.5-0.2
			c-3.1-0.1-4,0.8-2.4,3.8c4.2,8.1,7.9,16.3,15.7,22c4.6,3.3,7.5,8.4,10.2,13.4c2.2,4,3.8,8.3,7.2,12.4c3.1-8.4,9.1-14.2,13-21.3
			c6.6-12,17.4-18.2,29.9-21.6c16.9-4.7,45.3-0.2,53.7,23C570,670,572.1,671.6,573.9,673.2z M361.1,689.7c0.7-0.6,1.5-1,2-1.6
			c5.1-7.7,10.3-15.3,15-23.3c7.2-12.3,18.2-17.5,32-17.7c6.1-0.1,12.2-0.4,18.4,1c-1.8-9-4.5-11.4-12.8-11.2
			c-7.2,0.1-14.3,0-21.4,0.9c-8.9,1.1-14.2-5.5-11.7-14.2c1.4-5.1,3.4-10.1,4.4-15.4c4.7-24.8,12.2-48.7,21.1-72.2
			c0.7-2,1.1-3.8,0.1-5.8c-3-5.8-4.1-12.3-6.1-18.4c-2-6.3-0.6-11.6,3-16.9c4.9-7.2,10.3-13.9,16-20.4c1.9-2.1,3.7-4.3,1.3-7.4
			c-10.8-14-16.1-31.4-27-45.4c-3.2-4.1-3.4-9.5-0.7-13.8c5.5-8.6,9.3-18,14.3-26.9c7.6-13.4,17.6-25,28.2-36.1
			c4.6-4.8,5.4-9.8,2.8-15.9c-4.4-10.4-9.6-20.4-15.3-30.2c-3.3-5.6-7-11.2-8.1-17.6c-1.6-9.3-6.4-17.4-9.2-26.3
			c-0.5-1.6-1.5-2-2.9-2.1c-13-1.2-25.9-1.6-38.9-0.3c-12.1,1.2-24,3.8-36,5.4c-20.1,2.7-40.4,3.3-60.3,7.9
			c-17,3.9-31.2,12.1-43,24.6c-5.9,6.3-10.3,13.6-11.1,22.4c-0.9,10.1-1.7,20.2-1.8,30.4c0,23.2,0.3,46.3-0.5,69.5
			c-0.8,23,0.3,46,2,68.9c1.2,16.1,6.1,31.6,9.2,47.5c2.2,11.1,8.4,17.7,19.3,21.1c11.9,3.7,24.4,6.6,34,15.6
			c0.6,0.6,1.8,0.6,2.8,0.8c9,1.6,13.1,5.4,14.6,14.5c2.1,12.8-0.3,25.6-0.9,38.4c-0.4,8.5-1.3,16.9-2,25.4
			c9.1-10.5,20.9-11.4,33.1-11.8c7.9-0.2,13.8,3.2,18.7,8.8c3.1,3.5,5.1,7.8,7.2,11.9C356.3,665,357.1,677.6,361.1,689.7z
			 M186.8,395.6c0-3.5,0-7,0-10.5c0-2-0.6-3.5-2.5-4.4c-15.4-7.3-28.8-17.9-42.4-27.9c-10.6-7.8-18.9-18.4-29.7-25.8
			c-12.5-8.7-22.6-20-33.8-30.1c-13.8-12.5-27.6-25-42.4-36.3c-0.8-0.6-1.6-2.1-2.9-1.1c-0.9,0.7-0.2,1.9,0.1,2.8
			c6.8,21.7,12.1,43.9,18.1,65.9c8,29.6,18.1,58.5,27.9,87.4c10.7,31.5,20.8,63.2,33.2,94.1c6.1,15.4,9.2,31.9,17.3,46.7
			c1.7,3.1,2.7,3.4,5.4,1.2c9.2-7.4,18.3-15,28.4-21.1c7.1-4.3,13.9-8.9,20.5-14c7-5.4,9.2-10.7,6.9-19.9
			c-4.8-18.9-4.1-38.7-4.8-58.1C185.4,428.2,185.9,411.9,186.8,395.6z M662.3,488.2c-0.1,14.9-0.1,14.9,10.8,20.8
			c0.7,0.4,1.4,0.9,2.1,1.3c16.8,9.2,32.8,20.1,52,24.4c3.6,0.8,5,0.2,6.2-3.3c4.4-13.2,8.8-26.5,13.9-39.5
			c9.7-24.6,19.7-49.1,25.2-75.1c3.4-15.9,6.4-32,10.7-47.7c3.5-13,7.8-25.8,10.3-39.1c4.4-22.7,10.4-45.1,16.4-67.4
			c0.4-1.5,2.1-3.3,0-4.4c-1.6-0.8-2.5,1.2-3.6,2.1c-9.4,7.7-16.8,17.6-26.4,25c-16.9,13.1-33.1,27.3-50.2,40.2
			c-13.5,10.2-25.1,22.8-39.7,31.8c-7.9,4.9-14.6,11.7-23.7,14.5c-2.6,0.8-2.2,3-2.3,5C663.8,414.8,664.9,452.8,662.3,488.2z
			 M198.2,179.7c3.4,0.1,4.8,1.3,6.2,2.4c14.3,11.8,29.9,22,43.3,35c3.3,3.2,7.5,5.4,11.5,7.8c2.1,1.2,5,1.2,6.3-0.9
			c1.2-2-1.6-2.8-2.8-4c-16-14.8-31-30.6-48.2-44.1c-0.9-0.7-2.6-1.8-1.6-3.2c1.2-1.6,2.7-0.6,3.9,0.3c7.2,5.3,14.2,10.9,20.8,17.1
			c11.2,10.6,22.6,21.1,34,31.6c1.1,1,2.5,2.4,3.8,0.8c1-1.2-0.5-2.3-1.5-3.2c-21-19.9-41.8-40-60.6-62.1
			c-7-8.2-15.4-15.3-20.3-25.1c-2.1-4.3-2.1-8.4,0.1-12.4c1.9-3.7,4.1-7.2,6.3-10.7c5.9-9.6,15-16.4,22.6-24.5
			c3-3.2,3.4-5.9,1.2-9.7c-8-14-19.2-25.8-28.2-39.2c-1.4-2.1-2.7-1.6-4.6-0.6c-15.9,7.8-30.6,17.5-44.2,28.8
			c-2.6,2.2-3.7,4.4-3.7,7.7c0.1,7.2-0.2,14.3,0.1,21.5c0.2,5.1-1.2,9.4-5.8,11.8c-4.9,2.5-9.7,1.3-14-2.1
			c-3.5-2.8-6.9-5.7-10.3-8.6c-2.3-2-4.1-2-6.5,0.1c-3.6,3.2-7.7,5.8-11.6,8.7c-12.2,8.8-25.2,16.8-35.9,27.7
			c-1.8,1.8-3.2,3.2-0.9,5.8c7.8,8.6,15.6,17.3,23.2,26.1c2.1,2.4,4.1,3,7,1.9c11.8-4.3,24.2-5.8,36.4-8.5c9.8-2.2,19.6-1.1,27.2,7
			c8.3,8.9,18.4,15.8,27.7,23.5c17.6,14.7,35.8,28.8,53.4,43.5c1.1,1,2.4,1.8,3.6,2.7c2,1.5,3.7,0,4.8-1.2c1.6-1.8-0.6-2.3-1.6-3.1
			c-4.4-3.5-9.1-6.6-12.9-10.8c-5.1-5.7-11.4-9.9-17.5-14.4c-3.1-2.3-5.7-5.1-8.5-7.7c-1-0.9-2.1-2.2-1-3.4c1.2-1.2,2.4-0.1,3.4,0.8
			c9.5,8.2,20.1,15.2,29,24.1c4,4,8.3,7.4,13.2,10.2c2.4,1.4,5,2.5,6.7,0.2c1.8-2.5-1.7-3.8-2.9-4.8c-11.9-9.2-22.8-19.6-35.2-28.2
			C208,190.4,202.9,186,198.2,179.7z M185.8,716.5c-0.7-0.9-0.4-1.5-0.1-2.1c6.4-12.6,15.2-23.7,25.4-33
			c13-11.9,24.1-25.4,35.9-38.2c2.2-2.4,1.9-5.4,0.1-7.2c-2.3-2.4-3.9,1-5,2.2c-4.2,4.6-7.6,10.1-12,14.5
			c-18.5,18.2-35.7,37.5-53.8,56c-1.1,1.2-2.3,3.3-3.9,1.6c-1.5-1.5,0.4-3,1.5-4.2c13.6-14.6,26.9-29.5,40.9-43.6
			c9.8-9.8,19.1-19.9,27.9-30.7c1.6-1.9,3.2-4.4,0.9-6.1c-2.8-2.2-3.4,1.6-4.5,2.9c-15.1,17-31.2,33.1-48.1,48.4
			c-12.4,11.3-25.1,22.2-35.7,35.4c-5.8,7.3-10.6,15.4-17.6,21.7c-5.7,5.2-11.4,5.3-17.4,0.5c-4.7-3.7-8.3-8.4-10-14
			c-1.6-5-4.1-5-8.1-3.1c-8.4,4.1-17.3,6.8-26,10.2c-7.5,2.9-15.5,3.8-23.2,6c-2.8,0.8-4.1,2.2-3.1,5c5.3,15,8.1,30.5,11.4,45.9
			c0.7,3.1,1.9,3.6,4.9,2.8c7.7-2,15.5-4,23.3-5.4c10.8-2,18.8,6.7,16.4,17.4c-1.3,6-2.7,12-3.4,18.1c-0.8,7.7-0.4,8,7.1,9.7
			c15.6,3.5,31.6,4.7,47.1,8.5c4.3,1.1,7.2-0.3,10-3.6c7.8-9.1,13.8-19.5,21.1-29c1.6-2.1,0.8-3.4-1.3-4.8c-5-3.1-8.9-7.5-12.8-11.8
			c-7.9-8.7-9-16.3-4.4-25.5c11.8-23.7,28-44.3,44.3-65c11.5-14.6,24.8-27.8,37.2-41.7c2.4-2.7,3-5.7,0.2-7.8
			c-2.6-2-3.9,1.5-5.2,2.9c-7.4,8.1-13.8,17.1-21.8,24.5c-12.8,11.9-24.1,25-34.4,39.1C188.6,714.5,188.1,716.4,185.8,716.5z
			 M786.6,748c2.9-0.1,5.5,0.6,7.9,2.5c6.4,5.1,12.8,10,19.2,15.1c1.6,1.3,3,2.2,4.8,0.7c6.9-5.7,14.3-10.8,20.4-17.5
			c2.1-2.2,1.9-3.7-0.3-5.8c-11.6-10.9-21-23.6-29.8-36.7c-3-4.4-6.3-5.5-11-3.6c-5.2,2.1-10.5,4.5-16.1,5.4
			c-8,1.3-15.7,3.4-22.4,7.8c-7,4.6-13.2,3.1-19.5-0.9c-2.4-1.5-4.6-3.3-6.7-5.1c-20.6-16.9-36.8-38.2-57.3-55.3
			c-8.5-7.1-15.1-16.3-23-24c-5.2-5.1-9.3-11.2-15-15.9c-2-1.7-3.2-6.4-6.1-4.1c-1.8,1.5,1.8,4.9,3.9,6.8c8.6,7.8,16.8,16,24.7,24.5
			c9.3,9.9,18.9,19.5,28.4,29.3c0.9,0.9,2.4,2.2,1.4,3.3c-1.3,1.5-2.7,0-3.8-0.9c-1.5-1.3-3.1-2.6-4.5-3.9
			c-9.6-9.2-18.6-19-27.6-28.8c-6-6.5-12.2-12.8-18.3-19.1c-0.8-0.8-1.7-2-2.9-1.1c-1.3,0.9-1,2.4-0.3,3.6c0.6,1,1.4,1.8,2.2,2.7
			c4,4.2,8,8.4,12.1,12.6c11.4,11.7,21.3,24.7,32,37c1.1,1.3,3.5,2.6,1.6,4.4c-1.8,1.8-3.2-0.5-4.6-1.5c-0.6-0.5-1.1-1.3-1.6-1.9
			c-13.2-15.6-26.3-31.4-40.6-46c-1-1-1.8-2.9-3.5-2.4c-2,0.6-2.1,2.9-2.7,4.5c-0.7,1.7,0.9,2.7,1.9,3.8
			c13.8,15.1,26.3,31.4,41.1,45.6c0.9,0.9,2.4,1.8,1.3,3.3c-1,1.4-2.5,0.5-3.6-0.2c-4.2-2.7-7.9-6.1-11.2-9.9
			c-10-11.6-20.1-23.1-30.2-34.6c-0.9-1-1.7-2.9-3.5-1.2c-1.3,1.2-2.1,2.6-1,4.4c0.4,0.7,1,1.3,1.5,2c15.7,22.5,37.3,40.3,51.3,64.1
			c0.1,0.1,0.2,0.2,0.3,0.4c14.5,18.2,29.2,36.3,43.6,54.6c3.3,4.2,4.7,9.3,2.5,14.6c-4,10-8,20.1-12.6,29.9c-1.9,4-0.6,5.7,2.5,7.6
			c6.3,3.7,12.7,7.3,18.8,11.3c2.9,1.9,4.7,1.4,6.6-1.2c4.6-6.2,10.5-11.1,16.4-16c4.6-3.8,9.4-7.5,14.1-11.1c2.8-2.2,3.1-4.1,0.6-7
			c-4.2-4.7-7.8-9.9-10.7-15.6c-4.4-8.5-4.9-17,6.3-21.8c4.4-1.9,8.9-3.9,13.1-6.1C779.8,748.7,783.1,748.2,786.6,748z M665.8,177.5
			c0.2,2.2-1.1,3.3-2.2,4.5c-13.4,15.1-24.8,31.9-37.4,47.7c-3.5,4.4,2.1,5.5,3.8,7.6c2.2,2.8,3.2-0.5,4.1-1.9
			c9.2-13.9,19.2-27.2,30.1-39.8c2.6-3,5.2-6.5,9.4-7.7c1.2,2.6-0.9,3.6-1.9,4.9c-11.7,15.1-23.4,30.1-35.1,45.1
			c-0.7,0.9-2.5,2-1,3.3c1.6,1.4,2.6-0.3,3.6-1.4c2-2.4,3.8-5.1,6-7.3c13.8-14.4,27.6-28.8,41.6-43.1c6.2-6.3,11.7-14.2,21.3-15.7
			c10.4-1.6,20.8-1.9,31.4-0.9c7.9,0.7,15.9,0.9,23.9,1.5c3.4,0.2,4.7-1.2,4.7-4.7c0.1-10.3,0.3-20.6,0.7-31
			c0.1-3.6-1.1-5.1-4.8-5.1c-15.5-0.1-31,0.4-46.4,2.1c-10.1,1.1-16.3-3.3-18.3-13.3c-0.3-1.3-0.3-2.6-0.5-4
			c-1.9-16.4-3.9-32.7-5.8-49.1c-0.3-2.6-1.4-4.1-4.3-3.3c-14.5,4.1-29.6,4.5-44.3,7c-3.9,0.6-4.6,2.1-3.3,5.7
			c3.8,10,7.9,19.7,13.8,28.7c4.7,7.1,3.9,14.1-1.7,20.6c-3,3.5-6,7.2-8.7,10.9c-8.1,10.9-16.6,21.6-24.6,32.7
			c-8.4,11.7-17.8,22.7-26.8,34.1c-2,2.6-2.2,3.9,0.7,5.8c3,2,4.7,2.3,7.3-1c9-11.5,15.8-24.7,26.4-35c5.1-4.9,9-10.9,15-15.5
			c1.3,3.8-1.1,5.5-2.5,7.2c-4.9,5.9-10,11.6-15,17.3c-7.8,8.9-13.1,19.6-21.2,28.3c-1.6,1.7-3.4,3.4-0.2,5c2.4,1.2,4.6,5.5,7.8,0.8
			c2.9-4.4,6.1-8.7,9.2-13c9.9-13.4,19.2-27.2,30.7-39.2c1.2-1.2,2.1-3.1,4.7-2.5c-0.5,2.4-1.7,4.3-3.1,6.1
			c-12.5,16.4-24.9,32.9-37.5,49.2c-2.4,3.1-2.9,5.1,0.7,7.6c3.2,2.2,5.8,4.1,8.3-0.6c0.5-0.9,1.1-1.6,1.7-2.4
			c9.7-12.9,19.2-25.9,29.1-38.6C657.8,181.7,660.8,178.1,665.8,177.5z M525.9,727c3.4,5.8,4.9,11.9,6.4,17.9
			c5.3,20.6,6.9,41.7,5.3,62.9c-0.2,3.1,0.4,4.9,4,4.3c2.7-0.5,6.8,1.4,6.2-4.3c-0.9-8.1-1.2-16.3-2-24.4c-1.8-19.6-4.6-39-3.4-58.8
			c0.1-1.8-0.7-4.4,1.5-4.8c2.6-0.5,2.9,2.3,3.4,4.1c6.5,25.6,10.9,51.4,9.4,77.9c-0.2,3-2.8,7.1-0.3,8.9c2.2,1.6,6.4,0.4,9.7,0.7
			c3.7,0.4,4.6-1.1,4.3-4.6c-0.8-9.6-1.3-19.3-1.9-28.9c-0.2-3.3-0.8-6.7,0.3-9.9c0.4-1.3,0.2-3.4,2.1-3.6c1.4-0.1,2,1.6,2.7,2.7
			c1.4,2.3,2.3,4.8,2.7,7.4c1.8,10.8,1.5,21.6,1.3,32.4c0,1.6-0.8,3.8,1.1,4.5c3.9,1.4,8.2,3.6,11.8,2.9c2.2-0.4-1.4-5-0.8-7.9
			c0-0.2,0-0.3,0-0.5c-2.2-13.6-2.1-27.6-5.3-41.1c-3.7-15.5-7.9-31-11.7-46.5c-4.9-20.1-15.8-36.5-31.6-49.5
			c-5-4.1-10.8-7.9-17.8-5.6c-10.5,3.4-19.2,9.3-23.9,19.7c-7,15.5-9.4,32.3-11.1,48.9c-2.9,27-0.4,54.3-0.3,81.4
			c0,3.1,1.5,4,4.5,3.4c2.9-0.6,5.9-1,8.9-1c3.1,0,4-1.2,3.9-4.1c-0.2-16.7,0.5-33.3-0.4-50c-0.1-2.4,0.1-4.8,1.5-7.2
			c2.4,2.3,2.9,5,3.9,7.4c6.2,15.1,4.3,30.8,3.4,46.4c-0.4,6.7-0.6,6.7,5.7,5.8c1.6-0.2,3.3-0.6,4.9-0.6c2.4,0,3.3-1.1,3.2-3.4
			c-0.2-6.3-0.3-12.7-0.6-19c-1.1-19-2.9-37.9-2.6-56.9C524.4,731.9,523.9,729.5,525.9,727z M425.8,726.9c2.1,3.4,2.3,6.4,2.8,9.3
			c4.4,25.7,4.5,51.7,6.5,77.6c0.2,3.2,0.6,4.9,4.4,4.8c4.4-0.1,3.4-3,3-5.2c-1.6-9.4-0.9-18.9-1-28.4c-0.1-7.8,3.2-14.9,5-22.3
			c0.5-2.1,1.7-3,3.3-0.6c9.4,14.7,10.6,30.7,5.9,47c-2.9,10.3-3.3,10.5,7.6,9c3-0.4,3.8-1.6,3.3-4.6c-2.8-18.8-5.4-37.5-7.9-56.3
			c-2.5-19-5.5-37.9-12.1-56c-4.4-11.9-10.4-22.7-23.1-27.9c-1.7-0.7-3.4-1.7-5.3-0.9c-5.1,2.4-10.9,3.7-15.1,7.5
			c-13.5,12-20.4,27.7-23.6,45.1c-2.4,13.4-4.3,26.9-6.6,40.4c-2.8,15.6-3.7,31.4-3.6,47.2c0,1.8-0.1,4.2,2.2,4.5
			c3.8,0.5,7.6,0.4,11.5,0.4c1.1,0,1.3-0.9,1.2-2.1c-1.3-15.3-0.9-30.6-0.4-45.9c0.2-7,2.2-13.6,5.9-20c4.7,8.6,4.7,8.6,4.8,17.4
			c0.2,15.8,0.4,31.7,0.6,47.5c0,1.9,0,4,2.6,4c3.1,0,6.3,1.2,9.2-0.8c0.4-0.3,0.2-1.6,0.1-2.4c-1-7.8-1.3-15.6-1.7-23.4
			c-1.1-21.5-0.9-43,3.7-64.1c1.4-6.4,3-12.8,7.2-18.5c1.9,1.8,1.5,3.7,1.4,5.5c-0.1,7-0.3,14-0.6,21c-1.3,26-2.2,51.9-1.5,77.9
			c0,1.6-0.4,3.4,1.1,4.7c0.8,0.7,12.4,0.8,12.8,0.1c1.3-2.9-1.9-4.2-2.4-6.5c-0.6-2.4-1.7-4.7-2.1-7.1c-1-6.4-1.9-12.8-2.6-19.3
			c-1.5-16.1-2.3-32.2,0.8-48.3C423.4,733.7,423.7,730.4,425.8,726.9z M302.9,742.3c0.5,0.1,1.1,0.2,1.6,0.4c0,2.6,0.1,5.2,0,7.8
			c-0.5,17.7-0.6,35.3-0.5,53c0,4.6,2.7,4.5,5.7,4.7c4.1,0.3,3-2.6,2.9-4.7c-0.8-16.5-1.7-33-1.2-49.5c0.4-14.8,0.9-29.7,5.8-43.9
			c0.8-2.4,1.3-6.7,3.6-6.4c2.6,0.4,1.4,4.5,1.4,7c-0.8,29.5-1.7,58.9-2.6,88.4c-0.3,10.6-0.2,10.5,10.3,11.7
			c2.9,0.3,3.9-0.3,2.9-3.1c-3.5-10-2.7-20.4-2.6-30.7c0-4.1,0.1-8.8,4.6-10.8c2.4-1.1,5.3,4.9,5.4,11.1c0.1,7.8,0.3,15.7-0.7,23.5
			c-0.4,3-0.5,6-0.3,9c0.2,3.2,2.9,3.3,5.2,3.4c2.1,0.2,2.4-1.3,2-3c-2.3-8.2-1.6-16.5-2-24.8c-1.5-27.6-2-55.2-6-82.6
			c-2.2-15.1-3.7-30.4-11.1-44.2c-3.7-6.8-12.1-10.2-19.5-7.5c-5.6,2.1-9.4,6.4-13.5,10.5c-4.4,4.4-5,9.2-5.1,14.9
			c0,10.8-0.7,21.6-1,32.5c-0.9,29.3-1.2,58.6-4.1,87.8c-1,10-0.6,10.1,10.6,10.2c2.8,0,3.9-1,3.2-4c-3.1-13.3-3.1-26.8-1.7-40.3
			C297.2,755.5,298.9,748.4,302.9,742.3z"/>
		<path class="st0" d="M520.6,526.6c-11.8,0-23.6-0.4-35.4,0.1c-7.8,0.3-13.6-2.4-19-7.5c-4.3-4.1-5.1-8.7-3.4-14.1
			c3.8-12.2,9.1-23.8,14.7-35.2c6.7-13.9,13.2-27.9,19-42.1c4.4-10.6,10.2-20.6,14-31.5c5-14.4,12-27.9,17.7-42
			c4.5-11.2,8.8-22.5,14.1-33.3c3.7-7.5,11-8.6,16.6-2.4c4.1,4.6,5.9,10.1,7,15.8c1.7,9.2,4.9,17.9,7.7,26.7
			c5.3,16.9,9.6,34.1,11.7,51.7c1.5,12,2.4,24,3.3,36.1c1.3,17.5,0.2,35.1,3.6,52.5c1.2,6-7,19.2-15.3,20.3
			C558.1,524.3,539.4,525.3,520.6,526.6z"/>
		<path class="st0" d="M329.2,521.7c-13.8-0.5-27.5,1.4-41.4-1.2c-14.8-2.8-23.3-10.2-25.8-25.3c-1.4-8.8-2.3-17.5-2.6-26.3
			c-0.8-24.5-0.4-49.1,1.5-73.4c2-25.8,5.2-51.7,15.6-75.9c2.1-5,4.5-10.3,11-10c6.9,0.3,12.2,3.8,14.5,10.4
			c5.5,15.5,12.8,30.3,17.8,46.1c5.9,18.2,12.6,36.1,19.8,53.8c4.1,10.2,11.3,18.6,15,28.8c4.8,13.3,13.2,24.9,17.2,38.6
			c1.4,4.8,2.8,9.6,4.6,14.3c2.9,7.6-0.5,13.7-9,17.8c-8.9,4.4-18.6,2.5-27.9,2.8C336.2,522.2,332.7,521.8,329.2,521.7z"/>
		<path class="st0" d="M168.3,456.5c-0.1,7.7-2.8,14.9-4.6,22.3c-1.1,4.5-5,6.8-10,6.5c-5.1-0.4-7.7-3.4-8.9-8
			c-1.3-4.8-1.1-9.6,0-14.3c0.5-2.2,0-3.6-1.3-5.4c-13.3-18.7-26.4-37.5-39.6-56.3c-2.5-3.5-4.3-7.5-5.8-11.6
			c-1.8-4.9-0.9-9.6,1.1-14c1.6-3.7,4.2-2.7,6.3-0.4c6.1,6.8,12.2,13.6,18.2,20.6c10.7,12.5,20.6,25.6,32.3,37.3
			c4.5,4.5,7.8,10.3,11.6,15.5C169.4,451.1,168.1,453.9,168.3,456.5z"/>
		<path class="st0" d="M703.3,497.3c-3.9,0.3-7-1.3-9.7-4.1c-9.7-10.1-14.5-22.5-16.4-36.1c-1.2-8.3-3.9-16.5-1.9-25.2
			c0.6-2.8,1-5.7,2.8-7.9c15.6-19.4,31.2-38.8,47-58.1c2.2-2.7,5.1-4.7,8.2-6.5c7.4-4.2,15.7,0.8,15.5,9.4
			c-0.2,8.5-4.6,15.5-8.1,22.8c-6.9,14.4-17,26.5-27.4,38.4c-2.3,2.6-2.9,5.2-2.8,8.6c0.4,12.9,1.9,25.5,5.7,37.9
			c1,3.1,1,6.6,0.9,9.9C716.8,492.9,711.2,497.2,703.3,497.3z"/>
	</g>
</g>
</svg>
