<?xml version="1.0" encoding="utf-8"?>
<!-- Generator: Adobe Illustrator 21.0.2, SVG Export Plug-In . SVG Version: 6.00 Build 0)  -->
<svg version="1.1" id="Layer_1" xmlns="http://www.w3.org/2000/svg" xmlns:xlink="http://www.w3.org/1999/xlink" x="0px" y="0px"
	 viewBox="0 0 297.2 119.7" style="enable-background:new 0 0 297.2 119.7;" xml:space="preserve">
<style type="text/css">
	.st0{fill:#1E0F11;}
	.st1{fill:#DE215B;}
</style>
<path class="st0" d="M76.8,97.6c-5.6,8.6-13.5,11.3-23.2,8.9c-2.8-0.7-5.5-0.8-8.2,0.2c-6.3,2.2-12.2,0-17.9-1.9
	c-4.1-1.4-6.5-4.9-7.8-9.2c-2.1-7.1-1.8-14.5-3.1-21.6c-1.7-9.1-3.9-18.1-5.8-27.2c-1.4-6.7-2.6-13.3-2.3-20.2
	c0.6-12,10.2-19.7,21.7-16.8c6.6,1.6,14,1.1,19.5,6.4c1.3,1.2,3.2,0.5,4.6-0.4c8.2-5.4,16.5-8.1,26-2.8c2.1,1.2,5.1-0.6,7.6-1.5
	c3.5-1.2,7.2-2.5,10.6-0.9c7,3.2,14.4,1.8,21.6,1.8c4.6,0,8.8,0.5,12.9,2.8c3.3,1.8,5.9,2.1,9.3-1.3c6.9-6.9,15.5-5.2,23.8-2.6
	c1.7,0.5,3.3,1.5,5.3,0.8c15.6-5,30.3-2.9,44.1,6c1.3,0.9,2.2,0.9,3.3-0.5c8-9.7,19-9,30.1-9.2c13.3-0.2,21.9,8.3,31.2,15.6
	c3.4,2.7,3.8,7,4.8,10.7c3.1,11.5,5.3,23.1,2.1,35.2c-3.6,13.4-11.6,23.4-22.7,31.4c-9.4,6.8-19.2,8.9-30.2,4.5
	c-2.2-0.9-4.3-0.9-6.9,0.2c-6,2.5-12,1.8-17.3-2.3c-1.3-1-3-1.4-4.3-2.4c-2.4-1.8-3.6-1.2-5.4,1.2c-5.5,7.5-16.9,8.7-23.7,2.4
	c-3-2.7-4.2-3.1-7.1,0.1c-7.4,8-21.4,9.1-27.1-1.7c-0.6-1.1-1.3-2.1-2.7-1.5c-7.2,3.1-14.8,1.5-22.2,1.7c-6.1,0.1-11.8,1.4-17.3,3.4
	C89.6,110.7,80.9,105.7,76.8,97.6z M48.2,73c3.5,4.4,4.6,8.3,3.8,12.9c-0.7,3.8,1.1,6,5.4,6.6c3.9,0.5,5.6-0.9,6.1-4.5
	c0.2-1.5,0.9-2.9,1.1-4.3c0.9-8.7,3.1-17.3,4.8-25.8c1.8-8.7,4.1-17.3,6.1-26c1.3-5.6-3-6.3-5.4-6.7c-2.6-0.4-6.4,1.4-7.2,4.8
	c-1.2,5.3-2.6,10.5-1.4,16.2c0.7,3.4-0.8,7.2-1.5,10.8c-0.2,1-0.6,2.6-2,2.4c-1.5-0.2-1.1-1.8-1.3-2.9c-1.1-7.5-2.2-15-3.1-22.6
	c-0.3-2.6-1.5-2.6-3.3-1.9c-4.1,1.7-4.9,5.6-4.6,9.1c0.7,6.8-3,12.6-3.5,19c-0.1,0.9-1.1,2-2.9,1.5c1.4-10.2-1.8-20.3-0.1-30.5
	c0.5-2.8,1.4-6.2-4-4.3c-1.5,0.5-3.7-0.7-5.5-1.4c-5.1-2.2-6.3-1.5-6.3,4.1c0,7.2,2.2,14,3.5,21.1c2.1,12,6,23.7,5.8,36.1
	c-0.1,4.6,2.7,5.9,6.7,6c4.3,0.1,5-2.9,5.7-6.2C45.8,82.3,46.9,78.2,48.2,73z M241,23.2c-1.8,0.1-3.7,0-5.4,0.5
	c-2.7,0.8-6.1,2.7-5.5,5.4c1,4.2,0.2,8.4,1.2,12.6c1.4,6.1,2.7,12.3,2.8,18.6c0.2,8.2,2.2,16.3,0.6,24.5c-0.3,1.8,0.6,3,1.6,4.5
	c3.3,4.9,11.2,5.1,15.5,2.4c2.7-1.7,4.2-4.6,6.9-5.9c5.8-2.7,9.6-6.5,10.1-13.1c0.1-1,0.5-2.2,1.6-3c3.3-2.5,3.9-6.6,3.8-10
	c-0.3-6.5-1.5-13-2.8-19.3c-1.4-7-12.8-16.2-20-16.7C247.9,23.3,244.5,23.1,241,23.2z M125.1,88.7c2,0,4,0.1,6,0
	c2.6-0.1,5.7-0.5,6-3.3c0.3-2.6-2.9-4-5.1-4.4c-4.2-0.6-8.3-1.7-12-3.4c-4.5-2.1-10-0.4-13.8-4.4c-1-1-2-1.7-1.4-3.3
	c0.5-1.3,1.6-1.6,2.8-1.6c2.8,0,5.6,0,8.2-1.6c3.1-1.9,6.4-3.4,10.2-3.3c2.8,0.1,5.1-1.4,5.1-4.4c0-3.1-2.6-3.5-5.1-3.4
	c-5.6,0.2-11,0.3-16.4-1.9c-1.4-0.6-2.6-0.4-3.2-2.3c-1.5-4.5-0.7-9.1,3.4-10.6c6.1-2.2,12-6.7,19.2-4.9c1.8,0.4,3.3,0.3,3.9-1.9
	c0.6-2.2-0.2-3.5-2.3-4.2c-4.1-1.4-8-2.6-12.5-2.5c-7.2,0.2-14.5,1.1-21.7-2c-4.1-1.8-10.4,2.1-10.7,5.4C85.2,36.9,85,43,87.5,48.9
	c0.6,1.5,0.9,3.2,1,4.9c0.2,11.7-0.2,23.4,1.8,35c0.7,4.4,2,5.6,6.1,3.9C105.6,88.9,115.3,88.3,125.1,88.7z M190.2,70
	c3.3,3.7,8.2,4.2,10.3,8.4c1.9,3.9,5.5,5.8,8.9,8.2c2.8,1.9,6.4,1.8,8.7,4.6c0.9,1,2,2.1,3.3,0.5c1.1-1.3,1.9-3.4,0.3-4.4
	c-6.5-4-7.2-11.7-11.3-17.2c-2-2.8-2-5.3,1.2-7.7c3.9-2.9,6.6-14.9,4.8-19.6c-4.3-11.7-13.6-18.1-26.3-18.1c-1.6,0-3.3-0.2-4.9-0.5
	c-6.1-1.1-11.5,3.5-10.6,9.7c1.4,10.7,3.2,21.4,4.6,32.2c1,8.4-1.9,17.6,5.2,24.9c1,1,1.4,3.1,2.9,3c2-0.2,1.2-2.3,1.4-3.7
	C189.6,83.8,187.5,77.3,190.2,70z M153.8,83.2c0.2,3.2,0.5,7,0.8,10.9c0.2,2.5,2.1,3,3.3,1.4c1.9-2.6,4.5-4.1,6.9-5.9s2.7-4.4,0.8-7
	c-0.6-0.8-1.6-1.1-1.3-2.8c1.7-9.2,3.6-18.3,2.6-27.8c-0.5-4.9-0.2-9.9,2.1-14.7c1.4-3,2.5-8.1-0.4-9.6c-4.1-2.1-8.8-4.1-13.7-3.9
	c-2.3,0.1-4.4,1.8-3.7,3.7c1.1,3.2-0.1,6.1,0.3,9.2c0.9,8.1,3.3,16.2-0.3,24.3c-1,2.2-0.6,5,0.7,7.3C154.1,72.7,155,77.5,153.8,83.2
	z"/>
<path class="st1" d="M48.2,73c-1.3,5.2-2.4,9.3-3.3,13.5c-0.7,3.2-1.3,6.3-5.7,6.2c-4-0.1-6.8-1.5-6.7-6c0.2-12.4-3.7-24.1-5.8-36.1
	c-1.2-7-3.4-13.8-3.5-21.1c0-5.6,1.2-6.3,6.3-4.1c1.7,0.7,4,1.9,5.5,1.4c5.3-1.9,4.4,1.5,4,4.3c-1.7,10.2,1.5,20.4,0.1,30.5
	C41,62.1,42,61,42,60.1c0.6-6.4,4.2-12.2,3.5-19c-0.3-3.5,0.5-7.4,4.6-9.1c1.8-0.8,3-0.7,3.3,1.9c0.9,7.5,2,15.1,3.1,22.6
	c0.2,1.1-0.3,2.7,1.3,2.9c1.5,0.2,1.8-1.4,2-2.4c0.7-3.6,2.1-7.4,1.5-10.8c-1.1-5.7,0.2-10.9,1.4-16.2c0.8-3.4,4.6-5.2,7.2-4.8
	c2.4,0.4,6.8,1.1,5.4,6.7c-2.1,8.7-4.4,17.3-6.1,26c-1.7,8.5-3.9,17.1-4.8,25.8c-0.2,1.5-0.9,2.9-1.1,4.3c-0.5,3.6-2.2,5-6.1,4.5
	c-4.2-0.6-6.1-2.7-5.4-6.6C52.9,81.2,51.8,77.4,48.2,73z"/>
<path class="st1" d="M241,23.2c3.5-0.1,6.9,0.1,10.4,0.4c7.2,0.5,18.6,9.6,20,16.7c1.3,6.4,2.5,12.9,2.8,19.3
	c0.2,3.4-0.4,7.5-3.8,10c-1.1,0.8-1.5,2-1.6,3c-0.5,6.7-4.3,10.4-10.1,13.1c-2.7,1.2-4.2,4.2-6.9,5.9c-4.4,2.7-12.2,2.5-15.5-2.4
	c-1-1.4-1.9-2.7-1.6-4.5c1.6-8.2-0.4-16.3-0.6-24.5c-0.1-6.2-1.4-12.5-2.8-18.6c-1-4.2-0.2-8.4-1.2-12.6c-0.7-2.7,2.7-4.6,5.5-5.4
	C237.3,23.2,239.2,23.4,241,23.2z M257.5,53.2c-0.1-7.4-1-9.1-6.4-11.3c-2.5-1-6.5-1.5-6.3,2.1c0.5,7.1,0.5,14.2,0.9,21.2
	c0.1,2.6,2,2.5,3.5,1.5C254.4,63.4,258.4,59.3,257.5,53.2z"/>
<path class="st1" d="M125.1,88.7c-9.8-0.4-19.5,0.2-28.7,3.9c-4.1,1.7-5.3,0.5-6.1-3.9c-2-11.6-1.6-23.3-1.8-35c0-1.6-0.3-3.4-1-4.9
	c-2.5-5.9-2.3-12-1.8-18.2c0.3-3.4,6.6-7.2,10.7-5.4c7.1,3.1,14.4,2.2,21.7,2c4.5-0.1,8.5,1.1,12.5,2.5c2.1,0.7,2.9,2,2.3,4.2
	c-0.6,2.2-2.1,2.4-3.9,1.9c-7.2-1.8-13.1,2.6-19.2,4.9c-4.1,1.5-4.9,6.1-3.4,10.6c0.6,1.9,1.8,1.8,3.2,2.3
	c5.3,2.2,10.8,2.1,16.4,1.9c2.5-0.1,5.1,0.3,5.1,3.4c0,3-2.2,4.4-5.1,4.4c-3.8-0.1-7.1,1.4-10.2,3.3c-2.6,1.6-5.4,1.6-8.2,1.6
	c-1.3,0-2.3,0.3-2.8,1.6c-0.6,1.5,0.4,2.2,1.4,3.3c3.9,4,9.4,2.3,13.8,4.4c3.7,1.7,7.8,2.8,12,3.4c2.3,0.4,5.4,1.7,5.1,4.4
	c-0.3,2.8-3.4,3.2-6,3.3C129.1,88.8,127.1,88.7,125.1,88.7z"/>
<path class="st1" d="M190.2,70c-2.7,7.2-0.6,13.8-1.6,20.2c-0.2,1.4,0.6,3.5-1.4,3.7c-1.5,0.2-1.9-2-2.9-3
	c-7.1-7.3-4.1-16.5-5.2-24.9c-1.3-10.8-3.1-21.4-4.6-32.2c-0.8-6.1,4.5-10.8,10.6-9.7c1.6,0.3,3.3,0.4,4.9,0.5
	c12.7,0.1,21.9,6.4,26.3,18.1c1.8,4.7-0.9,16.7-4.8,19.6c-3.2,2.4-3.2,4.9-1.2,7.7c4,5.5,4.8,13.2,11.3,17.2c1.6,1,0.8,3.1-0.3,4.4
	c-1.3,1.5-2.4,0.5-3.3-0.5c-2.3-2.7-6-2.7-8.7-4.6c-3.4-2.4-7-4.3-8.9-8.2C198.4,74.3,193.5,73.8,190.2,70z M194.4,56.5
	c6.8-0.1,10.1-3,10.1-8.4c0-2.5-6.5-7.5-9.8-6.6c-6.5,1.7-2.6,7.7-3.9,11.6C189.8,56,192.1,56.8,194.4,56.5z"/>
<path class="st1" d="M153.8,83.2c1.2-5.7,0.3-10.5-2.2-15c-1.3-2.3-1.6-5.1-0.7-7.3c3.6-8.1,1.2-16.2,0.3-24.3
	c-0.3-3.1,0.8-6-0.3-9.2c-0.6-1.9,1.4-3.6,3.7-3.7c5-0.2,9.7,1.8,13.7,3.9c3,1.5,1.9,6.6,0.4,9.6c-2.2,4.8-2.6,9.8-2.1,14.7
	c1.1,9.5-0.8,18.6-2.6,27.8c-0.3,1.7,0.7,2,1.3,2.8c1.9,2.6,1.6,5.2-0.8,7c-2.4,1.8-5,3.3-6.9,5.9c-1.2,1.6-3.1,1.1-3.3-1.4
	C154.2,90.2,154,86.4,153.8,83.2z"/>
<path class="st0" d="M257.5,53.2c1,6.1-3.1,10.2-8.2,13.6c-1.6,1-3.4,1.1-3.5-1.5c-0.4-7.1-0.4-14.2-0.9-21.2
	c-0.2-3.6,3.7-3.1,6.3-2.1C256.4,44.1,257.4,45.9,257.5,53.2z"/>
<path class="st0" d="M194.4,56.5c-2.3,0.3-4.6-0.5-3.6-3.4c1.3-3.9-2.6-9.9,3.9-11.6c3.3-0.9,9.8,4.1,9.8,6.6
	C204.5,53.5,201.2,56.4,194.4,56.5z"/>
</svg>
